<?xml version="1.0" encoding="UTF-8" standalone="no"?>
<!-- Created with Inkscape (http://www.inkscape.org/) -->
<svg id="svg2" xmlns:rdf="http://www.w3.org/1999/02/22-rdf-syntax-ns#" xmlns="http://www.w3.org/2000/svg" height="48" width="48" version="1.0" xmlns:cc="http://creativecommons.org/ns#" xmlns:xlink="http://www.w3.org/1999/xlink" xmlns:dc="http://purl.org/dc/elements/1.1/">
 <defs id="defs4">
  <linearGradient id="linearGradient11333">
   <stop id="stop11335" style="stop-color:#fff" offset="0"/>
   <stop id="stop11337" style="stop-color:#fff;stop-opacity:0" offset="1"/>
  </linearGradient>
  <linearGradient id="linearGradient10406" y2="8.2264" gradientUnits="userSpaceOnUse" x2="11.215" y1="19.516" x1="14.366">
   <stop id="stop11243" style="stop-color:#4f381b;stop-opacity:.97255" offset="0"/>
   <stop id="stop11245" style="stop-color:#a87b42;stop-opacity:.96078" offset="1"/>
  </linearGradient>
  <linearGradient id="linearGradient11202" y2="10.592" gradientUnits="userSpaceOnUse" x2="9.988" y1="8.5496" x1="9.7069">
   <stop id="stop11495" style="stop-color:#555753" offset="0"/>
   <stop id="stop11497" style="stop-color:#070808" offset="1"/>
  </linearGradient>
  <linearGradient id="linearGradient11206" y2="10.592" gradientUnits="userSpaceOnUse" x2="9.988" y1="8.5496" x1="9.7069">
   <stop id="stop11198" style="stop-color:#555753" offset="0"/>
   <stop id="stop11200" offset="1"/>
  </linearGradient>
  <radialGradient id="radialGradient11271" fx="11.594" fy="8.8655" gradientUnits="userSpaceOnUse" cy="12.147" cx="11.874" gradientTransform="matrix(1.8771 9.6878e-8 -5.3309e-8 1.0893 -10.483 -2.6429)" r="9.9753">
   <stop id="stop11318" style="stop-color:#edd400" offset="0"/>
   <stop id="stop11320" style="stop-color:#f6c93b;stop-opacity:0" offset="1"/>
  </radialGradient>
  <linearGradient id="linearGradient11310" y2="9.6527" xlink:href="#linearGradient11333" gradientUnits="userSpaceOnUse" x2="10.733" y1="6.2637" x1="8.953"/>
  <radialGradient id="radialGradient11327" fx="11.801" fy="1.1734" gradientUnits="userSpaceOnUse" cy="7.3689" cx="11.736" gradientTransform="matrix(1.0234 0 0 .88709 -.27095 .70646)" r="9.9753">
   <stop id="stop11261" style="stop-color:#fff" offset="0"/>
   <stop id="stop11263" style="stop-color:#fff;stop-opacity:0" offset="1"/>
  </radialGradient>
  <linearGradient id="linearGradient11339" y2="22.562" xlink:href="#linearGradient11333" gradientUnits="userSpaceOnUse" x2="20.688" gradientTransform="matrix(1.0833 0 0 1.1667 -3.9583 -5.25)" y1="11.875" x1="14.688"/>
  <linearGradient id="linearGradient11343" y2="22.562" xlink:href="#linearGradient11333" gradientUnits="userSpaceOnUse" x2="20.688" gradientTransform="matrix(1.0833 0 0 1.1667 10.042 -5.25)" y1="11.875" x1="14.688"/>
  <linearGradient id="linearGradient11480" y2="24.104" gradientUnits="userSpaceOnUse" x2="16.958" gradientTransform="matrix(1.1 0 0 1.2 -4.2499 -5.9)" y1="15.786" x1="14.729">
   <stop id="stop11489" style="stop-color:#538ac5" offset="0"/>
   <stop id="stop11491" style="stop-color:#fff" offset="1"/>
  </linearGradient>
  <filter id="filter11503" height="1.6566" width="1.2339" y="-.32830" x="-.11697">
   <feGaussianBlur id="feGaussianBlur11505" stdDeviation="0.64772565"/>
  </filter>
  <linearGradient id="linearGradient11507" y2="24.104" gradientUnits="userSpaceOnUse" x2="16.958" gradientTransform="matrix(-1.1 0 0 1.2 48.25 -5.9)" y1="15.786" x1="14.729">
   <stop id="stop11476" style="stop-color:#558bc5" offset="0"/>
   <stop id="stop11478" style="stop-color:#fff" offset="1"/>
  </linearGradient>
  <radialGradient id="radialGradient8722" gradientUnits="userSpaceOnUse" cy="4.7733" cx="44.769" gradientTransform="matrix(1.7014 0 0 1.0125 -31.4 2.4539)" r="9.0598">
   <stop id="stop8718" style="stop-color:#fff" offset="0"/>
   <stop id="stop8720" style="stop-color:#fff;stop-opacity:0" offset="1"/>
  </radialGradient>
  <linearGradient id="linearGradient8736" y2="19.126" gradientUnits="userSpaceOnUse" x2="45.837" y1="21.755" x1="45.837">
   <stop id="stop8732" style="stop-color:#fff" offset="0"/>
   <stop id="stop8734" style="stop-color:#fff;stop-opacity:0" offset="1"/>
  </linearGradient>
  <radialGradient id="radialGradient8738" gradientUnits="userSpaceOnUse" cy="21.609" cx="44.769" gradientTransform="matrix(1.3094 0 0 .77928 -13.853 2.5)" r="9.0598">
   <stop id="stop8708" style="stop-color:#391f17" offset="0"/>
   <stop id="stop8710" style="stop-color:#841c0e" offset="1"/>
  </radialGradient>
 </defs>
 <metadata id="metadata7">
  <rdf:RDF>
   <cc:Work rdf:about="">
    <dc:format>image/svg+xml</dc:format>
    <dc:type rdf:resource="http://purl.org/dc/dcmitype/StillImage"/>
   </cc:Work>
  </rdf:RDF>
 </metadata>
 <g id="layer1">
  <path id="path17958" style="opacity:.73423;filter:url(#filter11503);enable-background:new;fill:#2e3436" d="m17.394 10.458a6.6449 2.3675 0 1 1 -13.29 0 6.6449 2.3675 0 1 1 13.29 0z" transform="matrix(2.2574 0 0 2.7455 -1.2637 9.789)"/>
  <path id="path17960" style="stroke-width:.48784;stroke:url(#linearGradient10406);enable-background:new;fill:#e08700" d="m21.781 10.983a9.9753 9.9753 0 1 1 -19.95 0 9.9753 9.9753 0 1 1 19.95 0z" transform="matrix(2.055 0 0 2.0549 -2.2612 1.4304)"/>
  <path id="path11247" style="enable-background:new;fill:url(#radialGradient11271)" d="m21.781 10.983a9.9753 9.9753 0 1 1 -19.95 0 9.9753 9.9753 0 1 1 19.95 0z" transform="matrix(1.9047 0 0 1.9047 -.48741 3.0805)"/>
  <path id="path11257" style="enable-background:new;fill:url(#radialGradient11327)" d="m21.781 10.983a9.9753 9.9753 0 1 1 -19.95 0 9.9753 9.9753 0 1 1 19.95 0z" transform="matrix(1.9047 0 0 1.9047 -.48741 3.0805)"/>
  <path id="path11329" style="stroke:url(#linearGradient11339);enable-background:new;fill:none" d="m21.5 17.5c0 3.864-2.912 7-6.5 7s-6.5-3.136-6.5-7 2.912-7 6.5-7 6.5 3.136 6.5 7z"/>
  <path id="path17964" style="opacity:0.487;stroke-width:.51155;stroke:#fff;enable-background:new;fill:none" d="m21.781 10.983a9.9753 9.9753 0 1 1 -19.95 0 9.9753 9.9753 0 1 1 19.95 0z" transform="matrix(1.9548 0 0 -1.9548 -1.0792 45.47)"/>
  <path id="path17966" style="stroke:url(#linearGradient11480);enable-background:new;fill:#fff" d="m20.5 17.5c0 3.312-2.464 6-5.5 6s-5.5-2.688-5.5-6 2.464-6 5.5-6 5.5 2.688 5.5 6z"/>
  <path id="path17968" style="enable-background:new;fill:url(#linearGradient11202)" d="m10.733 9.6527a1.0259 1.9414 0 1 1 -2.052 0 1.0259 1.9414 0 1 1 2.052 0z" transform="matrix(2.9241 0 0 1.5453 -12.384 4.0838)"/>
  <path id="path11325" style="stroke-width:.36838;stroke:#fff;enable-background:new;fill:none" d="m7.2134 8.4869a1.2277 1.7411 0 0 1 2.0751 -0.3444" transform="matrix(3.7381 .69893 -.70627 1.8393 3.5298 -13.968)"/>
  <path id="path17976" style="stroke-width:.36838;stroke:#a95300;enable-background:new;fill:none" d="m7.2134 8.4869a1.2277 1.7411 0 0 1 2.0751 -0.3444" transform="matrix(3.7381 .69893 -.70627 1.8393 3.5298 -12.968)"/>
  <path id="path11323" style="stroke-width:.36838;stroke:#fff;enable-background:new;fill:none" d="m7.2134 8.4869a1.2277 1.7411 0 0 1 2.0751 -0.3444" transform="matrix(-3.7381 .69893 .70627 1.8393 40.47 -13.968)"/>
  <path id="path17978" style="stroke-width:.36838;stroke:#a95300;enable-background:new;fill:none" d="m7.2134 8.4869a1.2277 1.7411 0 0 1 2.0751 -0.3444" transform="matrix(-3.7381 .69893 .70627 1.8393 40.47 -12.968)"/>
  <path id="path11482" style="stroke:url(#linearGradient11507);enable-background:new;fill:#fff" d="m23.5 17.5c0 3.312 2.464 6 5.5 6s5.5-2.688 5.5-6-2.464-6-5.5-6-5.5 2.688-5.5 6z"/>
  <path id="path11204" style="enable-background:new;fill:url(#linearGradient11206)" d="m10.733 9.6527a1.0259 1.9414 0 1 1 -2.052 0 1.0259 1.9414 0 1 1 2.052 0z" transform="matrix(2.9242 0 0 1.5453 -.38498 4.0838)"/>
  <path id="path11300" style="enable-background:new;fill:url(#linearGradient11310)" d="m10.733 9.6527a1.0259 1.9414 0 1 1 -2.052 0 1.0259 1.9414 0 1 1 2.052 0z" transform="matrix(1.9494 0 0 1.0302 -2.9228 9.0559)"/>
  <path id="path11312" style="enable-background:new;fill:url(#linearGradient11310)" d="m10.733 9.6527a1.0259 1.9414 0 1 1 -2.052 0 1.0259 1.9414 0 1 1 2.052 0z" transform="matrix(1.9495 0 0 1.0302 9.0766 9.0559)"/>
  <path id="path11341" style="stroke:url(#linearGradient11343);enable-background:new;fill:none" d="m35.5 17.5c0 3.864-2.912 7-6.5 7s-6.5-3.136-6.5-7 2.912-7 6.5-7 6.5 3.136 6.5 7z"/>
  <path id="path8714" style="fill:url(#radialGradient8722)" d="m53.829 16.003a9.0598 5.3917 0 1 1 -18.12 0 9.0598 5.3917 0 1 1 18.12 0z" transform="matrix(1.0486 0 0 1.2983 -25.444 12.223)"/>
  <path id="path7934" style="fill:url(#radialGradient8738)" d="m53.829 16.003a9.0598 5.3917 0 1 1 -18.12 0 9.0598 5.3917 0 1 1 18.12 0z" transform="matrix(.93821 0 0 1.1128 -20.502 15.191)"/>
  <path id="path8728" style="stroke-width:.80703;stroke:url(#linearGradient8736);stroke-linecap:square;fill:none" d="m53.829 16.003a9.0598 5.3917 0 1 1 -18.12 0 9.0598 5.3917 0 1 1 18.12 0z" transform="matrix(1.1038 0 0 1.391 -27.915 10.739)"/>
 </g>
</svg>
