/* XPM */
static char *gnome_gnumeric[] = {
/* columns rows colors chars-per-pixel */
"32 32 156 2 ",
"   c #795F5B",
".  c #71746F",
"X  c #747671",
"o  c #757873",
"O  c #7C7D7B",
"+  c #A40302",
"@  c #A20A09",
"#  c #AA0D0D",
"$  c #A4110A",
"%  c #AB1010",
"&  c #AD1B1A",
"*  c #B31A1A",
"=  c #B91A1A",
"-  c #AE201D",
";  c #A6311E",
":  c #9A2524",
">  c #942D35",
",  c #AC2A21",
"<  c #B22424",
"1  c #BD2222",
"2  c #B5352D",
"3  c #C22929",
"4  c #C23B3B",
"5  c #C83F3F",
"6  c #D63E3E",
"7  c #B34024",
"8  c #AF4A33",
"9  c #C15632",
"0  c #885358",
"q  c #8C5A5D",
"w  c #B9644B",
"e  c #BF6C58",
"r  c #D14545",
"t  c #DF4949",
"y  c #C25B50",
"u  c #E54F4F",
"i  c #E45151",
"p  c #E65959",
"a  c #C16257",
"s  c #CA6B6B",
"d  c #D96F69",
"f  c #CA746C",
"g  c #CD7868",
"h  c #F46565",
"j  c #F46D6D",
"k  c #F57272",
"l  c #F57C7C",
"z  c #81837E",
"x  c #DE817B",
"c  c #204B87",
"v  c #224C88",
"b  c #28538E",
"n  c #33598F",
"m  c #2E5892",
"M  c #3F669B",
"N  c #536C8C",
"B  c #446FA7",
"V  c #5576A5",
"C  c #507BAF",
"Z  c #507CB1",
"A  c #5A86BB",
"S  c #5F8ABF",
"D  c #6084AC",
"F  c #7B90AA",
"G  c #6490C1",
"H  c #6D97C7",
"J  c #6C97C8",
"K  c #779AC5",
"L  c #729DCC",
"P  c #76A1CE",
"I  c #78A3D1",
"U  c #848681",
"Y  c #868884",
"T  c #888B85",
"R  c #8D8E8B",
"E  c #8D908A",
"W  c #90938C",
"Q  c #939691",
"!  c #969993",
"~  c #999C96",
"^  c #9C9E99",
"/  c #9FA09C",
"(  c #A0A29E",
")  c #8197B3",
"_  c #849AB6",
"`  c #879CB9",
"'  c #889EBB",
"]  c #8DA0BC",
"[  c #A4A5A2",
"{  c #A6A8A5",
"}  c #A9ABA6",
"|  c #AAABA8",
" . c #AEB1AB",
".. c #B1B4AD",
"X. c #B4B7B1",
"o. c #B6B9B3",
"O. c #B8BAB4",
"+. c #BCBEBA",
"@. c #D78585",
"#. c #D48D8C",
"$. c #C9969C",
"%. c #D99795",
"&. c #F68484",
"*. c #F78D8D",
"=. c #E79791",
"-. c #F79393",
";. c #F89C9C",
":. c #EFA39F",
">. c #DFABAB",
",. c #E0A7A6",
"<. c #E7ACA5",
"1. c #F6A7A6",
"2. c #F8A3A3",
"3. c #F5A9A6",
"4. c #F5ACAA",
"5. c #F8AFAF",
"6. c #F8B0AE",
"7. c #F6B2B0",
"8. c #F9B2B2",
"9. c #BEC0BC",
"0. c #C0C2BE",
"q. c #97AAC4",
"w. c #A3B1C1",
"e. c #A8BBCB",
"r. c #A8C1D6",
"t. c #ADC5DB",
"y. c #B0C7DE",
"u. c #B7CDE7",
"i. c #BED2E9",
"p. c #C4C5C2",
"a. c #C7C8C5",
"s. c #C8CBC5",
"d. c #C9CCC8",
"f. c #CED0CC",
"g. c #D1D4CE",
"h. c #D4D6D1",
"j. c #D7D9D5",
"k. c #D9DBD6",
"l. c #DBDDDA",
"z. c #ECCFCE",
"x. c #DEE0DD",
"c. c #E1E4DF",
"v. c #E4E5E2",
"b. c #E6E8E4",
"n. c #E9EBE7",
"m. c #ECEDEB",
"M. c #F2E3E2",
"N. c #F6E8E8",
"B. c #EFF0ED",
"V. c #F0F1EF",
"C. c #F4F5F3",
"Z. c #F8F6F5",
"A. c #F7F8F7",
"S. c #F8F8F7",
"D. c #FDFDFC",
"F. c None",
/* pixels */
"F.F.F.F.F.F.F.F.F.F.F.F.F.F.F.F.F.F.F.F.F.F.F.F.F.F.F.F.F.F.F.F.",
"F.F.F.F.F.O.o.o.o.o.X...X............. .{ ! ! ! ! ! ~ F.F.F.F.F.",
"F.F.F.F.O.A.D.D.D.D.D.D.D.D.D.D.D.D.A.c.s...g.B.m.m.s.~ F.F.F.F.",
"F.F.F.F...D.A.C.C.C.V.V.V.m.m.m.m.b.m.m.n.k.o.9.l.l.m.! F.F.F.F.",
"F.F.F.F...D.C.C.V.V.V.V.m.m.m.n.b.b.b.c.C.m.k.o.O.l.m.! F.F.F.F.",
"F.F.F.F. .D.q.` ' ' ' ` ` ` ` _ _ ) _ ) w.D.m.x...+.V.! F.F.F.F.",
"F.F.F.F.| D.] y.y.y.` t.t.t._ t.t.t._ r.e.S.S.c.l.} j.! F.F.F.F.",
"F.F.F.F.| D.] ` ' _ ' ` ` ` ` _ _ _ _ ) F C.D.m.c.h.[ ! F.F.F.F.",
"F.F.F.F.{ D.[ g.h.g.( b.m.n.+.b.n.b.+.l.l.f.[ O.a.v...~ F.F.F.F.",
"F.F.F.F.{ D.{ / ( ( ( 9.9.+.+.+.+.+.+.+...| ( ~ ~ d.j.^ F.F.F.F.",
"F.F.F.F.( D.[ g.h.g.( b.n.n.9.b.b.n.+.v.b.v.O.j.f.| C.~ F.F.F.F.",
"F.F.F.F.( D.[ / ( ( ( 9.9.9.+.+.+.+.+.+.+.+.+.+.9.9.D./ F.F.F.F.",
"F.F.F.F./ D.[ g.g.h.( b.n.n.9.b.n.n.+.n.n.n.+.b.m.9.D.^ F.F.F.F.",
"F.F.F.F.^ D.[ / ( ( [ +.9.+.9.+.+.+.0.+.9.+.0.9.9.0.D.~ F.F.F.F.",
"F.F.F.F.~ D.( g.g.h.( b.m.m.9.n.m.m.0.n.m.m.+.n.m.n V N F.F.F.F.",
"F.F.F.F.! D.{ ( ( ( [ 9.0.0.R l.l.O l.l.O l.l.O l.v A Z m v F.F.",
"F.F.F.F.Q D.[ g.h.h.( m.B.V.l.S.S.S.S.S.Z.S.S.S.Z.v L I L Z v F.",
"F.F.F.F.Q D.[ [ ( [ [ 0.0.p.l.S.S.S.S.Z.@.4 = @ M.v P P L J B v ",
"F.F.F.F.W D.[ h.j.j.[ B.C.V.O C.S.S.,.* = 6 i # M.v P P L J G v ",
"F.F.F.F.R D.[ [ [ ( { 0.p.p.l.D.D.>.# u h h h % M.v u.i.i.i.i.M ",
"F.F.F.F.R D.{ j.j.j.{ V.S.C.x.D.z.# i h h j j % N.v K D A A S b ",
"F.F.F.F.Y D.{ [ [ [ { p.p.p.O S.s r j j j j j % M.c v v c c v v ",
"F.F.F.F.Y D.{ h.j.j.{ V.Z.S.x.D.< p j j j j j % %.0 $.q > F.F.F.",
"F.F.F.F.U D.{ [ [ { { p.a.a.x.D.+ l j j j j j 3 1 1 1 1 1 5 + F.",
"F.F.F.F.U D.{ h.j.j.{ V.S.S.O D.# 1.&.j j j j j j j j k &.6.+ F.",
"F.F.F.F.z D. .[ [ { | p.a.a.j.v.: d 1.j j j k k k k l l 2.x + F.",
"F.F.F.F.O D.C.C.C.A.S.C.C.S.S.S.#.2 3.;.k k k l l &.&.2.6., + F.",
"F.F.F.F.O m.D.D.D.D.D.D.D.D.D.D.N.& y 7.6.;.*.*.-.2.5.2.9 + F.F.",
"F.F.F.F.F.o o o o o X X X X . . .   @ f <.:.4.8.4.=.g 7 + F.F.F.",
"F.F.F.F.F.F.F.F.F.F.F.F.F.F.F.F.F.F.F.@ - a a w 8 ; $ + F.F.F.F.",
"F.F.F.F.F.F.F.F.F.F.F.F.F.F.F.F.F.F.F.F.F.@ + + + + F.F.F.F.F.F.",
"F.F.F.F.F.F.F.F.F.F.F.F.F.F.F.F.F.F.F.F.F.F.F.F.F.F.F.F.F.F.F.F."
};
