/* XPM */
static char *ubiquity[] = {
/* columns rows colors chars-per-pixel */
"32 32 214 2 ",
"   c #000000",
".  c #020202",
"X  c #0A0A0A",
"o  c #2F5000",
"O  c #3F6B00",
"+  c #434242",
"@  c #4A4A4A",
"#  c #4B4B4B",
"$  c #4D4C4C",
"%  c #545353",
"&  c #575757",
"*  c #585858",
"=  c #595959",
"-  c #5A5A5A",
";  c #5B5A5A",
":  c #5B5B5B",
">  c #5C5C5C",
",  c #5D5C5C",
"<  c #5D5D5D",
"1  c #5E5D5D",
"2  c #5F5E5E",
"3  c #605F5F",
"4  c #5D674C",
"5  c #616F4B",
"6  c #676666",
"7  c #686868",
"8  c #696868",
"9  c #6F7368",
"0  c #707567",
"q  c #707070",
"w  c #767575",
"e  c #C80016",
"r  c #C90016",
"t  c #C90116",
"y  c #D21214",
"u  c #D72412",
"i  c #DA3916",
"p  c #F9550B",
"a  c #FF6209",
"s  c #FF6309",
"d  c #FD6509",
"f  c #FF6509",
"g  c #FD6609",
"h  c #F46C0A",
"j  c #FF6E0B",
"k  c #70BF00",
"l  c #738C4B",
"z  c #778068",
"x  c #BA9511",
"c  c #B69812",
"v  c #B99B11",
"b  c #BD9F11",
"n  c #BEA111",
"m  c #BFA310",
"M  c #C89C0F",
"N  c #D6910D",
"B  c #D69C0E",
"V  c #D8990D",
"C  c #C7AB0F",
"Z  c #C8AC0F",
"A  c #C9AE0E",
"S  c #C9AE0F",
"D  c #CAAE0E",
"F  c #CAAF0E",
"G  c #CAAE0F",
"H  c #CCAE0E",
"J  c #CEB20E",
"K  c #D2B70D",
"L  c #D3B90D",
"P  c #D8BF0C",
"I  c #D9BF0C",
"U  c #C1A410",
"Y  c #C1A510",
"T  c #C1A411",
"R  c #C2A510",
"E  c #C3A610",
"W  c #C4A810",
"Q  c #C6AA10",
"!  c #C7AB10",
"~  c #FAA615",
"^  c #FBA615",
"/  c #FFAB14",
"(  c #FFB215",
")  c #FFB415",
"_  c #FFB515",
"`  c #FFB615",
"'  c #DDC30B",
"]  c #DFC70B",
"[  c #DCC20C",
"{  c #E3CA0B",
"}  c #E4CB0A",
"|  c #E7CE0A",
" . c #E7CF0A",
".. c #E8CF0A",
"X. c #EAD109",
"o. c #EBD209",
"O. c #ECD409",
"+. c #EDD509",
"@. c #EDD609",
"#. c #EED609",
"$. c #EED709",
"%. c #EFD709",
"&. c #9E9E9E",
"*. c #AAAAAA",
"=. c #ABABAB",
"-. c #ADADAD",
";. c #AEADAD",
":. c #AEAEAE",
">. c #B0B0B0",
",. c #B1B1B1",
"<. c #B4B4B4",
"1. c #B5B5B5",
"2. c #B6B6B6",
"3. c #B7B7B7",
"4. c #B8B8B8",
"5. c #B9B8B8",
"6. c #B9B9B9",
"7. c #BABABA",
"8. c #BBBBBB",
"9. c #BCBBBB",
"0. c #BCBCBC",
"q. c #BDBCBC",
"w. c #BDBDBD",
"e. c #BEBDBD",
"r. c #BEBEBE",
"t. c #BFBEBE",
"y. c #BFBFBF",
"u. c #C0BFBF",
"i. c #C0C0C0",
"p. c #C1C0C0",
"a. c #C1C1C1",
"s. c #C2C0C0",
"d. c #C2C1C1",
"f. c #C2C2C2",
"g. c #C3C2C2",
"h. c #C3C3C3",
"j. c #C4C3C3",
"k. c #C5C3C3",
"l. c #C4C4C4",
"z. c #C5C4C4",
"x. c #C5C5C5",
"c. c #C6C5C5",
"v. c #C6C6C6",
"b. c #C7C6C6",
"n. c #C7C7C7",
"m. c #C8C6C6",
"M. c #C8C7C7",
"N. c #C9C7C7",
"B. c #C8C8C8",
"V. c #C9C8C8",
"C. c #C9C9C9",
"Z. c #CAC9C9",
"A. c #CACACA",
"S. c #CBCACA",
"D. c #CBCBCB",
"F. c #CCCBCB",
"G. c #CCCCCC",
"H. c #CDCCCC",
"J. c #CDCDCD",
"K. c #CECDCD",
"L. c #CECECE",
"P. c #CFCECE",
"I. c #CFCFCF",
"U. c #D0CFCF",
"Y. c #D1CFCF",
"T. c #D1CFD1",
"R. c #D2CFD3",
"E. c #D0D0D0",
"W. c #D1D0D0",
"Q. c #D1D1D1",
"!. c #D2D0D0",
"~. c #D2D1D1",
"^. c #D2D2D2",
"/. c #D3D2D2",
"(. c #D4D2D2",
"). c #D4D3D3",
"_. c #D5D3D3",
"`. c #D5D3D4",
"'. c #D5D4D4",
"]. c #D6D5D5",
"[. c #D7D5D5",
"{. c #D7D5D6",
"}. c #D6D6D6",
"|. c #D7D6D6",
" X c #D7D7D7",
".X c #D8D6D6",
"XX c #D8D7D7",
"oX c #D9D7D7",
"OX c #D8D6D8",
"+X c #D8D8D8",
"@X c #D9D8D8",
"#X c #DAD8D8",
"$X c #DAD9D9",
"%X c #DBD9D9",
"&X c #DBDADA",
"*X c #DCDADA",
"=X c #DCDBDB",
"-X c #DDDBDB",
";X c #DBDCDC",
":X c #DEDCDC",
">X c #DFDFDF",
",X c #E0E0E0",
"<X c #E4E4E4",
"1X c #E5E4E4",
"2X c #E4E5E5",
"3X c #E5E5E5",
"4X c #E6E6E6",
"5X c #E7E7E7",
"6X c #E8E8E8",
"7X c #E9E9E9",
"8X c #EBEBEB",
"9X c #F0F0F0",
"0X c #F1F1F1",
"qX c None",
/* pixels */
"qXqXqXqXqXqXqXqXqXqXqXqXqXqXqXqXqXqXqXqXqXqXqXqXqXqXqXqXqXqXqXqX",
"qXqXqXqXqXqXqXqXqXqXqXqXqXqXqXqXqXqXqXqXqXqXqXqXqXqXqXqXqXqXqXqX",
"qXqXqXqXqXqXqXqXqXqXqXqXqXr r qXqXqXqXqXqXqXqXqXqXqXqXqXqXqXqXqX",
"qXqXqXqXqXqXqXqXqXa a g y r r qXqXqXqXqXqXqXqXqXqXqXqXqXqXqXqXqX",
"qXqXqXqXqXqXqX` qXa a g p u qXY Z Z W qXqXqXqXqXqXqXqXqXqXqXqXqX",
"qXqXqXqXqXqX` ` ` qXqXqXh N L ] | o...[ F qXqXqXqXqXqXqXqXqXqXqX",
"qXqXqXqXqXqX` ` qXqXqXqXx M V B H L { @.o.K qXqXqXqXqXqXqXqXqXqX",
"qXqXqXqXa j ) ) qXqXqXqXqXqXg g qXqXY [ @.O.J qXqXqXqXqXqXqXqXqX",
"qXqXqXqXa a / ` qXqXqXqXqXqXqXqXqXqXqXY } @.} Y qXqXqXqXqXqXqXqX",
"qXqXqXqXa qX` ` qXqXqXqXqXqXr r qXqXqXqXL @.@.Z qXqXqXqXqXqXqXqX",
"qXqXqXqXqXqX` ` qXqXqXqXqXr r qXqXv W F [ @.qXI Y n c qXqXqXqXqX",
"qXqXqXqXqXqXqX` qXqXr r r r r qXqXqXF | @.qXqXqXqXn qXqXqXqXqXqX",
"qXqXqXqXqXqXqXqXqXr r r i ^ qXqXqXqXqXF o.qXqXqXY qXqXqXqXqXqXqX",
"qXqXqXqXqXqXqXqXqXqXr qX^ ` ` qXqXqXqXqXZ qXqXW qXqXqXqXqXqXqXqX",
"qXqXqXqXqXqXqXqXqXqXqXqXqX` qXqXqXqXqXqXqXW W qXqXqXqXqXqXqXqXqX",
"qXqXqXqXqXqXqXqXqXqXqXqXqXqXqXqXqXqXqXqXqXqXqXqXqXqXqXqXqXqXqXqX",
"qXqXqXqXqXqXqXqXqXqXqXqXqXqXqXqXqXqXqXqXqXqXqXqXqXqXqXqXqXqXqXqX",
"qXqXqXqXqXh.|.+X.X.X.X.X.X.X.X.X,X0X0X0X9X9X0X0X0X0X6Xa.qXqXqXqX",
"qXqXqXqXc.5X0X9X0X0X0X0X0X0X0X0X9X9X0X9X9X9X9X0X9X9X9X>XqXqXqXqX",
"qXqXqXn.6X0X9X9X0X0X0X0X0X0X0X0X0X0X0X0X0X9X0X0X0X0X0X9X$XqXqXqX",
"qXqX3.;X3X3X3X3X3X3X3X3X1X1X4X5X3X3X3X3X6X5X5X5X5X5X5X6X3Xc.qXqX",
"qX=.7.w.r.w.w.a.l.h.c.h.c.N.N.N.c.c.c.c.c.c.a.a.h.h.a.a.a.w.=.qX",
"qX2.S.S.P.P.E.E.(.|..X.X$X*X-X-X*X$X|.|.(.(.P.P.P.F.S.n.n.c.2.qX",
"qX2.S.F.F.P.E.(.|.|.+X$X-X:X:X-X*X$X.X|.|.(.(.P.P.F.S.S.n.n.2.qX",
"qX,.a.a.c.S.-.6 6 0 0 0 8 w M._.!.U.P.P.S.S.S.M.c.h.a.i.i.w.>.qX",
"qXq * = = = +     O k o . X % 3 3 < > < > > = = = = = & & & q qX",
"qX=.2.2.7.9.&.$ @ 5 l 4 $ : 5.N.g.g.g.a.u.w.7.7.7.4.4.2.<.<.*.qX",
"qX3.S.P.P.P.(.E.(.T.R.`.XXXX:X:X*X*X.X|.|._.(.(.P.P.S.S.n.S.2.qX",
"qX2.S.F.P.P.(.(._..X.X$X*X*X:X:X*X$X.X.X|.(.(.U.P.P.S.S.n.n.2.qX",
"qX-.7.0.7.w.w.w.a.a.g.g.M.M.M.M.M.c.g.g.a.a.w.w.7.w.7.7.7.7.-.qX",
"qXqXqXqXqXqXqXqXqXqXqXqXqXqXqXqXqXqXqXqXqXqXqXqXqXqXqXqXqXqXqXqX",
"qXqXqXqXqXqXqXqXqXqXqXqXqXqXqXqXqXqXqXqXqXqXqXqXqXqXqXqXqXqXqXqX"
};
