/* XPM */
static char *xpad[] = {
/* columns rows colors chars-per-pixel */
"32 32 113 2 ",
"   c #2B8F287E1929",
".  c #4DC045771C0B",
"X  c #52834A872297",
"o  c #51734B932E31",
"O  c #5CCB545029E7",
"+  c #4E084A0335F8",
"@  c #473245353B44",
"#  c #513D4DF83D9E",
"$  c #5D8256E435CA",
"%  c #645B5A6C28BF",
"&  c #64065D1F3A9B",
"*  c #70F666F234D9",
"=  c #7EAB73263992",
"-  c #4D014B5D4328",
";  c #51024F974881",
":  c #55CF5271419F",
">  c #5BCC57B9435D",
",  c #5EC25A4943EC",
"<  c #52B751AA4C67",
"1  c #578D5682514D",
"2  c #5AB559D35569",
"3  c #5DD35D445A79",
"4  c #62B15D6D431C",
"5  c #66C66102442E",
"6  c #6C0E656F445B",
"7  c #744A6C94460C",
"8  c #73A06C6B4860",
"9  c #795170BF45E6",
"0  c #7AE572F14B2E",
"q  c #620161675E63",
"w  c #64D9645361B4",
"e  c #6898682C6610",
"r  c #6D876D2A6B57",
"t  c #709D70636F41",
"y  c #74B6748E73C8",
"u  c #781C78057791",
"i  c #7CAC7CA57C87",
"p  c #83D778B240FF",
"a  c #800F77B94E0F",
"s  c #83CF7AE74E64",
"d  c #884E7F3A51D4",
"f  c #A2CA91903B6D",
"g  c #8DCC84035319",
"h  c #919387B2564B",
"j  c #94B38A52566A",
"k  c #99B58F205A3C",
"l  c #9CFB921D5BC6",
"z  c #AB7C9A414419",
"x  c #ADFA9D144897",
"c  c #A14B95D95C9C",
"v  c #A48998FC5F38",
"b  c #B440A2EA4C38",
"n  c #B399A3155080",
"m  c #B8B8A7755128",
"M  c #A55499E960D0",
"N  c #A9419D6A6236",
"B  c #AE5AA233656F",
"V  c #B274A5D966D5",
"C  c #B65BA91B66D8",
"Z  c #B333A6DD6935",
"A  c #BA84AD6D6BFC",
"S  c #BFA3B20F6E2B",
"D  c #BC9FB0A374B8",
"F  c #C08DAEEE56D1",
"G  c #C336B5BF7270",
"H  c #C66DB8D274CD",
"J  c #CAD0BCC67694",
"K  c #D485C60B7DA7",
"L  c #DC7ACCF17F42",
"P  c #840484098425",
"I  c #8B768B9B8C56",
"U  c #943A945494DB",
"Y  c #97C398009934",
"T  c #9B599B8A9C75",
"R  c #9FBCA002A160",
"E  c #A496A4E3A664",
"W  c #A72AA778A8FD",
"Q  c #AA33AA85AC1A",
"!  c #AFF5B049B1EF",
"~  c #B36DB3C2B56E",
"^  c #BAA0BAF7BCA9",
"/  c #C5DABB5686C1",
"(  c #DC8CCD27802D",
")  c #CF8AC6599863",
"_  c #E6CBD64D83D7",
"`  c #EB21DA6486B0",
"'  c #EED6DE198A68",
"]  c #F132E01F8AC4",
"[  c #F484E36F8E06",
"{  c #F77CE66C911B",
"}  c #F8F8E7E29275",
"|  c #FB55EA359495",
" . c #FFFFEECD986E",
".. c #D7DED005A8C5",
"X. c #D7B6D3AFBF88",
"o. c #E15BDA95B8B6",
"O. c #BE9FBEF6C0A7",
"+. c #C419C46EC61A",
"@. c #CAC1CB13CCB2",
"#. c #CEA8CEF9D08E",
"$. c #D003D053D1E3",
"%. c #D50ED522D58A",
"&. c #D795D7DFD953",
"*. c #DAAFDAF0DC35",
"=. c #E028E062E181",
"-. c #E171E1A7E2B6",
";. c #E85BE860E87B",
":. c #EC25EC2FEC63",
">. c #F452F1FFE640",
",. c #F775F5FFEEB0",
"<. c #F49FF4ADF4F2",
"1. c #FAE1F9F5F55A",
"2. c #FFD7FFD5FFCB",
/* pixels */
";.-.=.&.%.$.@.+.+.^ ~ ! Q E E T U I I P i u t r e w 3 2 1 ; 3 ;.",
"< : , , , , 5 5 6 q 8 8 0 0 0 a d g h j l l M N N V Z A S A # *.",
"@ H [ [ [ { } } | | |  .|  . . . . .|  . .| | }  .} } } | ' , &.",
"- K  .|  .|  . .| | | | | | } | } | } } } } } } } } } } } ' 4 $.",
"; J  .| | |  .| | | | | | | | | } } } } } } } { { { { { { ' 4 #.",
"; /  .| | | | | | | | | | | | | } } | } } } { { { { { { { ' 4 @.",
"< H  .| | | | | | | | | | | | } | } } } } } } } { { { [ { [ 4 +.",
"1 G  .| | | | | | | | | | } } | } } } } } } } { } [ { { [ [ 6 ^ ",
"2 D  .} | | | | } | | } } } | } } } } } { { { { { [ { [ { [ 6 ^ ",
"3 A  .| | | | | | } } | } } } } } } } } { { { { { { [ { [ { 6 ~ ",
"w V | | | } | } } } } | } } } } } } } { } { [ { { [ { [ [ [ 8 ! ",
"e B  .} } | } | | | } } } } } } } { { { { { { { [ { [ { { { 8 W ",
"r N | } | } } } } } } } } } } } { } { { { { { { { [ { [ [ { 9 E ",
"t v  .} } } } } } } } } } { { } { { { { [ { { [ [ { [ [ [ } 0 T ",
"u l  .} } } } } } } } } { { } { { { { { { { [ { { [ { [ [ { s Y ",
"i k | } } } } } } } } } } { { { { { [ { { [ { [ { [ [ [ [ { s U ",
"P j | } } [ } } { { { { { { { { { { { [ [ [ } [ [ [ [ [ [ { d I ",
"R 9 } } } } } [ { { { { { { { [ { [ [ { } [ [ [ [ { [ [ [ { h P ",
"&.: ( } } [ } } { { { { { { { { { [ { [ { [ [ [ [ [ [ [ [ { j i ",
"2.U & L } | | | | | ' J H [ { [ [ { [ { [ [ [ [ [ [ [ [ [ { k i ",
"2.1.Y # 9 M V Z l 9 o   A { [ { { [ { [ [ [ [ [ [ [ [ [ [ [ l y ",
"2.2.2.%.9 . . X % = * $ [ [ { [ { [ [ [ [ [ [ [ [ ] [ ] ] [ c t ",
"2.2.2.2.>.D f z b F * g | [ [ [ [ [ [ [ [ [ [ [ [ ] [ [ [ [ v r ",
"2.2.2.2.2.,./ z x m O v { { [ [ [ [ [ [ [ [ [ [ ] [ [ [ [ [ N w ",
"2.2.2.2.2.2.1.) x b O v { [ [ [ [ [ [ ] [ [ [ ] [ ] ] [ ] [ B q ",
"2.2.2.2.2.2.2.2...n % h { [ [ [ [ [ [ [ [ ] [ [ ] [ [ ] ] [ C 2 ",
"2.2.2.2.2.2.2.2.1.o.p & [ [ [ [ [ ] [ [ ] [ [ ] [ ] ] ] [ [ C 1 ",
"2.2.2.2.2.2.2.2.2.2.X.+ J [ [ [ [ [ ] [ [ ] ] [ ] ] [ ] ] [ A 1 ",
"2.2.2.2.2.2.2.2.2.2.2.T 6 ' [ [ ] [ ] [ [ ] ] ] [ [ [ ] ] ] S : ",
"2.2.2.2.2.2.2.2.2.2.2.<.r 9 L { [ [ [ [ [ [ ] ' ` ` _ _ _ _ C - ",
"2.2.2.2.2.2.2.2.2.2.2.2.:.P # 9 a 9 7 7 6 6 5 4 & 4 , , > , # 2 ",
"2.2.2.2.2.2.2.2.2.2.2.2.2.2.%.W T R E Q ~ ~ ^ O.@.@.$.%.&.*.-.:."
};
