<?xml version="1.0" encoding="UTF-8" standalone="no"?>
<!-- Created with Inkscape (http://www.inkscape.org/) -->
<svg id="svg2" xmlns:rdf="http://www.w3.org/1999/02/22-rdf-syntax-ns#" xmlns="http://www.w3.org/2000/svg" height="16" width="16" version="1.0" xmlns:cc="http://creativecommons.org/ns#" xmlns:xlink="http://www.w3.org/1999/xlink" xmlns:dc="http://purl.org/dc/elements/1.1/">
 <defs id="defs4">
  <radialGradient id="radialGradient2387" gradientUnits="userSpaceOnUse" cy="6.3252" cx="8" gradientTransform="matrix(1 0 0 .72727 -2.4991e-17 2.5909)" r="5.5">
   <stop id="stop2383" style="stop-color:#eeeeec" offset="0"/>
   <stop id="stop2385" style="stop-color:#eeeeec;stop-opacity:0" offset="1"/>
  </radialGradient>
  <linearGradient id="linearGradient2440" y2="3.9942" gradientUnits="userSpaceOnUse" x2="8.0003" gradientTransform="matrix(1.0002 0 0 1.0034 -.0020991 -.026990)" y1="7.9528" x1="8.0003">
   <stop id="stop2436" style="stop-color:#3465a4" offset="0"/>
   <stop id="stop2438" style="stop-color:#3465a4;stop-opacity:0" offset="1"/>
  </linearGradient>
 </defs>
 <metadata id="metadata7">
  <rdf:RDF>
   <cc:Work rdf:about="">
    <dc:format>image/svg+xml</dc:format>
    <dc:type rdf:resource="http://purl.org/dc/dcmitype/StillImage"/>
   </cc:Work>
  </rdf:RDF>
 </metadata>
 <g id="layer1">
  <path id="rect2337" style="fill-rule:evenodd;stroke:#888a85;fill:#babdb6" d="m8.0274 2.5c3.7416 0 5.4776 2.124 5.4776 3.5188v4.9632c0 1.395-0.951 2.518-2.132 2.518h-6.7429c-1.181 0-2.1319-1.123-2.1319-2.518v-4.9632c0-1.3948 1.8168-3.5188 5.5292-3.5188z"/>
  <path id="path2364" style="opacity:.5;stroke:#fff;fill:none" d="m8.0312 3.5c-3.367 0-4.5624 2.0074-4.5624 2.5312v4.9378c0 0.932 0.6018 1.531 1.1562 1.531h6.813c0.554 0 1.124-0.584 1.124-1.531v-4.9378c0-0.553-1.131-2.5312-4.5308-2.5312z" xlink:href="#rect2337"/>
  <path id="path2379" style="opacity:.5;fill:url(#radialGradient2387);fill-rule:evenodd" d="m8.0312 4.5c-3.367 0-4.5624 2.0074-4.5624 2.5312v4.9378c0 0.932 0.6018 1.531 1.1562 1.531h6.813c0.554 0 1.124-0.584 1.124-1.531v-4.9378c0-0.553-1.131-2.5312-4.5308-2.5312z" xlink:href="#rect2337" transform="matrix(.90909 0 0 .875 .72727 .18750)"/>
  <rect id="rect2343" style="fill:#888a85;fill-rule:evenodd" rx="0" ry="1" height="1" width="4" y="11" x="6"/>
  <rect id="rect2397" style="fill-rule:evenodd;stroke:#888a85;fill:#d3d7cf" rx=".97319" ry=".97319" height="4.9896" width="1.9818" y="6.5104" x=".50910"/>
  <rect id="rect2399" style="fill-rule:evenodd;stroke:#888a85;fill:#d3d7cf" rx=".97319" ry=".97318" height="4.9889" width="1.9878" y="6.5103" x="13.511"/>
  <rect id="rect2407" style="fill:#888a85;fill-rule:evenodd" rx="0" ry="1" height="1" width="1" y="10" x="5"/>
  <rect id="rect2409" style="fill:#888a85;fill-rule:evenodd" rx="0" ry="1" height="1" width="1" y="10" x="10"/>
  <rect id="rect2424" style="fill-rule:evenodd;stroke:#204a87;fill:url(#linearGradient2440)" rx="1" ry="1" height="2.9979" width="6.9998" y="5.5017" x="4.5001"/>
 </g>
</svg>
