<?xml version="1.0" encoding="UTF-8" standalone="no"?>
<!-- Created with Inkscape (http://www.inkscape.org/) -->
<svg id="svg1307" xmlns:rdf="http://www.w3.org/1999/02/22-rdf-syntax-ns#" xmlns="http://www.w3.org/2000/svg" height="16" width="16" version="1.0" xmlns:cc="http://creativecommons.org/ns#" xmlns:xlink="http://www.w3.org/1999/xlink" xmlns:dc="http://purl.org/dc/elements/1.1/">
 <defs id="defs1309">
  <linearGradient id="linearGradient2212" y2="-.61678" gradientUnits="userSpaceOnUse" x2="8.7527" y1="8.587" x1="8.7527">
   <stop id="stop2208" style="stop-color:#c372cf" offset="0"/>
   <stop id="stop2210" style="stop-color:#c372cf;stop-opacity:0" offset="1"/>
  </linearGradient>
 </defs>
 <metadata id="metadata1312">
  <rdf:RDF>
   <cc:Work rdf:about="">
    <dc:format>image/svg+xml</dc:format>
    <dc:type rdf:resource="http://purl.org/dc/dcmitype/StillImage"/>
   </cc:Work>
  </rdf:RDF>
 </metadata>
 <g id="layer1">
  <path id="path1305" style="opacity:.59659;stroke:#ad7fa8;fill:#ad7fa8" d="m5.2409 8.0429a3.3111 2.6917 0 0 1 -0.0137 0.0007"/>
  <path id="path1307" style="opacity:.59659;stroke:#ad7fa8;fill:#ad7fa8" d="m2.9885 4.2841a1.4303 1.4191 0 0 1 -0.0059 0.0003"/>
  <path id="path1313" style="stroke:#c7349f;fill:url(#linearGradient2212)" d="m8.0312 1.5c-1.995 0.2253-3.5312 1.9449-3.5312 4 0 1.863 1.2752 3.4309 3 3.875v1.125h-2v2h2v2h2v-2h2v-2h-2v-1.125c1.725-0.4441 3-2.012 3-3.875 0-2.208-1.792-4-4-4-0.1035 0-0.211-0.0077-0.3125 0-0.0484 0.0037-0.1084-0.0054-0.1563 0zm0.3126 2c0.0506-0.0039 0.1046 0 0.1562 0 1.1006 0 2 0.8994 2 2s-0.8994 2-2 2-2-0.8994-2-2c0-1.049 0.8147-1.9216 1.8438-2z"/>
 </g>
</svg>
