<?xml version="1.0" encoding="UTF-8" standalone="no"?>
<!-- Created with Inkscape (http://www.inkscape.org/) -->
<svg id="svg4220" xmlns:rdf="http://www.w3.org/1999/02/22-rdf-syntax-ns#" xmlns="http://www.w3.org/2000/svg" height="16px" width="16px" xmlns:cc="http://creativecommons.org/ns#" xmlns:xlink="http://www.w3.org/1999/xlink" xmlns:dc="http://purl.org/dc/elements/1.1/">
 <defs id="defs4222">
  <linearGradient id="linearGradient5133" y2="14.091" gradientUnits="userSpaceOnUse" x2="-8.5731" y1="8.1949" x1="-8.5731">
   <stop id="stop5129" style="stop-color:#fff" offset="0"/>
   <stop id="stop5131" style="stop-color:#fff;stop-opacity:0" offset="1"/>
  </linearGradient>
  <linearGradient id="linearGradient5166" y2="11.56" gradientUnits="userSpaceOnUse" x2="-10.188" y1="14.311" x1="-5.2575">
   <stop id="stop5162" style="stop-color:#c4a000" offset="0"/>
   <stop id="stop5164" style="stop-color:#c4a000;stop-opacity:0" offset="1"/>
  </linearGradient>
  <linearGradient id="linearGradient5176" y2="4.7783" gradientUnits="userSpaceOnUse" x2="-7.5401" y1=".79740" x1="-7.5401">
   <stop id="stop5172" style="stop-color:#eeeeec" offset="0"/>
   <stop id="stop5174" style="stop-color:#eeeeec;stop-opacity:0" offset="1"/>
  </linearGradient>
 </defs>
 <metadata id="metadata4225">
  <rdf:RDF>
   <cc:Work rdf:about="">
    <dc:format>image/svg+xml</dc:format>
    <dc:type rdf:resource="http://purl.org/dc/dcmitype/StillImage"/>
   </cc:Work>
  </rdf:RDF>
 </metadata>
 <g id="layer1">
  <rect id="rect4238" ry=".60083" style="stroke:#c4a000;stroke-width:.52907;fill:#fce94f" rx=".44199" transform="matrix(2.2689 0 0 1.5746 15.113 -3.9473)" height="6.351" width="5.7297" y="6" x="-6"/>
  <rect id="rect5125" style="stroke:url(#linearGradient5133);stroke-width:.50402;fill:url(#linearGradient5166)" transform="matrix(1.9507 0 0 2.018 23.957 -12.606)" height="2.9733" width="5.6391" y="10.459" x="-11"/>
  <rect id="rect5156" style="opacity:.56332;fill:#eeeeec" transform="matrix(2.3414 0 0 .75275 34.779 1.4835)" height="2.6569" width="5.1252" y="6" x="-14"/>
  <path id="path5168" style="fill:#babdb6" transform="translate(15)" d="m-9.4188 0.5c-1.0822 0-2.0812 0.9812-2.0812 1.946v5.054h2l0.045-3.4911c0-1.5362-0.0039-1.5089 1.3515-1.5089h2.1169c1.4873 0 1.4866 0.0178 1.4866 1.554v3.446h2v-5.0089c0-0.883-1.0389-1.946-1.946-1.946l-4.9728-0.0451z"/>
  <path id="rect5149" style="stroke:#888a85;fill:url(#linearGradient5176)" transform="translate(15)" d="m-9.4188 0.5c-1.0822 0-2.0812 0.9812-2.0812 1.946v4.0179c0 1.4091 2 1.1919 2 0.045l0.045-2.5c0-1.5362-0.0039-1.5089 1.3515-1.5089h2.1169c1.4873 0 1.4866 0.0178 1.4866 1.554v2.5c-0.045 1.2624 2 1.04 2 0v-4.0629c0-0.883-1.0389-1.946-1.946-1.946l-4.9728-0.0451z"/>
 </g>
</svg>
