<?xml version="1.0" encoding="UTF-8" standalone="no"?>
<!-- Created with Inkscape (http://www.inkscape.org/) -->
<svg id="svg2" xmlns:rdf="http://www.w3.org/1999/02/22-rdf-syntax-ns#" xmlns="http://www.w3.org/2000/svg" height="16" width="16" version="1.0" xmlns:cc="http://creativecommons.org/ns#" xmlns:dc="http://purl.org/dc/elements/1.1/">
 <metadata id="metadata7">
  <rdf:RDF>
   <cc:Work rdf:about="">
    <dc:format>image/svg+xml</dc:format>
    <dc:type rdf:resource="http://purl.org/dc/dcmitype/StillImage"/>
   </cc:Work>
  </rdf:RDF>
 </metadata>
 <g id="layer1">
  <rect id="rect2200" style="fill:#2e3436;fill-rule:evenodd" height="14" width="1" y="1" x="13"/>
  <rect id="rect2202" style="fill:#2e3436;fill-rule:evenodd" height="14" width="1" y="1" x="3"/>
  <rect id="rect2204" style="fill:#555753;fill-rule:evenodd" height="14" width="9" y="1" x="4"/>
  <rect id="rect2206" style="fill-rule:evenodd;stroke:#fcaf3e;fill:#f57900" height="3.0024" width="4.001" y="1.4988" x="6.4995"/>
  <rect id="rect2212" style="fill:#babdb6;fill-rule:evenodd" height="1" width="1" y="2" x="4"/>
  <rect id="rect2214" style="fill:#babdb6;fill-rule:evenodd" height="1" width="1" y="4" x="4"/>
  <rect id="rect2216" style="fill:#babdb6;fill-rule:evenodd" height="1" width="1" y="6" x="4"/>
  <rect id="rect2218" style="fill:#babdb6;fill-rule:evenodd" height="1" width="1" y="8" x="4"/>
  <rect id="rect2220" style="fill:#babdb6;fill-rule:evenodd" height="1" width="1" y="10" x="4"/>
  <rect id="rect2222" style="fill:#babdb6;fill-rule:evenodd" height="1" width="1" y="12" x="4"/>
  <rect id="rect2224" style="fill:#babdb6;fill-rule:evenodd" height="1" width="1" y="14" x="4"/>
  <rect id="rect2226" style="fill:#babdb6;fill-rule:evenodd" height="1" width="1" y="2" x="12"/>
  <rect id="rect2228" style="fill:#babdb6;fill-rule:evenodd" height="1" width="1" y="4" x="12"/>
  <rect id="rect2230" style="fill:#babdb6;fill-rule:evenodd" height="1" width="1" y="6" x="12"/>
  <rect id="rect2232" style="fill:#babdb6;fill-rule:evenodd" height="1" width="1" y="8" x="12"/>
  <rect id="rect2234" style="fill:#babdb6;fill-rule:evenodd" height="1" width="1" y="10" x="12"/>
  <rect id="rect2236" style="fill:#babdb6;fill-rule:evenodd" height="1" width="1" y="12" x="12"/>
  <rect id="rect2238" style="fill:#babdb6;fill-rule:evenodd" height="1" width="1" y="14" x="12"/>
  <rect id="rect2247" style="fill-rule:evenodd;stroke:#fcaf3e;fill:#f57900" height="3.0096" width="4.0006" y="6.5" x="6.4999"/>
  <rect id="rect2249" style="fill-rule:evenodd;stroke:#fcaf3e;fill:#f57900" height="3.0015" width="4.0006" y="11.499" x="6.4999"/>
 </g>
</svg>
