<?xml version="1.0" encoding="UTF-8" standalone="no"?>
<!-- Created with Inkscape (http://www.inkscape.org/) -->
<svg id="svg2" xmlns:rdf="http://www.w3.org/1999/02/22-rdf-syntax-ns#" xmlns="http://www.w3.org/2000/svg" height="16" width="16" version="1.0" xmlns:cc="http://creativecommons.org/ns#" xmlns:xlink="http://www.w3.org/1999/xlink" xmlns:dc="http://purl.org/dc/elements/1.1/">
 <defs id="defs4">
  <linearGradient id="linearGradient3353" y2="18.96" xlink:href="#linearGradient3300" gradientUnits="userSpaceOnUse" x2="-16.395" y1="22.437" x1="-25.208"/>
  <linearGradient id="linearGradient3341" y2="18.633" gradientUnits="userSpaceOnUse" x2="-19.236" y1="21.103" x1="-25.495">
   <stop id="stop3337" style="stop-color:#204a87" offset="0"/>
   <stop id="stop3339" style="stop-color:#204a87;stop-opacity:0" offset="1"/>
  </linearGradient>
  <linearGradient id="linearGradient3300">
   <stop id="stop3302" style="stop-color:#204a87" offset="0"/>
   <stop id="stop3304" style="stop-color:#204a87;stop-opacity:0" offset="1"/>
  </linearGradient>
  <linearGradient id="linearGradient3315" y2="11.455" xlink:href="#linearGradient3300" gradientUnits="userSpaceOnUse" x2="5.6396" gradientTransform="matrix(-.75908 0 0 .88680 13.875 -2.157)" y1="11.455" x1=".62498"/>
 </defs>
 <metadata id="metadata7">
  <rdf:RDF>
   <cc:Work rdf:about="">
    <dc:format>image/svg+xml</dc:format>
    <dc:type rdf:resource="http://purl.org/dc/dcmitype/StillImage"/>
   </cc:Work>
  </rdf:RDF>
 </metadata>
 <g id="layer1">
  <rect id="rect2200" style="fill-rule:evenodd;stroke:#204a87;fill:#5c3566" height="1" width="0" y="4" x="13"/>
  <path id="path2267" style="fill-rule:evenodd;stroke:#3465a4;stroke-width:.64040;fill:#729fcf" d="m4.342 8.5115a1.0305 0.89313 0 1 1 -2.0611 0 1.0305 0.89313 0 1 1 2.0611 0z" transform="matrix(1.4539 0 0 1.6771 -1.8163 -6.2765)"/>
  <path id="path3252" style="stroke:url(#linearGradient3353);stroke-width:3.824px;fill:none" d="m-14.027 29.179c-8.207-0.366-13.73-8.349-13.012-16.166 0.25-2.719 1.187-5.3568 2.669-7.6475" transform="matrix(-.23654 .098699 .093323 .25017 -.53875 5.5792)"/>
  <path id="path3254" style="stroke:url(#linearGradient3341);stroke-width:2.6121px;fill:none" d="m-13.259 29.189c-8.132 0.148-14.072-7.409-13.841-15.173 0.094-3.135 1.109-6.2092 2.841-8.8196" transform="matrix(-.32690 .15306 .12898 .38794 -.59894 4.2035)"/>
  <path id="path3256" style="stroke:url(#linearGradient3315);stroke-width:1px;fill:none" d="m9.5001 15.499c3.3359-1.299 4.7459-6.2237 3.6159-10.203-0.569-2.0034-1.705-3.699-3.1378-4.7926"/>
 </g>
</svg>
