<?xml version="1.0" encoding="UTF-8" standalone="no"?>
<!-- Created with Inkscape (http://www.inkscape.org/) -->

<svg
   xmlns:dc="http://purl.org/dc/elements/1.1/"
   xmlns:cc="http://creativecommons.org/ns#"
   xmlns:rdf="http://www.w3.org/1999/02/22-rdf-syntax-ns#"
   xmlns:svg="http://www.w3.org/2000/svg"
   xmlns="http://www.w3.org/2000/svg"
   xmlns:sodipodi="http://sodipodi.sourceforge.net/DTD/sodipodi-0.dtd"
   xmlns:inkscape="http://www.inkscape.org/namespaces/inkscape"
   width="32px"
   height="32px"
   id="svg3789"
   version="1.1"
   inkscape:version="0.48.3.1 r9886"
   sodipodi:docname="New document 5">
  <defs
     id="defs3791" />
  <sodipodi:namedview
     id="base"
     pagecolor="#ffffff"
     bordercolor="#666666"
     borderopacity="1.0"
     inkscape:pageopacity="0.0"
     inkscape:pageshadow="2"
     inkscape:zoom="1.3997253"
     inkscape:cx="-14.537173"
     inkscape:cy="17.907737"
     inkscape:current-layer="layer1"
     showgrid="true"
     inkscape:grid-bbox="true"
     inkscape:document-units="px"
     inkscape:window-width="472"
     inkscape:window-height="415"
     inkscape:window-x="168"
     inkscape:window-y="225"
     inkscape:window-maximized="0" />
  <metadata
     id="metadata3794">
    <rdf:RDF>
      <cc:Work
         rdf:about="">
        <dc:format>image/svg+xml</dc:format>
        <dc:type
           rdf:resource="http://purl.org/dc/dcmitype/StillImage" />
        <dc:title></dc:title>
      </cc:Work>
    </rdf:RDF>
  </metadata>
  <g
     id="layer1"
     inkscape:label="Layer 1"
     inkscape:groupmode="layer">
    <g
       transform="matrix(0.10642095,0,0,0.11132102,2.1748967,0.93768662)"
       style="font-size:12px"
       id="g1041">
      <defs
         id="defs122" />
      <path
         inkscape:connector-curvature="0"
         d="m 24,12 0,4 4,0 0,-4 -4,0 z"
         transform="matrix(-4.05844,0,0,3.9557,284.898,-16.4442)"
         style="fill:#ff0000"
         id="path1043" />
      <path
         inkscape:connector-curvature="0"
         d="m 8,24 16,2 -4,-8 4,0 0,-4 C 16.2551,14.2287 10.9186,16.7214 8,24 z"
         transform="matrix(-4.05844,0,0,3.9557,284.898,-16.4442)"
         style="fill:#0461e7"
         id="path105" />
      <path
         inkscape:connector-curvature="0"
         d="m 24,16 -6.7966,1.665 c 2.9862,6.1303 -5.3631,12.8254 4.874,18.1775 7.9564,3.5777 14.1562,-1.4496 19.9426,1.4037 -0.8393,-5.7597 1.4861,-11.2656 -4.0573,-11.4338 L 26,16 24,16 z"
         transform="matrix(-4.05844,0,0,8.46976,284.898,-88.6692)"
         style="fill:#0400a6"
         id="path1045" />
      <path
         inkscape:connector-curvature="0"
         d="m 8,24 0,2 4,0 0,4 -4,0 2,10 C 19.7537,39.9989 25.6862,36.6274 26,26 L 8,24 z"
         transform="matrix(-4.05844,0,0,3.9557,284.898,-16.4442)"
         style="fill:#e7a286"
         id="path107" />
      <path
         inkscape:connector-curvature="0"
         d="m 8,26 0,4 2,0 0,-4 -2,0 z"
         transform="matrix(-4.05844,0,0,3.9557,284.898,-16.4442)"
         id="path108" />
      <path
         inkscape:connector-curvature="0"
         d="m 10,26 0,4 2,0 0,-4 -2,0 z"
         transform="matrix(-4.05844,0,0,3.9557,284.898,-16.4442)"
         style="fill:#040004"
         id="path1048" />
      <path
         inkscape:connector-curvature="0"
         d="m 14,26 -2,8 c 3.5131,-1.8418 3.8845,-4.1929 4,-8 l -2,0 z"
         transform="matrix(-4.05844,0,0,3.9557,284.898,-16.4442)"
         style="fill:#864124"
         id="path110" />
      <path
         inkscape:connector-curvature="0"
         d="m 17,26 0,4 1,0 2,0 1,0 0,-4 -4,0 z"
         transform="matrix(-4.05844,0,0,3.9557,284.898,-16.4442)"
         style="fill:#040004"
         id="path111" />
      <path
         inkscape:connector-curvature="0"
         d="m 18,28 0,2 2,0 0,-2 -2,0 z"
         transform="matrix(-4.05844,0,0,3.9557,284.898,-16.4442)"
         id="path112" />
      <path
         inkscape:connector-curvature="0"
         d="M 14,50 12,40 c -9.01013,1.3245 -5.85022,9.7618 2,10 z"
         transform="matrix(-4.05844,0,0,3.9557,264.327,-21.4092)"
         style="fill:#c78265"
         id="path117" />
      <path
         inkscape:connector-curvature="0"
         d="m 39.9301,51.2587 -1.3396,12.5949 -3.5927,6.5776 C 54.2953,74.2664 56.3289,59.0442 46.9159,54.4498 M 26.69,53.9138 C 22.8042,59.2669 18.3566,59.9951 12,60 12.6285,80.7169 39.9704,70.9252 28,54 l -1.31,-0.0862 z"
         transform="matrix(-4.05844,0,0,3.9557,284.898,-16.4442)"
         style="fill:#864124"
         id="path120" />
      <path
         inkscape:connector-curvature="0"
         d="m 26,16 0,1 0,1 2,12 c 12.3587,0.846 8.1931,16.5886 17.0941,17.8665 3.574,0.5131 7.9238,0.4326 11.2909,-0.9205 C 84.1914,35.7718 61.8928,-2.70218 37.615,7.05402 32.3288,9.17828 29.6796,11.9702 26,16 z"
         transform="matrix(-4.05844,0,0,3.9557,284.898,-16.4442)"
         style="fill:#aa6f56"
         id="path1054" />
    </g>
  </g>
</svg>
