<?xml version="1.0" encoding="UTF-8" standalone="no"?>
<!-- Created with Inkscape (http://www.inkscape.org/) -->

<svg
   xmlns:osb="http://www.openswatchbook.org/uri/2009/osb"
   xmlns:dc="http://purl.org/dc/elements/1.1/"
   xmlns:cc="http://creativecommons.org/ns#"
   xmlns:rdf="http://www.w3.org/1999/02/22-rdf-syntax-ns#"
   xmlns:svg="http://www.w3.org/2000/svg"
   xmlns="http://www.w3.org/2000/svg"
   xmlns:xlink="http://www.w3.org/1999/xlink"
   xmlns:sodipodi="http://sodipodi.sourceforge.net/DTD/sodipodi-0.dtd"
   xmlns:inkscape="http://www.inkscape.org/namespaces/inkscape"
   inkscape:export-ydpi="90.000000"
   inkscape:export-xdpi="90.000000"
   width="256"
   height="238"
   id="svg11300"
   sodipodi:version="0.32"
   inkscape:version="0.48.4 r9939"
   sodipodi:docname="friends.svg"
   inkscape:output_extension="org.inkscape.output.svg.inkscape"
   version="1.0"
   style="display:inline;enable-background:new"
   inkscape:export-filename="/home/sam/dev/ubuntu-touch-icons/bitmaps/ubuntu-irc.png">
  <title
     id="title3004">Template</title>
  <sodipodi:namedview
     stroke="#ef2929"
     fill="#f57900"
     id="base"
     pagecolor="#474747"
     bordercolor="#666666"
     borderopacity="0.25490196"
     inkscape:pageopacity="0"
     inkscape:pageshadow="2"
     inkscape:zoom="1"
     inkscape:cx="97.140838"
     inkscape:cy="91.085436"
     inkscape:current-layer="layer5"
     showgrid="false"
     inkscape:grid-bbox="true"
     inkscape:document-units="px"
     inkscape:showpageshadow="false"
     inkscape:window-width="1364"
     inkscape:window-height="702"
     inkscape:window-x="0"
     inkscape:window-y="27"
     width="400px"
     height="300px"
     inkscape:snap-nodes="true"
     inkscape:snap-bbox="true"
     gridtolerance="10000"
     inkscape:object-nodes="true"
     inkscape:snap-grids="true"
     showguides="false"
     inkscape:guide-bbox="true"
     inkscape:window-maximized="1"
     inkscape:bbox-nodes="true"
     inkscape:bbox-paths="true"
     inkscape:snap-bbox-midpoints="true"
     inkscape:snap-bbox-edge-midpoints="true"
     inkscape:snap-global="true">
    <inkscape:grid
       spacingy="1px"
       spacingx="1px"
       id="grid5883"
       type="xygrid"
       enabled="true"
       visible="true"
       empspacing="4"
       snapvisiblegridlinesonly="true" />
    <inkscape:grid
       type="xygrid"
       id="grid11592"
       empspacing="4"
       visible="true"
       enabled="true"
       spacingx="0.5px"
       spacingy="0.5px"
       color="#ff0000"
       opacity="0.1254902"
       empcolor="#ff0000"
       empopacity="0.25098039"
       snapvisiblegridlinesonly="true"
       dotted="true" />
    <sodipodi:guide
       orientation="-0.70710678,0.70710678"
       position="309.8125,173.625"
       id="guide9630" />
  </sodipodi:namedview>
  <defs
     id="defs3">
    <linearGradient
       id="linearGradient3821">
      <stop
         id="stop3823"
         offset="0"
         style="stop-color:#3f3d9d;stop-opacity:1;" />
      <stop
         id="stop3825"
         offset="1"
         style="stop-color:#3f3d9d;stop-opacity:0;" />
    </linearGradient>
    <linearGradient
       id="linearGradient4121">
      <stop
         id="stop4123"
         offset="0"
         style="stop-color:#1e3765;stop-opacity:1;" />
      <stop
         style="stop-color:#304c82;stop-opacity:1;"
         offset="0.10344828"
         id="stop4125" />
      <stop
         id="stop4127"
         offset="1"
         style="stop-color:#395995;stop-opacity:0;" />
    </linearGradient>
    <linearGradient
       id="linearGradient3984">
      <stop
         style="stop-color:#2853a7;stop-opacity:1;"
         offset="0"
         id="stop3986" />
      <stop
         style="stop-color:#ffffff;stop-opacity:0;"
         offset="1"
         id="stop3988" />
    </linearGradient>
    <linearGradient
       id="linearGradient3974">
      <stop
         style="stop-color:#395995;stop-opacity:1;"
         offset="0"
         id="stop3976" />
      <stop
         style="stop-color:#7c99d0;stop-opacity:1;"
         offset="1"
         id="stop3978" />
    </linearGradient>
    <linearGradient
       id="linearGradient3955">
      <stop
         style="stop-color:#dad6ff;stop-opacity:1;"
         offset="0"
         id="stop3957" />
      <stop
         style="stop-color:#ffffff;stop-opacity:1;"
         offset="1"
         id="stop3959" />
    </linearGradient>
    <linearGradient
       id="linearGradient4213">
      <stop
         id="stop4215"
         offset="0"
         style="stop-color:#395995;stop-opacity:1;" />
      <stop
         id="stop4217"
         offset="1"
         style="stop-color:#273d66;stop-opacity:1;" />
    </linearGradient>
    <linearGradient
       id="linearGradient5460"
       osb:paint="gradient">
      <stop
         style="stop-color:#e6e6e6;stop-opacity:1"
         offset="0"
         id="stop5462" />
      <stop
         style="stop-color:#ffffff;stop-opacity:1"
         offset="1"
         id="stop5464" />
    </linearGradient>
    <linearGradient
       id="linearGradient5476"
       osb:paint="solid">
      <stop
         style="stop-color:#772953;stop-opacity:1;"
         offset="0"
         id="stop5478" />
    </linearGradient>
    <filter
       inkscape:collect="always"
       id="filter3837"
       color-interpolation-filters="sRGB">
      <feGaussianBlur
         inkscape:collect="always"
         stdDeviation="1.235"
         id="feGaussianBlur3839" />
    </filter>
    <filter
       inkscape:collect="always"
       id="filter3845"
       color-interpolation-filters="sRGB">
      <feGaussianBlur
         inkscape:collect="always"
         stdDeviation="6.175"
         id="feGaussianBlur3847" />
    </filter>
    <linearGradient
       inkscape:collect="always"
       xlink:href="#linearGradient3955"
       id="linearGradient3961"
       x1="184"
       y1="232"
       x2="184"
       y2="112"
       gradientUnits="userSpaceOnUse"
       gradientTransform="translate(-16,12)" />
    <linearGradient
       inkscape:collect="always"
       xlink:href="#linearGradient3974"
       id="linearGradient3980"
       x1="136"
       y1="124"
       x2="136"
       y2="196"
       gradientUnits="userSpaceOnUse" />
    <filter
       inkscape:collect="always"
       id="filter4017"
       color-interpolation-filters="sRGB">
      <feGaussianBlur
         inkscape:collect="always"
         stdDeviation="3.5"
         id="feGaussianBlur4019" />
    </filter>
    <linearGradient
       inkscape:collect="always"
       xlink:href="#linearGradient4213"
       id="linearGradient3769"
       gradientUnits="userSpaceOnUse"
       gradientTransform="matrix(1.7777778,0,0,1.7761194,0,-1551.3597)"
       x1="144"
       y1="918.36218"
       x2="144"
       y2="1052.3622" />
    <linearGradient
       inkscape:collect="always"
       xlink:href="#linearGradient3974"
       id="linearGradient3879"
       x1="120"
       y1="124"
       x2="120"
       y2="204"
       gradientUnits="userSpaceOnUse"
       gradientTransform="translate(-16,16)" />
    <linearGradient
       inkscape:collect="always"
       xlink:href="#linearGradient3821"
       id="linearGradient3819"
       x1="80"
       y1="197"
       x2="0"
       y2="312"
       gradientUnits="userSpaceOnUse"
       gradientTransform="translate(-16,12)" />
    <linearGradient
       inkscape:collect="always"
       xlink:href="#linearGradient3984"
       id="linearGradient3829"
       gradientUnits="userSpaceOnUse"
       gradientTransform="matrix(1.0708159,0,0,1.0708159,-18.610411,-9.635354)"
       x1="144"
       y1="212"
       x2="328"
       y2="364" />
  </defs>
  <metadata
     id="metadata4">
    <rdf:RDF>
      <cc:Work
         rdf:about="">
        <dc:format>image/svg+xml</dc:format>
        <dc:type
           rdf:resource="http://purl.org/dc/dcmitype/StillImage" />
        <dc:creator>
          <cc:Agent>
            <dc:title />
          </cc:Agent>
        </dc:creator>
        <dc:source />
        <cc:license
           rdf:resource="" />
        <dc:title>Template</dc:title>
        <dc:subject>
          <rdf:Bag />
        </dc:subject>
        <dc:date />
        <dc:rights>
          <cc:Agent>
            <dc:title />
          </cc:Agent>
        </dc:rights>
        <dc:publisher>
          <cc:Agent>
            <dc:title />
          </cc:Agent>
        </dc:publisher>
        <dc:identifier />
        <dc:relation />
        <dc:language />
        <dc:coverage />
        <dc:description />
        <dc:contributor>
          <cc:Agent>
            <dc:title />
          </cc:Agent>
        </dc:contributor>
      </cc:Work>
      <cc:Work
         rdf:about="">
        <dc:format>image/svg+xml</dc:format>
        <dc:type
           rdf:resource="http://purl.org/dc/dcmitype/StillImage" />
      </cc:Work>
    </rdf:RDF>
  </metadata>
  <g
     style="display:inline"
     inkscape:groupmode="layer"
     inkscape:label="Icon"
     id="layer1"
     transform="translate(0,-62)">
    <g
       inkscape:groupmode="layer"
       id="layer2"
       inkscape:label="Baseplate"
       style="display:none">
      <text
         id="context"
         inkscape:label="context"
         style="font-size:18px;font-style:normal;font-variant:normal;font-weight:normal;font-stretch:normal;fill:#000000;fill-opacity:1;stroke:none;display:inline;enable-background:new;font-family:DejaVu Sans;-inkscape-font-specification:DejaVu Sans"
         x="15.006836"
         xml:space="preserve"
         y="20.119791"><tspan
           id="tspan2716"
           sodipodi:role="line"
           x="15.006836"
           y="20.119791"
           style="font-style:normal;font-variant:normal;font-weight:normal;font-stretch:normal;font-family:DejaVu Sans;-inkscape-font-specification:DejaVu Sans">apps</tspan></text>
      <rect
         inkscape:label="256x256"
         y="62"
         x="0"
         height="238"
         width="256"
         id="rect6282"
         style="fill:#eeeeec;fill-opacity:1;fill-rule:nonzero;stroke:none;stroke-width:2;marker:none;visibility:visible;display:inline;overflow:visible;enable-background:accumulate"
         inkscape:export-xdpi="90"
         inkscape:export-ydpi="90" />
      <text
         id="icon-name"
         inkscape:label="icon-name"
         sodipodi:linespacing="125%"
         style="font-size:18px;font-style:normal;font-variant:normal;font-weight:bold;font-stretch:normal;text-align:start;line-height:125%;writing-mode:lr-tb;text-anchor:start;fill:#000000;fill-opacity:1;stroke:none;display:inline;enable-background:new;font-family:DejaVu Sans;-inkscape-font-specification:DejaVu Sans Bold"
         x="110.48828"
         xml:space="preserve"
         y="20.119791"><tspan
           id="tspan3023"
           sodipodi:role="line"
           x="110.48828"
           y="20.119791"
           style="font-size:18px;font-style:normal;font-variant:normal;font-weight:bold;font-stretch:normal;font-family:DejaVu Sans;-inkscape-font-specification:DejaVu Sans Bold">friends</tspan></text>
    </g>
    <g
       style="display:inline"
       inkscape:label="Background"
       id="g3055"
       inkscape:groupmode="layer">
      <path
         style="fill:url(#linearGradient3769);fill-opacity:1;stroke:none;display:inline"
         d="m 0,62 0,82.9375 0,72.125 0,82.9375 83.03125,0 89.9375,0 83.03125,0 0,-82.9375 0,-72.125 L 256,62 172.96875,62 83.03125,62 0,62 z"
         id="path4197"
         inkscape:connector-curvature="0" />
    </g>
    <g
       inkscape:groupmode="layer"
       id="layer5"
       inkscape:label="Symbols"
       style="display:inline">
      <path
         inkscape:connector-curvature="0"
         id="path3850"
         d="m 256,152 -148,92 -90.09375,56 65.125,0 89.9375,0 L 256,300 256,217.0625 256,152 z"
         clip-path="none"
         style="opacity:0.05;fill:#ffffff;fill-opacity:1;stroke:none;display:inline;enable-background:new" />
      <path
         id="path4015"
         d="M 63.75,129 C 55.02963,129 48,136.02963 48,144.75 l 0,72.5 c 0,8.72037 7.02963,15.75 15.75,15.75 l 18.5,0 4.9375,3 20.8125,13 20.8125,-13 4.625,-3 58.8125,0 c 8.72037,0 15.75,-7.02963 15.75,-15.75 l 0,-72.5 C 208,136.02963 200.97037,129 192.25,129 l -128.5,0 z"
         style="opacity:0.5;color:#000000;fill:#000000;fill-opacity:1;fill-rule:nonzero;stroke:none;marker:none;visibility:visible;display:inline;overflow:visible;filter:url(#filter4017);enable-background:new"
         inkscape:connector-curvature="0"
         clip-path="none" />
      <path
         style="color:#000000;fill:url(#linearGradient3961);fill-opacity:1;fill-rule:nonzero;stroke:none;marker:none;visibility:visible;display:inline;overflow:visible;enable-background:new"
         d="M 63.75,124 C 55.02963,124 48,131.02963 48,139.75 l 0,72.5 c 0,8.72037 7.02963,15.75 15.75,15.75 l 18.5,0 4.9375,3 20.8125,13 20.8125,-13 4.625,-3 58.8125,0 c 8.72037,0 15.75,-7.02963 15.75,-15.75 l 0,-72.5 C 208,131.02963 200.97037,124 192.25,124 l -128.5,0 z"
         id="rect3117"
         inkscape:connector-curvature="0"
         clip-path="none" />
      <path
         id="path3881"
         d="m 87.51882,145 c -9.049071,0 -12.665889,3.61654 -12.665889,12.66588 l 0,1.81297 c 0,7.2395 7.271911,19.91773 12.690729,19.91773 5.41881,0 12.64106,-12.67823 12.64106,-19.91773 l 0,-1.81297 C 100.18472,148.61654 96.5679,145 87.51882,145 z m 29.18123,9.41249 c -7.11586,0 -9.95887,2.92604 -9.95887,10.25689 l 0,1.46527 c 0,5.86456 5.69771,16.1428 9.95887,16.1428 4.26114,0 9.95886,-10.27824 9.95886,-16.1428 l 0,-1.46527 c 0,-7.33085 -2.84301,-10.25689 -9.95886,-10.25689 z M 78.727204,177.93131 C 67.059241,178.49417 64,182.2251 64,190.5227 l 0,13.03842 C 64,208.99066 63.98763,209 71.227009,209 l 32.583631,0 c 7.23937,0 7.25184,-0.009 7.25184,-5.43888 l 0,-13.03842 c 0,-8.2976 -3.08408,-12.02853 -14.75204,-12.59139 -0.65042,0.76681 -1.29782,1.51803 -2.01164,2.16065 -1.79988,1.62015 -4.00632,3.05472 -6.77998,3.05472 -2.77337,-1e-4 -4.957262,-1.43249 -6.755139,-3.05472 -0.711873,-0.64243 -1.38544,-1.39404 -2.036477,-2.16065 z m 45.249516,4.02329 c -0.42307,0.49481 -0.86991,0.95227 -1.34109,1.39076 -1.50985,1.40478 -3.35682,2.68219 -5.93558,2.68219 -0.7709,0 -1.46338,-0.12606 -2.11099,-0.32286 0.10852,0.96848 0.17385,1.97906 0.17385,2.98021 l 0,14.67754 14.97555,0 c 5.79151,0 5.78658,-0.0146 5.78658,-4.44548 l 0,-6.70548 c 0,-6.71838 -2.40878,-9.7575 -11.54832,-10.25688 z"
         clip-path="none"
         style="color:#000000;fill:#ffffff;fill-opacity:1;fill-rule:nonzero;stroke:none;stroke-width:2;marker:none;visibility:visible;display:inline;overflow:visible;enable-background:accumulate"
         inkscape:connector-curvature="0" />
      <path
         inkscape:connector-curvature="0"
         style="color:#000000;fill:url(#linearGradient3879);fill-opacity:1;fill-rule:nonzero;stroke:none;stroke-width:2;marker:none;visibility:visible;display:inline;overflow:visible;enable-background:accumulate"
         clip-path="none"
         d="m 87.51882,144 c -9.049071,0 -12.665889,3.61654 -12.665889,12.66588 l 0,1.81297 c 0,7.2395 7.271911,19.91773 12.690729,19.91773 5.41881,0 12.64106,-12.67823 12.64106,-19.91773 l 0,-1.81297 C 100.18472,147.61654 96.5679,144 87.51882,144 z m 29.18123,9.41249 c -7.11586,0 -9.95887,2.92604 -9.95887,10.25689 l 0,1.46527 c 0,5.86456 5.69771,16.1428 9.95887,16.1428 4.26114,0 9.95886,-10.27824 9.95886,-16.1428 l 0,-1.46527 c 0,-7.33085 -2.84301,-10.25689 -9.95886,-10.25689 z M 78.727204,176.93131 C 67.059241,177.49417 64,181.2251 64,189.5227 l 0,13.03842 C 64,207.99066 63.98763,208 71.227009,208 l 32.583631,0 c 7.23937,0 7.25184,-0.009 7.25184,-5.43888 l 0,-13.03842 c 0,-8.2976 -3.08408,-12.02853 -14.75204,-12.59139 -0.65042,0.76681 -1.29782,1.51803 -2.01164,2.16065 -1.79988,1.62015 -4.00632,3.05472 -6.77998,3.05472 -2.77337,-1e-4 -4.957262,-1.43249 -6.755139,-3.05472 -0.711873,-0.64243 -1.38544,-1.39404 -2.036477,-2.16065 z m 45.249516,4.02329 c -0.42307,0.49481 -0.86991,0.95227 -1.34109,1.39076 -1.50985,1.40478 -3.35682,2.68219 -5.93558,2.68219 -0.7709,0 -1.46338,-0.12606 -2.11099,-0.32286 0.10852,0.96848 0.17385,1.97906 0.17385,2.98021 l 0,14.67754 14.97555,0 c 5.79151,0 5.78658,-0.0146 5.78658,-4.44548 l 0,-6.70548 c 0,-6.71838 -2.40878,-9.7575 -11.54832,-10.25688 z"
         id="rect3461-3-1" />
      <path
         style="opacity:0.1;color:#000000;fill:#000000;fill-opacity:1;fill-rule:nonzero;stroke:none;stroke-width:2;marker:none;visibility:visible;display:inline;overflow:visible;enable-background:accumulate"
         clip-path="none"
         d="m 87.53125,144 c -9.049071,0 -12.6875,3.60691 -12.6875,12.65625 l 0,1 c 0,-9.04934 3.638429,-12.65625 12.6875,-12.65625 9.04908,0 12.65625,3.60691 12.65625,12.65625 l 0,-1 C 100.1875,147.60691 96.58033,144 87.53125,144 z m 29.15625,9.40625 c -7.11586,0 -9.9375,2.91915 -9.9375,10.25 l 0,1 c 0,-7.33085 2.82164,-10.25 9.9375,-10.25 7.11585,0 9.96875,2.91915 9.96875,10.25 l 0,-1 c 0,-7.33085 -2.8529,-10.25 -9.96875,-10.25 z M 78.71875,176.9375 C 67.050787,177.50036 64,181.23365 64,189.53125 l 0,1 c 0,-8.2976 3.050787,-12.03089 14.71875,-12.59375 0.651037,0.76661 1.319377,1.51382 2.03125,2.15625 1.797877,1.62223 4.00788,3.0624 6.78125,3.0625 2.77366,0 4.98137,-1.44235 6.78125,-3.0625 0.71382,-0.64262 1.34958,-1.38944 2,-2.15625 11.66796,0.56286 14.75,4.29615 14.75,12.59375 l 0,-1 c 0,-8.2976 -3.08204,-12.03089 -14.75,-12.59375 -0.65042,0.76681 -1.28618,1.51363 -2,2.15625 -1.79988,1.62015 -4.00759,3.0625 -6.78125,3.0625 -2.77337,-1e-4 -4.983373,-1.44027 -6.78125,-3.0625 -0.711873,-0.64243 -1.380213,-1.38964 -2.03125,-2.15625 z m 45.25,4.03125 c -0.42307,0.49481 -0.87257,0.93651 -1.34375,1.375 -1.50985,1.40478 -3.35874,2.6875 -5.9375,2.6875 -0.7709,0 -1.44614,-0.1157 -2.09375,-0.3125 0.0381,0.34016 0.0673,0.68293 0.0937,1.03125 0.6207,0.18077 1.2661,0.28125 2,0.28125 2.57876,0 4.42765,-1.28272 5.9375,-2.6875 0.47118,-0.43849 0.92068,-0.88019 1.34375,-1.375 9.13954,0.49938 11.5625,3.53162 11.5625,10.25 l 0,-1 c 0,-6.71838 -2.42296,-9.75062 -11.5625,-10.25 z"
         id="path3883"
         inkscape:connector-curvature="0" />
      <path
         style="opacity:0.2;fill:url(#linearGradient3819);fill-opacity:1;stroke:none;display:inline;enable-background:new"
         clip-path="none"
         d="M 0,176.84375 0,217.0625 0,300 l 83.03125,0 89.9375,0 25.15625,0 L 108,244 0,176.84375 z"
         id="path4040"
         inkscape:connector-curvature="0" />
      <path
         inkscape:connector-curvature="0"
         id="path3852"
         d="M 0,176.84375 0,217.0625 0,300 l 83.03125,0 89.9375,0 25.15625,0 L 108,244 0,176.84375 z"
         clip-path="none"
         style="opacity:0.05;fill:#000000;fill-opacity:1;stroke:none;display:inline;enable-background:new" />
      <path
         style="opacity:0.15;fill:url(#linearGradient3829);fill-opacity:1;stroke:none;display:inline;enable-background:new"
         clip-path="none"
         d="m 256,152 -148,92 -90.09375,56 65.125,0 89.9375,0 L 256,300 256,217.0625 256,152 z"
         id="path3892"
         inkscape:connector-curvature="0" />
    </g>
    <g
       style="display:none"
       inkscape:label="Masks"
       id="g3067"
       inkscape:groupmode="layer">
      <rect
         style="opacity:0.5;color:#000000;fill:#000000;fill-opacity:1;fill-rule:nonzero;stroke:none;stroke-width:0.5;marker:none;visibility:visible;display:inline;overflow:visible;enable-background:new"
         id="rect3423"
         width="144"
         height="144"
         x="72"
         y="92.999977"
         ry="72" />
    </g>
    <g
       inkscape:groupmode="layer"
       id="layer3"
       inkscape:label="Shadow"
       style="display:none"
       sodipodi:insensitive="true">
      <path
         id="path3843"
         d="m 99.03125,50 89.9375,0 C 261.6174,50 272,60.356615 272,132.9375 l 0,72.125 C 272,277.64309 261.6174,288 188.96875,288 l -89.9375,0 C 26.382599,288 16,277.64309 16,205.0625 l 0,-72.125 C 16,60.356615 26.382599,50 99.03125,50 z"
         style="opacity:0.2;color:#000000;fill:none;stroke:#000000;stroke-width:8;stroke-miterlimit:4;stroke-opacity:1;stroke-dasharray:none;marker:none;visibility:visible;display:inline;overflow:visible;filter:url(#filter3845);enable-background:new"
         inkscape:connector-curvature="0"
         sodipodi:nodetypes="sssssssss"
         transform="translate(0,-4)" />
      <path
         sodipodi:nodetypes="sssssssss"
         inkscape:connector-curvature="0"
         style="opacity:0.3;color:#000000;fill:none;stroke:#000000;stroke-width:4;stroke-miterlimit:4;stroke-opacity:1;stroke-dasharray:none;marker:none;visibility:visible;display:inline;overflow:visible;filter:url(#filter3837);enable-background:new"
         d="m 99.03125,50 89.9375,0 C 261.6174,50 272,60.356615 272,132.9375 L 272,224 c 0,72.58059 -10.3826,82.9375 -83.03125,82.9375 l -89.9375,0 C 26.382599,306.9375 16,296.58059 16,224 l 0,-91.0625 C 16,60.356615 26.382599,50 99.03125,50 z"
         id="path3841"
         transform="translate(0,-4)" />
      <path
         id="path3808"
         d="m 99.03125,50 89.9375,0 C 261.6174,50 272,60.356615 272,132.9375 l 0,72.125 C 272,277.64309 261.6174,288 188.96875,288 l -89.9375,0 C 26.382599,288 16,277.64309 16,205.0625 l 0,-72.125 C 16,60.356615 26.382599,50 99.03125,50 z"
         style="color:#000000;fill:none;stroke:#000000;stroke-width:2;stroke-miterlimit:4;stroke-opacity:1;stroke-dasharray:none;marker:none;visibility:visible;display:inline;overflow:visible;filter:url(#filter3837);enable-background:new"
         inkscape:connector-curvature="0"
         sodipodi:nodetypes="sssssssss"
         transform="translate(0,-4)" />
      <path
         id="path3867"
         d="m 99.03125,47.0005 89.9375,0 C 261.6174,47.0005 272,57.357115 272,129.938 l 0,91.0625 c 0,72.58059 -10.3826,82.9375 -83.03125,82.9375 l -89.9375,0 C 26.382599,303.938 16,293.58109 16,221.0005 L 16,129.938 C 16,57.357115 26.382599,47.0005 99.03125,47.0005 z"
         style="opacity:0.3;color:#000000;fill:none;stroke:#000000;stroke-width:6;stroke-miterlimit:4;stroke-opacity:1;stroke-dasharray:none;marker:none;visibility:visible;display:inline;overflow:visible;filter:url(#filter3837);enable-background:new"
         inkscape:connector-curvature="0"
         sodipodi:nodetypes="sssssssss" />
      <path
         style="color:#000000;fill:#f7f7f7;fill-opacity:1;fill-rule:nonzero;stroke:none;stroke-width:0.5;marker:none;visibility:visible;display:inline;overflow:visible;enable-background:new"
         d="m 0,0 0,328 288,0 0,-328 z m 99.03125,50 89.9375,0 C 261.6174,50 272,60.356615 272,132.9375 l 0,72.125 C 272,277.64309 261.6174,288 188.96875,288 l -89.9375,0 C 26.382599,288 16,277.64309 16,205.0625 l 0,-72.125 C 16,60.356615 26.382599,50 99.03125,50 z"
         id="rect3019"
         transform="translate(0,-4)"
         inkscape:connector-curvature="0"
         sodipodi:nodetypes="cccccsssssssss" />
    </g>
  </g>
</svg>
