<?xml version="1.0" encoding="UTF-8" standalone="no"?>
<!-- Created with Inkscape (http://www.inkscape.org/) -->
<svg id="svg2" xmlns:rdf="http://www.w3.org/1999/02/22-rdf-syntax-ns#" xmlns="http://www.w3.org/2000/svg" height="64" width="64" version="1.0" xmlns:cc="http://creativecommons.org/ns#" xmlns:xlink="http://www.w3.org/1999/xlink" xmlns:dc="http://purl.org/dc/elements/1.1/">
 <defs id="defs4">
  <linearGradient id="linearGradient15916">
   <stop id="stop15920" style="stop-color:#fff" offset="0"/>
   <stop id="stop15922" style="stop-color:#fff" offset=".30185"/>
   <stop id="stop15924" style="stop-color:#595041" offset=".41610"/>
   <stop id="stop15926" style="stop-color:#595041" offset=".56463"/>
   <stop id="stop15928" style="stop-color:#c3bfba" offset=".67347"/>
   <stop id="stop15930" style="stop-color:#fff" offset="1"/>
  </linearGradient>
  <linearGradient id="linearGradient9051">
   <stop id="stop9053" style="stop-color:#595041" offset="0"/>
   <stop id="stop9059" style="stop-color:#fff" offset=".093861"/>
   <stop id="stop9061" style="stop-color:#fff" offset=".30185"/>
   <stop id="stop9063" style="stop-color:#595041" offset=".41610"/>
   <stop id="stop9065" style="stop-color:#595041" offset=".56463"/>
   <stop id="stop10076" style="stop-color:#c3bfba" offset=".67347"/>
   <stop id="stop9055" style="stop-color:#fff" offset="1"/>
  </linearGradient>
  <linearGradient id="linearGradient2236" y2="63.371" xlink:href="#linearGradient9051" gradientUnits="userSpaceOnUse" x2="418.99" y1="31.425" x1="418.99"/>
  <linearGradient id="linearGradient2238" y2="72.805" xlink:href="#linearGradient9051" gradientUnits="userSpaceOnUse" x2="319.95" y1="23.807" x1="319.95"/>
  <linearGradient id="linearGradient2240" y2="79.733" xlink:href="#linearGradient9051" gradientUnits="userSpaceOnUse" x2="37.252" y1="15.8" x1="37.252"/>
  <linearGradient id="linearGradient2242" y2="88.767" gradientUnits="userSpaceOnUse" x2="132.3" y1="5.9786" x1="132.3">
   <stop id="stop9077" style="stop-color:#29251e" offset="0"/>
   <stop id="stop9079" style="stop-color:#4d4d4d" offset=".093861"/>
   <stop id="stop9081" style="stop-color:#4d4d4d" offset=".27109"/>
   <stop id="stop9083" style="stop-color:#1b1914" offset=".41610"/>
   <stop id="stop9085" style="stop-color:#100f0c" offset=".56493"/>
   <stop id="stop10078" style="stop-color:#4d4d4d" offset=".75346"/>
   <stop id="stop9087" style="stop-color:#4d4d4d" offset="1"/>
  </linearGradient>
  <radialGradient id="radialGradient2244" xlink:href="#linearGradient15916" gradientUnits="userSpaceOnUse" cy="-45.508" cx="150.59" gradientTransform="matrix(-2.9727 -.11345 .045525 -1.1929 602.51 -95.614)" r="21.598"/>
  <radialGradient id="radialGradient2246" xlink:href="#linearGradient15916" gradientUnits="userSpaceOnUse" cy="-44.516" cx="159.53" gradientTransform="matrix(1.1217 .0023639 -.0025079 1.19 256.21 87.81)" r="21.598"/>
  <radialGradient id="radialGradient8145" gradientUnits="userSpaceOnUse" cy="37.572" cx="64.597" gradientTransform="matrix(1.3174 0 0 1.3174 -20.58 -12.043)" r="9.25">
   <stop id="stop2637" style="stop-color:#fff" offset="0"/>
   <stop id="stop2655" style="stop-color:#fff;stop-opacity:.71951" offset=".55952"/>
   <stop id="stop2639" style="stop-color:#fff;stop-opacity:0" offset="1"/>
  </radialGradient>
  <radialGradient id="radialGradient8147" gradientUnits="userSpaceOnUse" cy="10.902" cx="59.787" gradientTransform="matrix(0 -1.6866 1.6634 0 41.654 111.74)" r="10.556">
   <stop id="stop2619" style="stop-color:#fbfbfa" offset="0"/>
   <stop id="stop2621" style="stop-color:#d3d7cf" offset="1"/>
  </radialGradient>
  <radialGradient id="radialGradient8149" gradientUnits="userSpaceOnUse" cy="-2.6937" cx="45.095" gradientTransform="matrix(0 1.9259 -2.1007 -.0000021030 39.436 -89.543)" r="10.498">
   <stop id="stop2611" style="stop-color:#fff" offset="0"/>
   <stop id="stop2613" style="stop-color:#eeeeec" offset="1"/>
  </radialGradient>
  <linearGradient id="linearGradient8151" y2="4.5" gradientUnits="userSpaceOnUse" x2="62.955" y1="4.5" x1="42.045">
   <stop id="stop2672" style="stop-color:#888a85" offset="0"/>
   <stop id="stop2674" style="stop-color:#555753" offset="1"/>
  </linearGradient>
  <linearGradient id="linearGradient8153" y2="35.412" gradientUnits="userSpaceOnUse" x2="-19.562" y1="32" x1="-19.562">
   <stop id="stop2761" style="stop-color:#fff" offset="0"/>
   <stop id="stop2763" style="stop-color:#fff;stop-opacity:0" offset="1"/>
  </linearGradient>
  <linearGradient id="linearGradient8155" y2="54.632" gradientUnits="userSpaceOnUse" x2="79.83" y1="52.866" x1="81.596">
   <stop id="stop2700" style="stop-color:#555753" offset="0"/>
   <stop id="stop2706" style="stop-color:#a3a5a2" offset=".70238"/>
   <stop id="stop2702" style="stop-color:#888a85" offset="1"/>
  </linearGradient>
  <linearGradient id="linearGradient8157" y2="55.803" gradientUnits="userSpaceOnUse" x2="81.068" y1="53.212" x1="83.66">
   <stop id="stop2692" style="stop-color:#2e3436" offset="0"/>
   <stop id="stop2694" style="stop-color:#555753" offset="1"/>
  </linearGradient>
 </defs>
 <metadata id="metadata7">
  <rdf:RDF>
   <cc:Work rdf:about="">
    <dc:format>image/svg+xml</dc:format>
    <dc:type rdf:resource="http://purl.org/dc/dcmitype/StillImage"/>
   </cc:Work>
  </rdf:RDF>
 </metadata>
 <g id="layer1">
  <g id="g2227" transform="matrix(.12816 -.12813 .12816 .12813 -2.5906 54.93)">
   <rect id="rect8065" style="stroke-width:3.5;fill-rule:evenodd;color:#000000;stroke:#2c211d;fill:url(#linearGradient2236)" height="31.739" width="31.042" y="29.631" x="404.87"/>
   <rect id="rect5154" style="stroke-width:3.5;fill-rule:evenodd;color:#000000;stroke:#2c211d;fill:url(#linearGradient2238)" rx="4.7022" ry="4.7022" height="50.602" width="225.67" y="20.199" x="185.88"/>
   <rect id="rect3210" style="stroke-width:3.5;fill-rule:evenodd;color:#000000;stroke:#2c211d;fill:url(#linearGradient2240)" rx="11.986" ry="11.986" height="64.458" width="223.21" y="13.271" x="2.4116"/>
   <rect id="rect2239" style="stroke-width:4;fill-rule:evenodd;color:#000000;stroke:#1d1d1d;fill:url(#linearGradient2242)" rx="4.8887" ry="4.8801" height="86.988" width="163.73" y="2.0061" x="53.912"/>
   <path id="path8067" style="stroke-width:3.3999;fill-rule:evenodd;color:#000000;stroke:#2c211d;fill:url(#radialGradient2244)" transform="matrix(1.0295 0 0 1.0295 307.64 96.614)" d="m154.57-49.652c0 5.33-0.03 6.897-14.44 15.2-14.59 8.407-18.05 10.724-20.19 8.016-2.3-2.894-2.37-2.897-2.37-23.216 0-20.488 0.05-20.648 2.37-23.216 2.39-2.653 5.73-1.1 20.19 7.509 14.53 8.649 14.44 10.616 14.44 15.707z"/>
   <rect id="rect9105" style="fill-rule:evenodd;color:#000000;fill-opacity:.71084" height="47.158" width="9.6009" y="21.921" x="393.15"/>
   <path id="path14933" style="color:#000000;fill-rule:evenodd;fill:url(#radialGradient2246)" d="m433.4 22.171c-0.51 0.015-0.88 0.412-1.68 1.424-1.19 1.508-1.28 0.874-1.28 22.16 0 19.188 0.05 19.88 1.44 21.745 1.28 1.732 3.54 0.904 8.41-1.707v-41.149c-3.25-2.085-6.26-2.65-6.89-2.473z"/>
  </g>
  <g id="g1746" transform="translate(-3.1419 -15.277)">
   <g id="g1733">
    <path id="path2625" style="fill:url(#radialGradient8145)" d="m76 39.75c0 5.109-4.141 9.25-9.25 9.25s-9.25-4.141-9.25-9.25c0-5.1086 4.1414-9.25 9.25-9.25s9.25 4.1414 9.25 9.25z" transform="matrix(.81141 0 0 .81141 -27.694 -2.7591)"/>
    <path id="path2607" style="stroke:url(#radialGradient8147);stroke-linecap:round;stroke-width:2.5644;fill:none" d="m62.5 4.5c0 5.5228-4.4772 10-10 10s-10-4.4772-10-10 4.4772-10 10-10 10 4.4772 10 10z" transform="matrix(.97418 0 0 .97557 -24.675 25.119)"/>
    <path id="path2605" style="stroke:url(#radialGradient8149);stroke-linecap:round;stroke-width:1.0964;fill:none" d="m62.5 4.5c0 5.5228-4.4772 10-10 10s-10-4.4772-10-10 4.4772-10 10-10 10 4.4772 10 10z" transform="matrix(1.0043 0 0 1.0022 -26.261 25.001)"/>
    <path id="path2599" style="stroke:url(#linearGradient8151);stroke-linecap:round;stroke-width:.90944;fill:none" d="m62.5 4.5c0 5.5228-4.4772 10-10 10s-10-4.4772-10-10 4.4772-10 10-10 10 4.4772 10 10z" transform="matrix(1.0997 0 0 1.0994 -31.269 24.547)"/>
    <path id="path2657" style="fill:#fff" d="m67.5 37.5c0 1.3807-1.3431 2.5-3 2.5s-3-1.1193-3-2.5 1.3431-2.5 3-2.5 3 1.1193 3 2.5z" transform="matrix(0.5 0 0 .6 -8.7829 4.0413)"/>
    <path id="path2735" style="opacity:.8;fill:url(#linearGradient8153)" d="m-14 34.25c0 1.2426-2.4624 2.25-5.5 2.25s-5.5-1.0074-5.5-2.25 2.4624-2.25 5.5-2.25 5.5 1.0074 5.5 2.25z" transform="matrix(1 0 0 1.7778 45.967 -33.848)"/>
   </g>
   <g id="g2708" transform="matrix(0 1 -1 0 67.948 -38.979)">
    <path id="path2682" d="m76.5 49.469 1 3.75 5.1562 5.125c0.0094 0.01362 0.02053 0.05043 0.03125 0.0625 0.0057 0.0057 0.02527 0.02598 0.03125 0.03125 0.07544 0.05872 0.20015 0.08632 0.3125 0.09375 0.44035 0.01306 1.1183-0.30458 1.6562-0.84375 0.67822-0.67982 0.97578-1.5117 0.75-1.9375-0.0084-0.01422-0.02153-0.04925-0.03125-0.0625-0.0052-0.0064-0.02573-0.02513-0.03125-0.03125 0 0-5.1153-5.1152-5.1562-5.1562l-3.719-1.031z" style="stroke-linejoin:round;stroke:url(#linearGradient8157);stroke-linecap:round;stroke-width:1.0419;fill:url(#linearGradient8155)"/>
    <path id="path2687" d="m79.925 50.989c0.2697 0.27033 0.05081 0.92853-0.48858 1.4692-0.5394 0.54066-1.2082 0.74732-1.4658 0.48973l-0.721-2.713 2.6751 0.75387z" style="opacity:.19216;fill:#fff"/>
   </g>
  </g>
 </g>
</svg>
