<?xml version="1.0" encoding="UTF-8" standalone="no"?>
<!-- Created with Inkscape (http://www.inkscape.org/) -->
<svg id="svg2" xmlns="http://www.w3.org/2000/svg" height="64" width="64" version="1.1" xmlns:xlink="http://www.w3.org/1999/xlink">
 <g id="layer1" transform="translate(0,16)">
  <rect id="rect3056" style="stroke-linejoin:round;stroke:#071074;stroke-linecap:round;stroke-width:3.5;fill:none" height="8" width="8" y="-10" x="8"/>
  <rect id="rect3056-1" style="stroke-linejoin:round;stroke:#071074;stroke-linecap:round;stroke-width:3.5;fill:none" height="8" width="8" y="7" x="27"/>
  <rect id="rect3056-1-0" style="stroke-linejoin:round;stroke:#071074;stroke-linecap:round;stroke-width:3.5;fill:none" height="8" width="8" y="23" x="27"/>
  <path id="path3896" style="stroke:#3c3c3c;stroke-linecap:square;stroke-width:3;fill:none" d="m48 11h-6"/>
  <path id="path3896-3" style="stroke:#3c3c3c;stroke-linecap:square;stroke-width:3;fill:none" d="m48 27h-6"/>
  <path id="path4205" style="stroke:#646464;stroke-linecap:round;stroke-width:3;fill:none" d="m12 27h9"/>
  <path id="path3951" style="stroke:#505050;stroke-linecap:round;stroke-width:3;fill:none" d="m21.5 11h-9.5"/>
  <path id="path3951-5" style="stroke:#505050;stroke-linecap:round;stroke-width:3;fill:none" d="m12 3.5v39"/>
  <path id="path3951-5-5" style="stroke:#505050;stroke-linecap:round;stroke-width:3;fill:none" d="m31 36.5v6"/>
  <path id="path3896-3-6" style="stroke:#3c3c3c;stroke-linecap:square;stroke-width:3;fill:none" d="m60 27h-6"/>
  <path id="path3896-3-0" style="stroke:#3c3c3c;stroke-linecap:square;stroke-width:3;fill:none" d="m60 11h-6"/>
  <g id="text3729">
   <path id="path3803" d="m29.39-2.907h-3.7436l-0.59077 1.6915h-2.4066l3.4389-9.2845h2.8544l3.4389 9.2845h-2.4066l-0.58456-1.6915m-3.1467-1.7226h2.5434l-1.2686-3.6939-1.2748 3.6939"/>
   <path id="path3805" d="m33.606-10.5h2.3942v7.4749h4.2038v1.8096h-6.598v-9.2845"/>
   <path id="path3807" d="m48.176-10.208v1.9651c-0.50994-0.22801-1.0074-0.40006-1.4925-0.51615-0.48506-0.11607-0.94317-0.17412-1.3743-0.17412-0.57212 0.0000076-0.99499 0.078778-1.2686 0.23631-0.27362 0.15755-0.41044 0.40215-0.41043 0.7338-0.000003 0.24875 0.0912 0.44361 0.27362 0.58456 0.18656 0.13682 0.52236 0.25497 1.0074 0.35446l1.0199 0.20522c1.0323 0.20729 1.7661 0.52237 2.2014 0.94524s0.65295 1.024 0.65296 1.8034c-0.000008 1.024-0.30472 1.7868-0.91415 2.2885-0.60529 0.49749-1.5319 0.74624-2.7798 0.74624-0.58871-2e-7 -1.1795-0.055968-1.7723-0.1679-0.59285-0.11194-1.1857-0.27777-1.7785-0.49749v-2.0211c0.59285 0.31508 1.165 0.55346 1.7164 0.71515 0.55553 0.15754 1.0903 0.23631 1.6044 0.23631 0.52236 0.0000016 0.92243-0.08706 1.2002-0.26118 0.27776-0.17412 0.41664-0.42287 0.41665-0.74624-0.000007-0.2902-0.09536-0.51407-0.28606-0.67162-0.18657-0.15754-0.56176-0.29849-1.1256-0.42287l-0.927-0.2049c-0.92866-0.19899-1.6086-0.51615-2.0397-0.95146-0.42702-0.4353-0.64053-1.0219-0.64052-1.7599-0.000001-0.9245 0.2985-1.6355 0.89549-2.133 0.59699-0.49748 1.4552-0.74623 2.5745-0.74624 0.50993 0.000009 1.0344 0.0394 1.5733 0.11816 0.53894 0.07463 1.0966 0.18864 1.6728 0.34203"/>
   <path id="path3809" d="m56.528-2.907h-3.7436l-0.59078 1.6915h-2.4066l3.4389-9.2845h2.8544l3.4389 9.2845h-2.4066l-0.58456-1.6915m-3.1467-1.7226h2.5434l-1.2686-3.6939-1.2748 3.6939"/>
  </g>
 </g>
</svg>
