<?xml version="1.0" encoding="UTF-8" standalone="no"?>
<!-- Created with Inkscape (http://www.inkscape.org/) -->

<svg
   xmlns:dc="http://purl.org/dc/elements/1.1/"
   xmlns:cc="http://creativecommons.org/ns#"
   xmlns:rdf="http://www.w3.org/1999/02/22-rdf-syntax-ns#"
   xmlns:svg="http://www.w3.org/2000/svg"
   xmlns="http://www.w3.org/2000/svg"
   xmlns:sodipodi="http://sodipodi.sourceforge.net/DTD/sodipodi-0.dtd"
   xmlns:inkscape="http://www.inkscape.org/namespaces/inkscape"
   width="767.13367"
   height="777.92773"
   id="svg3035"
   version="1.1"
   inkscape:version="0.48.3.1 r9886"
   sodipodi:docname="qr-creator-logo-final.svg">
  <defs
     id="defs3037">
    <filter
       inkscape:collect="always"
       id="filter3910"
       color-interpolation-filters="sRGB">
      <feGaussianBlur
         inkscape:collect="always"
         stdDeviation="6.6648546"
         id="feGaussianBlur3912" />
    </filter>
  </defs>
  <sodipodi:namedview
     id="base"
     pagecolor="#ffffff"
     bordercolor="#666666"
     borderopacity="1.0"
     inkscape:pageopacity="0.0"
     inkscape:pageshadow="2"
     inkscape:zoom="0.87639253"
     inkscape:cx="383.56683"
     inkscape:cy="388.96387"
     inkscape:document-units="px"
     inkscape:current-layer="layer1"
     showgrid="false"
     fit-margin-top="0"
     fit-margin-left="0"
     fit-margin-right="0"
     fit-margin-bottom="0"
     inkscape:window-width="1375"
     inkscape:window-height="876"
     inkscape:window-x="65"
     inkscape:window-y="24"
     inkscape:window-maximized="1" />
  <metadata
     id="metadata3040">
    <rdf:RDF>
      <cc:Work
         rdf:about="">
        <dc:format>image/svg+xml</dc:format>
        <dc:type
           rdf:resource="http://purl.org/dc/dcmitype/StillImage" />
        <dc:title></dc:title>
      </cc:Work>
    </rdf:RDF>
  </metadata>
  <g
     inkscape:groupmode="layer"
     id="layer1"
     inkscape:label="Capa2"
     transform="translate(7.9956175,8.4681409)">
    <path
       id="path6309-3-5"
       style="opacity:0.7077465;fill:#000000;fill-opacity:1;filter:url(#filter3910)"
       d="m 237.0036,447.18585 -8.8438,-52.30957 53.8259,-9.10013 53.8259,-9.10007 8.8438,52.30957 8.8437,52.30964 -53.8259,9.10007 -53.8258,9.10013 -8.8438,-52.30964 z m 92.4894,-15.63681 -6.2803,-37.14733 -37.9055,6.40856 -37.9054,6.4085 6.2803,37.14732 6.2803,37.14747 37.9055,-6.40849 37.9055,-6.40856 -6.2804,-37.14747 z m -62.165,10.50997 -3.7169,-21.98509 23.5014,-3.97336 23.5015,-3.97323 3.7169,21.98516 3.7169,21.98516 -23.5014,3.97337 -23.5014,3.97322 -3.717,-21.98523 z m 98.7698,21.51073 -2.5633,-15.16231 7.5811,-1.28166 7.581,-1.28173 -1.1534,-6.82292 -1.1537,-6.82299 -7.581,1.28166 -7.5811,1.28173 -1.2818,-7.58116 -1.2816,-7.58108 7.5811,-1.28166 7.5811,-1.2818 -1.2817,-7.58101 -1.2818,-7.58109 7.5812,-1.28179 7.5811,-1.28166 -1.2817,-7.58108 -1.2817,-7.58109 -15.1623,2.56338 -15.1621,2.56339 -2.5634,-15.16224 -2.5635,-15.1621 7.5812,-1.2818 7.581,-1.28165 1.2818,7.58115 1.2816,7.58102 7.5811,-1.28166 7.5812,-1.28173 -2.5634,-15.16217 -2.5634,-15.16224 -22.7433,3.84518 -22.7433,3.84504 1.2816,7.58109 1.2818,7.58115 -15.1623,2.56339 -15.1622,2.56345 -1.2817,-7.58122 -1.2816,-7.58102 -8.3393,1.40991 -8.3392,1.40985 1.2817,7.58101 1.2817,7.58123 -15.1622,2.56338 -15.1622,2.56339 -1.2817,-7.58116 -1.2818,-7.58101 -15.1621,2.56338 -15.16227,2.56338 -1.28173,-7.58108 -1.28166,-7.58109 8.33926,-1.40991 8.3392,-1.40984 -1.2817,-7.58116 -1.2816,-7.58108 6.8229,-1.15354 6.8229,-1.15354 -1.2817,-7.58109 -1.2817,-7.58108 -15.1621,2.56345 -15.16222,2.56338 -1.2818,-7.58108 -1.28166,-7.58116 15.16228,-2.56338 15.1621,-2.56345 1.2818,7.58115 1.2816,7.58109 7.5812,-1.28173 7.5811,-1.28166 -1.2818,-7.58115 -1.2817,-7.58109 7.5812,-1.28172 7.581,-1.28166 1.2818,7.58108 1.2817,7.58109 -7.5812,1.2818 -7.581,1.28165 1.2816,7.58102 1.2817,7.58115 -7.581,1.28173 -7.5812,1.28166 2.5635,15.16224 2.5633,15.16224 7.5812,-1.28173 7.5811,-1.28173 -1.2817,-7.58108 -1.2817,-7.58116 15.9203,-2.69157 15.9203,-2.69157 -2.5634,-15.16224 -2.5634,-15.1621 7.5811,-1.28172 7.5811,-1.28173 -1.2817,-7.58109 -1.2817,-7.58115 15.1623,-2.56339 15.1621,-2.56338 -5.255,-31.08257 -5.255,-31.08251 7.5811,-1.28172 7.5811,-1.28166 -1.2817,-7.58109 -1.2817,-7.58115 -7.581,1.28173 -7.5812,1.28172 -2.4352,-14.40414 -2.4352,-14.40408 7.5811,-1.28165 7.5811,-1.28173 -1.4099,-8.33925 -1.4099,-8.33918 7.5811,-1.28166 7.5811,-1.28179 5.1268,30.32441 5.1269,30.32448 -7.5811,1.28165 -7.5812,1.28173 3.9733,23.50142 3.9733,23.50142 7.5811,-1.28173 7.5811,-1.28166 -1.2817,-7.58115 -1.2817,-7.58109 7.5811,-1.28165 7.5811,-1.28173 -1.2817,-7.58115 -1.2817,-7.58109 7.5811,-1.28173 7.5811,-1.28165 -1.4099,-8.33918 -1.4098,-8.33925 -7.5811,1.28166 -7.5812,1.28172 -1.2816,-7.58108 -1.2818,-7.58109 7.5812,-1.28172 7.581,-1.28166 -1.2817,-7.58116 -1.2817,-7.58115 -7.5811,1.28173 -7.581,1.28172 -2.5634,-15.16217 -2.5635,-15.16224 15.1622,-2.56338 15.1622,-2.56338 1.4099,8.33918 1.4099,8.33924 -7.5812,1.28166 -7.5811,1.28173 1.1536,6.82299 1.1535,6.82292 7.5811,-1.28166 7.5812,-1.28172 1.2817,7.58115 1.2816,7.58115 -7.581,1.28166 -7.5812,1.28173 1.2817,7.58101 1.2818,7.58116 7.581,-1.28173 7.5812,-1.28173 5.255,31.08258 5.2549,31.0825 -15.1622,2.56339 -15.1622,2.56338 1.2817,7.58115 1.2817,7.58109 -7.5811,1.28173 -7.581,1.28172 1.2816,7.58109 1.2818,7.58108 7.581,-1.28172 7.5811,-1.28166 1.2818,7.58108 1.2816,7.58109 7.5811,-1.28166 7.5812,-1.28173 -1.2818,-7.58108 -1.2816,-7.58109 15.1621,-2.56345 15.1622,-2.56338 -2.5634,-15.16217 -2.5634,-15.16231 22.7433,-3.84504 22.7434,-3.84518 1.2817,7.58115 1.2817,7.58116 7.5811,-1.28173 7.5811,-1.28166 -1.2817,-7.58115 -1.2818,-7.58116 14.4042,-2.43519 14.4041,-2.43527 1.2817,7.58115 1.2816,7.58109 7.5812,-1.28173 7.5811,-1.28166 5.1268,30.32434 5.1268,30.32441 -7.5811,1.28173 -7.5811,1.28166 2.5634,15.16224 2.5634,15.16224 7.5811,-1.28166 7.5812,-1.28173 4.9986,29.56625 4.9987,29.56631 -7.5812,1.28173 -7.5811,1.28166 -1.1536,-6.82292 -1.1534,-6.82307 -7.5811,1.2818 -7.5812,1.28166 1.1536,6.82299 1.1535,6.82292 -14.4041,2.43527 -14.4041,2.43526 2.5634,15.16224 2.5634,15.1621 -15.1622,2.56346 -15.1622,2.56338 -1.2817,-7.58108 -1.2818,-7.58109 -15.1621,2.56345 -15.1622,2.56339 1.2817,7.58101 1.2817,7.58116 -15.1623,2.56338 -15.1621,2.56346 -1.2818,-7.58116 -1.2816,-7.58101 15.1622,-2.56339 15.1622,-2.56345 -1.2817,-7.58109 -1.2818,-7.58115 -7.581,1.28173 -7.5812,1.28165 -1.1535,-6.82292 -1.1535,-6.82299 -7.5811,1.28166 -7.5811,1.28173 1.1535,6.82299 1.1536,6.82292 -7.5812,1.28172 -7.581,1.28166 1.2817,7.58122 1.2816,7.58109 -7.581,1.28166 -7.5811,1.28179 1.2816,7.58102 1.2818,7.58115 -7.5811,1.28166 -7.5812,1.28173 -2.5634,-15.16217 z m 101.1368,-47.51021 -2.4352,-14.40408 -7.5811,1.28166 -7.5811,1.28172 -1.2817,-7.58108 -1.2817,-7.58108 15.1621,-2.56346 15.1623,-2.56338 -1.2817,-7.58116 -1.2816,-7.58101 -7.5812,1.28165 -7.5812,1.2818 -1.2816,-7.58115 -1.2817,-7.58116 15.1622,-2.56338 15.1622,-2.56339 5.1268,30.32441 5.1269,30.32441 14.4041,-2.43519 14.404,-2.43527 -1.2816,-7.58116 -1.2818,-7.58108 7.5811,-1.28173 7.5811,-1.28165 -2.5634,-15.16224 -2.5634,-15.16217 -14.404,2.43526 -14.4042,2.4352 -1.2817,-7.58108 -1.2817,-7.58109 6.823,-1.15361 6.823,-1.15347 -1.2817,-7.58108 -1.2817,-7.58116 7.5811,-1.28166 7.5811,-1.28179 -5.1268,-30.32434 -5.1269,-30.32441 -14.404,2.43527 -14.4041,2.43526 1.2816,7.58102 1.2818,7.58108 -7.5811,1.28173 -7.5812,1.28173 -1.2817,-7.58116 -1.2816,-7.58101 -7.5812,1.28165 -7.5811,1.28173 1.2818,7.58108 1.2817,7.58109 -15.1622,2.56345 -15.1623,2.56339 1.2817,7.58108 1.2817,7.58109 -15.1621,2.56338 -15.1622,2.56345 1.2816,7.58109 1.2817,7.58115 -7.581,1.28166 -7.5811,1.28173 -1.2817,-7.58116 -1.2818,-7.58108 -7.5811,1.28173 -7.581,1.28165 -1.2818,-7.58101 -1.2816,-7.58116 -7.5811,1.28173 -7.5812,1.28173 -2.5634,-15.16224 -2.5634,-15.16224 -7.5811,1.28165 -7.5811,1.2818 1.2818,7.58109 1.2816,7.58108 -15.1622,2.56345 -15.1622,2.56339 1.2817,7.58108 1.2817,7.58109 15.1623,-2.56339 15.1621,-2.56338 1.2818,7.58115 1.2816,7.58102 15.1622,-2.56338 15.1623,-2.56346 1.2816,7.58116 1.2818,7.58108 7.581,-1.28166 7.5812,-1.28172 1.2817,7.58108 1.2817,7.58109 7.581,-1.28173 7.5811,-1.28166 1.2818,7.58109 1.2816,7.58108 -15.1622,2.56339 -15.1621,2.56345 1.2817,7.58109 1.2817,7.58115 22.7433,-3.84511 22.7433,-3.84511 -1.2817,-7.58116 -1.2817,-7.58115 7.581,-1.28166 7.5812,-1.28172 2.5634,15.16231 2.5634,15.16217 -15.1621,2.56338 -15.1623,2.56338 2.5633,15.16217 2.5635,15.16231 7.5811,-1.28172 7.5811,-1.28166 1.1536,6.82292 1.1534,6.82299 15.1623,-2.56339 15.1621,-2.56338 -2.4352,-14.40414 z m -59.4572,-74.94376 -1.2817,-7.58109 7.5812,-1.28172 7.5811,-1.28166 1.2816,7.58102 1.2818,7.58115 -7.5811,1.28166 -7.5812,1.28172 -1.2817,-7.58108 z m 30.3245,-5.12684 -1.2817,-7.58108 7.581,-1.28173 7.5812,-1.28166 -1.2818,-7.58115 -1.2817,-7.58116 22.7433,-3.84504 22.7434,-3.84511 1.2817,7.58116 1.2817,7.58108 -7.5811,1.28166 -7.5812,1.28173 1.2818,7.58108 1.2817,7.58108 -7.5812,1.28173 -7.581,1.28166 -1.2817,-7.58109 -1.2817,-7.58101 -7.5811,1.28166 -7.5811,1.28172 1.2817,7.58109 1.2817,7.58108 -7.5811,1.28173 -7.5812,1.28166 -1.2816,-7.58109 z m -47.8318,86.0646 -1.2817,-7.58109 -7.5812,1.28173 -7.581,1.28165 1.2817,7.58116 1.2816,7.58115 7.5812,-1.28172 7.5811,-1.28166 -1.2817,-7.58122 z m -60.8671,-83.28294 -1.2816,-7.58116 -15.1623,2.56346 -15.1622,2.56338 1.2817,7.58116 1.2818,7.58108 15.1621,-2.56338 15.1623,-2.56346 -1.2818,-7.58108 z m 62.994,-88.62805 -1.2817,-7.58108 -7.581,1.28172 -7.5812,1.28166 1.2817,7.58109 1.2817,7.58115 7.5812,-1.2818 7.581,-1.28165 -1.2817,-7.58109 z m 140.2506,193.06708 -1.2817,-7.58108 7.5811,-1.28166 7.5811,-1.28172 1.2817,7.58108 1.2817,7.58115 -7.5811,1.28166 -7.5811,1.28173 -1.2817,-7.58116 z m -331.5317,-208.29463 -9.10006,-53.82576 53.82586,-9.10007 53.8258,-9.1002 9.1001,53.82583 9.1001,53.82583 -53.8258,9.10013 -53.82586,9.10007 -9.10014,-53.82583 z m 92.6176,-14.87865 -6.4085,-37.9055 -37.9055,6.40857 -37.90548,6.40849 6.4085,37.90549 6.40856,37.90557 37.90552,-6.40857 37.9055,-6.40849 -6.4086,-37.90556 z m -62.2932,9.75181 -3.9732,-23.50135 23.5014,-3.97337 23.5014,-3.97322 3.9733,23.50141 3.9733,23.50142 -23.5015,3.9733 -23.5014,3.9733 -3.9733,-23.50149 z m 183.4627,-31.01719 -9.1,-53.82576 52.3095,-8.84383 52.3097,-8.84369 9.1001,53.82576 9.1,53.82583 -52.3096,8.84383 -52.3096,8.84369 -9.1001,-53.82583 z m 89.5852,-14.36597 -6.4085,-37.9055 -37.1474,6.28031 -37.1475,6.28038 6.4086,37.90549 6.4085,37.9055 37.1475,-6.28031 37.1473,-6.28031 -6.4085,-37.90556 z m -59.2608,9.23913 -3.9733,-23.50142 21.9853,-3.71692 21.9851,-3.71692 3.9734,23.50141 3.9733,23.50135 -21.9853,3.717 -21.9852,3.71692 -3.9733,-23.50142 z M 710.8927,598.5528 c -2.9443,-0.73598 -6.4038,-1.47204 -10.3785,-2.20819 -3.9748,-0.88318 -8.2439,-1.32482 -12.8075,-1.32491 -2.061,9e-5 -4.5636,0.22091 -7.5078,0.66246 -2.7971,0.29451 -4.9316,0.66254 -6.4037,1.10409 l 0,88.76904 -32.902,0 0,-109.96762 c 5.8885,-2.06086 12.8075,-3.97462 20.757,-5.74128 8.0966,-1.91364 17.0765,-2.87052 26.9398,-2.87064 1.7665,1.2e-4 3.9011,0.14733 6.4038,0.44164 2.5025,0.14733 5.0051,0.44175 7.5078,0.88327 2.5025,0.29454 5.0051,0.73618 7.5078,1.32491 2.5025,0.44175 4.6371,1.0306 6.4038,1.76655 l -5.5205,27.16068 m -71.5279,28.7064 c -2e-4,9.12722 -1.3251,17.51831 -3.9748,25.17331 -2.6499,7.50786 -6.4774,13.9852 -11.4825,19.43203 -5.0054,5.29966 -11.0411,9.4216 -18.1072,12.36584 -6.919,2.94424 -14.7213,4.41637 -23.4067,4.41637 -8.5384,0 -16.3406,-1.47213 -23.4068,-4.41637 -6.919,-2.94424 -12.8811,-7.06618 -17.8863,-12.36584 -5.0052,-5.44683 -8.9063,-11.92417 -11.7034,-19.43203 -2.797,-7.655 -4.1955,-16.04609 -4.1955,-25.17331 0,-9.12709 1.3985,-17.44458 4.1955,-24.95249 2.9443,-7.50774 6.919,-13.91147 11.9242,-19.21121 5.1524,-5.29954 11.1881,-9.42148 18.1072,-12.36584 7.0661,-2.94412 14.7211,-4.41625 22.9651,-4.41637 8.391,1.2e-4 16.046,1.47225 22.9651,4.41637 7.0661,2.94436 13.1018,7.0663 18.1071,12.36584 5.0051,5.29974 8.9063,11.70347 11.7034,19.21121 2.7969,7.50791 4.1954,15.8254 4.1956,24.95249 m -33.5645,0 c 0,-10.15758 -2.061,-18.10704 -6.1829,-23.8484 -3.9748,-5.8884 -9.7161,-8.83265 -17.2238,-8.83274 -7.5079,9e-5 -13.3228,2.94434 -17.4447,8.83274 -4.122,5.74136 -6.1829,13.69082 -6.1829,23.8484 0,10.1577 2.0609,18.25437 6.1829,24.29004 4.1219,5.88852 9.9368,8.83277 17.4447,8.83274 7.5077,3e-5 13.249,-2.94422 17.2238,-8.83274 4.1219,-6.03567 6.1829,-14.13234 6.1829,-24.29004 m -145.8126,-86.78167 32.9019,-5.29965 0,34.22687 39.5265,0 0,27.3815 -39.5265,0 0,40.85142 c 0,6.91902 1.1777,12.43948 3.5331,16.56139 2.5026,4.12197 7.4342,6.18295 14.7949,6.18292 3.533,3e-5 7.1397,-0.2944 10.8201,-0.88327 3.8274,-0.73604 7.2869,-1.69292 10.3784,-2.87064 l 4.6372,25.61494 c -3.9748,1.61934 -8.3911,3.01786 -13.2491,4.19555 -4.8581,1.1777 -10.8201,1.76655 -17.8863,1.76655 -8.98,0 -16.4142,-1.1777 -22.3026,-3.53309 -5.8886,-2.50261 -10.5994,-5.88849 -14.1324,-10.15766 -3.5331,-4.41635 -6.0358,-9.71599 -7.5079,-15.89893 -1.3249,-6.18288 -1.9873,-13.02825 -1.9873,-20.53612 l 0,-97.60178 m -52.6066,122.11264 c 3.2386,2e-5 6.3301,-0.0736 9.2744,-0.22082 2.9442,-0.14719 5.2996,-0.36801 7.0662,-0.66246 l 0,-24.95249 c -1.325,-0.29438 -3.3124,-0.5888 -5.9621,-0.88327 -2.6499,-0.29438 -5.0789,-0.44159 -7.287,-0.44164 -3.0916,5e-5 -6.0358,0.22087 -8.8328,0.66245 -2.6498,0.29448 -5.0052,0.95693 -7.0662,1.98737 -2.061,1.03053 -3.6803,2.42905 -4.858,4.19555 -1.1777,1.76659 -1.7666,3.97477 -1.7665,6.62456 -10e-5,5.15246 1.6929,8.75916 5.0788,10.8201 3.5331,1.91379 8.3174,2.87067 14.3532,2.87065 m -2.6498,-96.27688 c 9.7159,1.2e-4 17.8126,1.10421 24.29,3.31228 6.4773,2.2083 11.6297,5.37336 15.4573,9.4952 3.9746,4.12205 6.7717,9.12726 8.3911,15.01566 1.6192,5.88858 2.4289,12.43952 2.429,19.65284 l 0,68.45374 c -4.7109,1.03049 -11.2618,2.20819 -19.6528,3.5331 -8.3912,1.47212 -18.5488,2.20818 -30.473,2.20818 -7.5079,0 -14.3532,-0.66245 -20.5361,-1.98736 -6.0357,-1.32491 -11.2618,-3.45949 -15.6781,-6.40374 -4.4164,-3.09145 -7.8023,-7.06618 -10.1577,-11.9242 -2.3554,-4.85798 -3.5331,-10.82008 -3.5331,-17.8863 0,-6.77172 1.3249,-12.513 3.9748,-17.22384 2.797,-4.71074 6.4773,-8.46465 11.0409,-11.26175 4.5636,-2.79696 9.7896,-4.78433 15.6781,-5.9621 5.8885,-1.32484 11.9978,-1.98729 18.3279,-1.98736 4.2691,7e-5 8.0231,0.22089 11.2618,0.66245 3.3858,0.2945 6.1092,0.73614 8.1703,1.32491 l 0,-3.09146 c -10e-5,-5.59399 -1.693,-10.08396 -5.0788,-13.46992 -3.386,-3.3858 -9.2745,-5.07874 -17.6655,-5.07883 -5.5941,9e-5 -11.1146,0.44173 -16.5614,1.32491 -5.4469,0.73615 -10.1577,1.84024 -14.1324,3.31228 l -4.1956,-26.49822 c 1.9138,-0.58874 4.2692,-1.17759 7.0662,-1.76655 2.9443,-0.73595 6.1093,-1.3248 9.4952,-1.76655 3.3859,-0.58873 6.919,-1.03037 10.5993,-1.32491 3.8275,-0.44152 7.655,-0.66234 11.4826,-0.66246 M 252.4804,628.3633 c 0,-10.3048 1.5457,-19.28474 4.6372,-26.93986 3.2386,-7.80216 7.4342,-14.2795 12.5866,-19.43203 5.1524,-5.15232 11.0409,-9.05345 17.6655,-11.70338 6.7717,-2.64971 13.6907,-3.97462 20.7569,-3.97474 16.4877,1.2e-4 29.516,5.07894 39.0849,15.23648 9.5687,10.01053 14.3531,24.80536 14.3532,44.38452 -1e-4,1.91382 -0.074,4.0484 -0.2208,6.40374 -0.1473,2.20824 -0.2945,4.1956 -0.4416,5.9621 l -74.6367,0 c 0.736,6.77181 3.9011,12.14505 9.4952,16.11975 5.594,3.97476 13.1018,5.96213 22.5235,5.9621 6.0356,3e-5 11.9241,-0.51522 17.6655,-1.54573 5.8884,-1.17767 10.6728,-2.57619 14.3532,-4.19555 l 4.4164,26.71904 c -1.7667,0.88328 -4.1221,1.76655 -7.0662,2.64982 -2.9444,0.88328 -6.2567,1.61934 -9.9369,2.20819 -3.5332,0.73606 -7.3607,1.32491 -11.4825,1.76654 -4.1221,0.44164 -8.244,0.66246 -12.3659,0.66246 -10.4521,0 -19.5793,-1.54573 -27.3815,-4.63719 -7.655,-3.09145 -14.0588,-7.287 -19.2112,-12.58665 -5.0052,-5.44684 -8.7591,-11.85057 -11.2617,-19.21121 -2.3554,-7.36058 -3.5331,-15.31004 -3.5331,-23.8484 m 77.2865,-12.58666 c -0.1473,-2.79696 -0.6626,-5.52039 -1.5458,-8.17028 -0.7361,-2.64975 -1.9874,-5.00514 -3.7539,-7.0662 -1.6194,-2.06088 -3.754,-3.75382 -6.4037,-5.07882 -2.5027,-1.32482 -5.6678,-1.98728 -9.4952,-1.98737 -3.6804,9e-5 -6.8455,0.66255 -9.4952,1.98737 -2.6499,1.17779 -4.8581,2.79712 -6.6246,4.858 -1.7666,2.06106 -3.1651,4.49006 -4.1955,7.28702 -0.8833,2.64989 -1.5458,5.37332 -1.9874,8.17028 l 43.5013,0 M 260.9577,598.5528 c -2.9443,-0.73598 -6.4038,-1.47204 -10.3784,-2.20819 -3.9748,-0.88318 -8.244,-1.32482 -12.8075,-1.32491 -2.061,9e-5 -4.5636,0.22091 -7.5078,0.66246 -2.7971,0.29451 -4.9317,0.66254 -6.40377,1.10409 l 0,88.76904 -32.90196,0 0,-109.96762 c 5.88847,-2.06086 12.80745,-3.97462 20.75694,-5.74128 8.09664,-1.91364 17.07659,-2.87052 26.93989,-2.87064 1.7665,1.2e-4 3.901,0.14733 6.4037,0.44164 2.5025,0.14733 5.0052,0.44175 7.5078,0.88327 2.5026,0.29454 5.0052,0.73618 7.5079,1.32491 2.5025,0.44175 4.6371,1.0306 6.4037,1.76655 l -5.5205,27.16068 M 71.81286,608.93127 c -4e-5,7.5079 0.88323,14.27966 2.64983,20.3153 1.9137,6.03576 4.56352,11.26179 7.94946,15.67811 3.53304,4.2692 7.80219,7.58147 12.807486,9.93684 5.005144,2.35542 10.746424,3.53312 17.223844,3.53309 6.33004,3e-5 11.99771,-1.17767 17.00302,-3.53309 5.15233,-2.35537 9.42148,-5.66764 12.80748,-9.93684 3.53297,-4.41632 6.18279,-9.64235 7.94946,-15.67811 1.91364,-6.03564 2.87052,-12.8074 2.87065,-20.3153 -1.3e-4,-7.50775 -0.95701,-14.27951 -2.87065,-20.31531 -1.76667,-6.18281 -4.41649,-11.40884 -7.94946,-15.67811 -3.386,-4.41625 -7.65515,-7.80213 -12.80748,-10.15765 -5.00531,-2.35527 -10.67298,-3.53297 -17.00302,-3.5331 -6.47742,1.3e-4 -12.2187,1.25143 -17.223844,3.75392 -5.005296,2.35551 -9.274446,5.74139 -12.807486,10.15765 -3.38594,4.26926 -6.03576,9.4953 -7.94946,15.67811 -1.7666,6.0358 -2.64987,12.73395 -2.64983,20.09449 m 116.81301,0 c -1.7e-4,10.74656 -1.32508,20.46257 -3.97474,29.14804 -2.64998,8.53836 -6.40389,16.04618 -11.26174,22.52349 -4.71094,6.47736 -10.37861,11.85061 -17.00303,16.11975 -6.62468,4.26916 -13.91168,7.36062 -21.86103,9.27438 0.73595,2.94424 2.35529,5.29964 4.85801,7.06619 2.50249,1.91375 5.66755,3.45948 9.49519,4.63719 3.8274,1.17768 8.24376,2.06096 13.24911,2.64982 5.15229,0.58883 10.67275,1.10408 16.56139,1.54573 l -7.06619,25.17331 c -11.4827,-0.44168 -21.34591,-1.61937 -29.58968,-3.5331 -8.09679,-1.76658 -15.01576,-4.26919 -20.75694,-7.50782 -5.59416,-3.2387 -10.08413,-7.21343 -13.46993,-11.9242 -3.23875,-4.71081 -5.74136,-10.15766 -7.50783,-16.34057 -9.12724,-1.1777 -17.59194,-3.68031 -25.39414,-7.50783 -7.80229,-3.97473 -14.57405,-9.27437 -20.3153,-15.89894 -5.74131,-6.62452 -10.23128,-14.57398 -13.46993,-23.8484 -3.23868,-9.27432 -4.85802,-19.79999 -4.85801,-31.57704 -1e-5,-13.10181 2.06096,-24.58436 6.18292,-34.44769 4.12193,-10.01032 9.64238,-18.40141 16.56139,-25.17331 7.06615,-6.77163 15.16282,-11.85045 24.29004,-15.23648 9.27431,-3.38573 18.99032,-5.07867 29.14805,-5.07882 10.45198,1.5e-4 20.31519,1.69309 29.58968,5.07882 9.27425,3.38603 17.37092,8.46485 24.29004,15.23648 6.91883,6.7719 12.36568,15.16299 16.34057,25.17331 3.97457,9.86333 5.96193,21.34588 5.9621,34.44769 M 12.69368,595.49856 c 3.40814,-60.84776 59.10325,-89.54985 98.88047,-89.99756 35.52961,-0.39984 72.44506,23.01896 81.67569,42.70067 29.59039,-8.00947 55.90596,-10.81953 78.69056,1.81631 35.9496,-13.1153 63.0445,-8.27498 83.9677,4.81604 52.5223,-17.35795 83.4851,-3.5699 83.4851,-3.5699 l 1.5296,-29.09327 69.566,-10.25528 -0.5952,37.45122 34.5727,0.28331 c 30.8221,-16.2333 62.183,-9.91566 84.9024,4.24914 48.0462,-15.71323 75.1579,-11.53889 108.6994,5.383 l -13.9094,65.49758 c -10.2741,-3.92829 -13.2677,-10.54808 -31.7005,-7.22415 l -0.5952,91.50341 -62.7499,-0.59522 c -0.9066,-4.53266 -0.6232,-6.68532 -1.5296,-11.21797 -38.9809,19.03716 -59.8311,12.69145 -81.5879,5.43917 -34.7503,12.38919 -55.9027,10.27399 -85.2139,1.81304 -32.333,7.55445 -64.6659,8.76305 -99.7184,0.90658 -52.6244,13.70527 -83.3228,8.27167 -122.3036,-16.10176 -0.088,9.94678 -0.1759,7.35381 -0.6581,15.57681 -11.4052,-0.074 -29.12005,-0.61128 -42.49716,-0.67757 l -9.48875,45.50629 c 0,0 -99.86682,-5.5155 -98.77587,-43.63122 C 26.90683,699.66831 10.14139,641.0649 12.69361,595.49856 z m 96.50884,-95.32878 c 35.9864,-0.42845 77.02999,21.02547 86.37924,42.1263 29.97094,-8.58697 52.36244,-11.5996 75.44004,1.94729 36.4118,-14.06089 63.8551,-8.87167 85.0472,5.16341 53.1975,-18.6096 80.2962,-3.82732 80.2962,-3.82732 l 0.3314,-29.97327 77.1584,-10.38591 -0.6029,38.32501 30.7548,0.91315 c 31.2184,-17.4038 63.5914,-11.84844 86.6029,3.33774 48.6639,-16.84626 78.5598,-11.76205 112.5326,6.38009 l -15.3061,77.52745 c -10.4062,-4.2116 -12.8294,-10.09088 -30.8902,-10.18069 l -0.6029,93.23032 -70.2059,-0.028 c -0.9181,-4.85956 -0.6308,-7.16741 -1.5492,-12.02692 -26.6951,15.53862 -56.9956,13.60672 -79.0321,5.83141 -29.7169,9.62911 -57.2305,11.62381 -85.0917,1.33483 -29.7042,8.09918 -63.6706,9.39498 -99.1738,0.97197 -54.5189,11.04021 -78.914,7.04151 -119.6137,-13.60934 -0.089,10.66405 -0.178,4.83948 -0.6671,13.65547 -11.5518,-0.0789 -28.88558,-1.87375 -42.43464,-1.9443 l -9.00188,44.52548 c 0,0 -106.63099,-2.2598 -105.52595,-43.12408 C 22.83724,703.46881 4.8268398,638.13856 8.44126,596.65877 13.35778,542.14295 45.89576,508.15082 109.20252,500.16968 z M 689.0294,352.02323 c 0,173.11813 -140.34,313.45807 -313.4581,313.45807 -173.11809,0 -313.45811,-140.33994 -313.45811,-313.45807 0,-173.11812 140.34002,-313.45807 313.45811,-313.45807 173.1181,0 313.4581,140.33995 313.4581,313.45807 z m 31.0376,10e-6 c 0,190.25973 -154.236,344.49572 -344.4957,344.49572 -190.25978,0 -344.49578,-154.23599 -344.49578,-344.49572 0,-190.25974 154.236,-344.49573 344.49578,-344.49573 190.2597,0 344.4957,154.23599 344.4957,344.49573 z"
       inkscape:connector-curvature="0" />
  </g>
  <g
     inkscape:label="Capa 1"
     inkscape:groupmode="layer"
     id="capa1"
     transform="translate(-5.0317465,-139.31687)"
     style="display:inline">
    <path
       sodipodi:type="arc"
       style="fill:#fff8c1;fill-opacity:1;stroke:none"
       id="path5990-1"
       sodipodi:cx="169.81201"
       sodipodi:cy="233.15921"
       sodipodi:rx="175.4102"
       sodipodi:ry="175.4102"
       d="m 345.22221,233.15921 c 0,96.87638 -78.53382,175.4102 -175.4102,175.4102 -96.876378,0 -175.4102003,-78.53382 -175.4102003,-175.4102 0,-96.87638 78.5338223,-175.410202 175.4102003,-175.410202 96.87638,0 175.4102,78.533822 175.4102,175.410202 z"
       transform="matrix(1.9639435,0,0,1.9639435,47.097381,34.369224)" />
    <path
       sodipodi:type="arc"
       style="fill:none;stroke:#dd4814;stroke-width:6.25192976;stroke-miterlimit:4;stroke-opacity:1;stroke-dasharray:none"
       id="path6108-3"
       sodipodi:cx="-92.708336"
       sodipodi:cy="322.15384"
       sodipodi:rx="40.625"
       sodipodi:ry="40.625"
       d="m -52.083336,322.15384 c 0,22.43657 -18.188432,40.625 -40.625,40.625 -22.436564,0 -40.625004,-18.18843 -40.625004,-40.625 0,-22.43657 18.18844,-40.625 40.625004,-40.625 22.436568,0 40.625,18.18843 40.625,40.625 z"
       transform="matrix(7.7158909,0,0,7.7158909,1095.926,-1993.4231)" />
    <path
       style="fill:#fff8c1;fill-opacity:1;stroke:none"
       d="m 114.22984,640.42728 c 35.9864,-0.42845 77.02999,21.02547 86.37924,42.1263 29.9709,-8.58697 52.36246,-11.5996 75.44003,1.94729 36.41178,-14.06089 63.85509,-8.87167 85.0472,5.16341 53.19752,-18.6096 80.29619,-3.82732 80.29619,-3.82732 l 0.33146,-29.97327 77.15831,-10.38591 -0.6029,38.32501 30.75481,0.91315 c 31.21837,-17.4038 63.59139,-11.84844 86.60295,3.33774 48.66389,-16.84626 78.55971,-11.76205 112.53259,6.38009 l -15.30613,77.52745 c -10.40621,-4.2116 -12.82941,-10.09088 -30.89019,-10.18069 l -0.6029,93.23032 -70.20588,-0.028 c -0.91817,-4.85956 -0.63081,-7.16741 -1.54926,-12.02692 -26.69506,15.53862 -56.99553,13.60672 -79.03212,5.83141 -29.71683,9.62911 -57.23042,11.62381 -85.09165,1.33483 -29.70413,8.09918 -63.67059,9.39498 -99.17382,0.97197 -54.51882,11.04021 -78.91399,7.04151 -119.6137,-13.60934 -0.0893,10.66405 -0.17794,4.83948 -0.6671,13.65547 -11.5518,-0.0789 -28.88553,-1.87375 -42.43459,-1.9443 l -9.00188,44.52548 c 0,0 -106.630979,-2.2598 -105.525939,-43.12408 -61.20999,-6.87106 -79.2203902,-72.20131 -75.60597,-113.6811 4.91652,-54.51582 37.4545,-88.50795 100.761249,-96.48909 z"
       id="path6236-7-5"
       inkscape:connector-curvature="0"
       sodipodi:nodetypes="cccccccccccccccccccccccccc" />
    <path
       style="fill:#dd4814;fill-opacity:1;stroke:none"
       d="m 17.721011,735.75606 c 3.40814,-60.84776 59.10325,-89.54985 98.880459,-89.99756 35.52961,-0.39984 72.44506,23.01896 81.67569,42.70067 29.59039,-8.00947 55.90598,-10.81953 78.69054,1.81631 35.94962,-13.1153 63.04452,-8.27498 83.9677,4.81604 52.52232,-17.35795 83.48509,-3.5699 83.48509,-3.5699 l 1.52965,-29.09327 69.56599,-10.25528 -0.59523,37.45122 34.57272,0.28331 c 30.82208,-16.2333 62.18294,-9.91566 84.9024,4.24914 48.04612,-15.71323 75.15784,-11.53889 108.69941,5.383 l -13.90948,65.49758 c -10.27405,-3.92829 -13.2677,-10.54808 -31.70048,-7.22415 l -0.59522,91.50341 -62.74991,-0.59522 c -0.90652,-4.53266 -0.62314,-6.68532 -1.52959,-11.21797 -38.98088,19.03716 -59.83106,12.69145 -81.58783,5.43917 -34.7503,12.38919 -55.90277,10.27399 -85.2139,1.81304 -32.33297,7.55445 -64.66587,8.76305 -99.71839,0.90658 -52.62442,13.70527 -83.32285,8.27167 -122.30366,-16.10176 -0.0879,9.94678 -0.17584,7.35381 -0.65803,15.57681 -11.40519,-0.074 -29.12007,-0.61128 -42.49718,-0.67757 l -9.48875,45.50629 c 0,0 -99.866809,-5.5155 -98.775859,-43.63122 -60.43299,-6.40892 -77.19843,-65.01233 -74.64621,-110.57867 z"
       id="path6236-1"
       inkscape:connector-curvature="0"
       sodipodi:nodetypes="sscccccccccccccccccccccccs" />
    <text
       xml:space="preserve"
       style="font-size:220.81851196px;font-style:normal;font-weight:normal;line-height:125%;letter-spacing:0px;word-spacing:0px;fill:#fff8c1;fill-opacity:1;stroke:none;font-family:Sans"
       x="30.247461"
       y="825.81281"
       id="text6110-1-8"
       sodipodi:linespacing="125%"><tspan
         sodipodi:role="line"
         id="tspan6112-1-6"
         x="30.247461"
         y="825.81281"
         style="font-style:normal;font-variant:normal;font-weight:bold;font-stretch:normal;letter-spacing:-23.95880699px;fill:#fff8c1;fill-opacity:1;font-family:Ubuntu;-inkscape-font-specification:Ubuntu Bold">Qreator</tspan></text>
    <path
       style="fill:#dd4814;fill-opacity:1"
       d="m 242.03095,587.44335 -8.84383,-52.30957 53.82589,-9.10013 53.8259,-9.10007 8.84376,52.30957 8.8437,52.30964 -53.82583,9.10007 -53.82583,9.10013 -8.84376,-52.30964 z m 92.48941,-15.63681 -6.2803,-37.14733 -37.9055,6.40856 -37.90549,6.4085 6.28038,37.14732 6.2803,37.14747 37.9055,-6.40849 37.90549,-6.40856 -6.28038,-37.14747 z m -62.165,10.50997 -3.71693,-21.98509 23.50142,-3.97336 23.50142,-3.97323 3.71692,21.98516 3.71693,21.98516 -23.50142,3.97337 -23.50142,3.97322 -3.71692,-21.98523 z m 98.76979,21.51073 -2.56338,-15.16231 7.58115,-1.28166 7.58102,-1.28173 -1.15347,-6.82292 -1.15361,-6.82299 -7.58102,1.28166 -7.58115,1.28173 -1.28173,-7.58116 -1.28166,-7.58108 7.58109,-1.28166 7.58108,-1.2818 -1.28165,-7.58101 -1.2818,-7.58109 7.58115,-1.28179 7.58116,-1.28166 -1.28173,-7.58108 -1.28166,-7.58109 -15.1623,2.56338 -15.16217,2.56339 -2.56339,-15.16224 -2.56345,-15.1621 7.58115,-1.2818 7.58102,-1.28165 1.28179,7.58115 1.28166,7.58102 7.58109,-1.28166 7.58115,-1.28173 -2.56338,-15.16217 -2.56339,-15.16224 -22.74332,3.84518 -22.74333,3.84504 1.28166,7.58109 1.2818,7.58115 -15.16231,2.56339 -15.16217,2.56345 -1.28173,-7.58122 -1.28165,-7.58102 -8.33925,1.40991 -8.33918,1.40985 1.28165,7.58101 1.28173,7.58123 -15.16224,2.56338 -15.16217,2.56339 -1.28173,-7.58116 -1.28172,-7.58101 -15.16217,2.56338 -15.16224,2.56338 -1.28173,-7.58108 -1.28166,-7.58109 8.33925,-1.40991 8.33918,-1.40984 -1.28165,-7.58116 -1.28166,-7.58108 6.82292,-1.15354 6.82292,-1.15354 -1.28166,-7.58109 -1.28172,-7.58108 -15.16217,2.56345 -15.16217,2.56338 -1.2818,-7.58108 -1.28166,-7.58116 15.16224,-2.56338 15.16217,-2.56345 1.28173,7.58115 1.28166,7.58109 7.58115,-1.28173 7.58109,-1.28166 -1.28173,-7.58115 -1.28173,-7.58109 7.58116,-1.28172 7.58108,-1.28166 1.28173,7.58108 1.28173,7.58109 -7.58116,1.2818 -7.58108,1.28165 1.28165,7.58102 1.28173,7.58115 -7.58109,1.28173 -7.58115,1.28166 2.56345,15.16224 2.56339,15.16224 7.58115,-1.28173 7.58109,-1.28173 -1.28173,-7.58108 -1.28166,-7.58116 15.92034,-2.69157 15.92026,-2.69157 -2.56338,-15.16224 -2.56339,-15.1621 7.58109,-1.28172 7.58108,-1.28173 -1.28172,-7.58109 -1.28166,-7.58115 15.16224,-2.56339 15.1621,-2.56338 -5.25496,-31.08257 -5.25495,-31.08251 7.58109,-1.28172 7.58108,-1.28166 -1.28173,-7.58109 -1.28165,-7.58115 -7.58102,1.28173 -7.58122,1.28172 -2.4352,-14.40414 -2.4352,-14.40408 7.58109,-1.28165 7.58108,-1.28173 -1.40991,-8.33925 -1.40985,-8.33918 7.58109,-1.28166 7.58115,-1.28179 5.12677,30.32441 5.12684,30.32448 -7.58109,1.28165 -7.58115,1.28173 3.9733,23.50142 3.97329,23.50142 7.58109,-1.28173 7.58115,-1.28166 -1.28172,-7.58115 -1.28173,-7.58109 7.58109,-1.28165 7.58108,-1.28173 -1.28166,-7.58115 -1.28172,-7.58109 7.58115,-1.28173 7.58109,-1.28165 -1.40992,-8.33918 -1.40984,-8.33925 -7.58109,1.28166 -7.58115,1.28172 -1.28166,-7.58108 -1.28172,-7.58109 7.58115,-1.28172 7.58102,-1.28166 -1.28173,-7.58116 -1.28166,-7.58115 -7.58108,1.28173 -7.58109,1.28172 -2.56338,-15.16217 -2.56346,-15.16224 15.16217,-2.56338 15.16224,-2.56338 1.40992,8.33918 1.40984,8.33924 -7.58115,1.28166 -7.58109,1.28173 1.15354,6.82299 1.15354,6.82292 7.58109,-1.28166 7.58115,-1.28172 1.28173,7.58115 1.28165,7.58115 -7.58108,1.28166 -7.58115,1.28173 1.28165,7.58101 1.2818,7.58116 7.58108,-1.28173 7.58116,-1.28173 5.25495,31.08258 5.25496,31.0825 -15.16217,2.56339 -15.16224,2.56338 1.28172,7.58115 1.28166,7.58109 -7.58108,1.28173 -7.58102,1.28172 1.28166,7.58109 1.28173,7.58108 7.58101,-1.28172 7.58116,-1.28166 1.28172,7.58108 1.28166,7.58109 7.58108,-1.28166 7.58116,-1.28173 -1.28173,-7.58108 -1.28166,-7.58109 15.16217,-2.56345 15.16217,-2.56338 -2.56338,-15.16217 -2.56345,-15.16231 22.74332,-3.84504 22.7434,-3.84518 1.28165,7.58115 1.28173,7.58116 7.58115,-1.28173 7.58102,-1.28166 -1.28173,-7.58115 -1.28172,-7.58116 14.40414,-2.43519 14.40408,-2.43527 1.28172,7.58115 1.28166,7.58109 7.58115,-1.28173 7.58109,-1.28166 5.12684,30.32434 5.12683,30.32441 -7.58115,1.28173 -7.58109,1.28166 2.56339,15.16224 2.56345,15.16224 7.58109,-1.28166 7.58115,-1.28173 4.99858,29.56625 4.99872,29.56631 -7.58115,1.28173 -7.58116,1.28166 -1.15354,-6.82292 -1.15347,-6.82307 -7.58108,1.2818 -7.58116,1.28166 1.15354,6.82299 1.15354,6.82292 -14.40414,2.43527 -14.40408,2.43526 2.56346,15.16224 2.56338,15.1621 -15.16224,2.56346 -15.16217,2.56338 -1.28172,-7.58108 -1.28173,-7.58109 -15.1621,2.56345 -15.16224,2.56339 1.28173,7.58101 1.28165,7.58116 -15.16224,2.56338 -15.1621,2.56346 -1.28179,-7.58116 -1.28166,-7.58101 15.16217,-2.56339 15.16224,-2.56345 -1.28166,-7.58109 -1.28179,-7.58115 -7.58109,1.28173 -7.58115,1.28165 -1.15347,-6.82292 -1.15354,-6.82299 -7.58109,1.28166 -7.58108,1.28173 1.15347,6.82299 1.15361,6.82292 -7.58116,1.28172 -7.58108,1.28166 1.28172,7.58122 1.28166,7.58109 -7.58108,1.28166 -7.58109,1.28179 1.28166,7.58102 1.28172,7.58115 -7.58101,1.28166 -7.58122,1.28173 -2.56339,-15.16217 z m 101.13675,-47.51021 -2.4352,-14.40408 -7.58108,1.28166 -7.58109,1.28172 -1.28173,-7.58108 -1.28172,-7.58108 15.16217,-2.56346 15.16231,-2.56338 -1.28173,-7.58116 -1.28166,-7.58101 -7.58115,1.28165 -7.58116,1.2818 -1.28165,-7.58115 -1.28173,-7.58116 15.16224,-2.56338 15.16217,-2.56339 5.12684,30.32441 5.12683,30.32441 14.40408,-2.43519 14.40407,-2.43527 -1.28165,-7.58116 -1.28173,-7.58108 7.58108,-1.28173 7.58109,-1.28165 -2.56338,-15.16224 -2.56339,-15.16217 -14.40407,2.43526 -14.40415,2.4352 -1.28172,-7.58108 -1.28166,-7.58109 6.82299,-1.15361 6.82292,-1.15347 -1.28166,-7.58108 -1.28172,-7.58116 7.58115,-1.28166 7.58108,-1.28179 -5.12683,-30.32434 -5.12684,-30.32441 -14.40408,2.43527 -14.40407,2.43526 1.28166,7.58102 1.28172,7.58108 -7.58101,1.28173 -7.58123,1.28173 -1.28165,-7.58116 -1.28166,-7.58101 -7.58116,1.28165 -7.58108,1.28173 1.28173,7.58108 1.28172,7.58109 -15.16224,2.56345 -15.16224,2.56339 1.28173,7.58108 1.28166,7.58109 -15.1621,2.56338 -15.16224,2.56345 1.28166,7.58109 1.28172,7.58115 -7.58108,1.28166 -7.58109,1.28173 -1.28172,-7.58116 -1.28173,-7.58108 -7.58109,1.28173 -7.58108,1.28165 -1.28173,-7.58101 -1.28165,-7.58116 -7.58109,1.28173 -7.58115,1.28173 -2.56339,-15.16224 -2.56345,-15.16224 -7.58109,1.28165 -7.58115,1.2818 1.2818,7.58109 1.28165,7.58108 -15.16217,2.56345 -15.16224,2.56339 1.28166,7.58108 1.28173,7.58109 15.16231,-2.56339 15.1621,-2.56338 1.28179,7.58115 1.28166,7.58102 15.16217,-2.56338 15.16224,-2.56346 1.28166,7.58116 1.28179,7.58108 7.58102,-1.28166 7.58115,-1.28172 1.28173,7.58108 1.28166,7.58109 7.58108,-1.28173 7.58109,-1.28166 1.28172,7.58109 1.28166,7.58108 -15.16217,2.56339 -15.16217,2.56345 1.28173,7.58109 1.28172,7.58115 22.74326,-3.84511 22.74332,-3.84511 -1.28172,-7.58116 -1.28166,-7.58115 7.58101,-1.28166 7.58116,-1.28172 2.56338,15.16231 2.56339,15.16217 -15.1621,2.56338 -15.16231,2.56338 2.56338,15.16217 2.56346,15.16231 7.58108,-1.28172 7.58116,-1.28166 1.15354,6.82292 1.15347,6.82299 15.16224,-2.56339 15.16216,-2.56338 -2.43526,-14.40414 z m -59.45718,-74.94376 -1.28166,-7.58109 7.58116,-1.28172 7.58108,-1.28166 1.28166,7.58102 1.28173,7.58115 -7.58109,1.28166 -7.58115,1.28172 -1.28173,-7.58108 z m 30.32448,-5.12684 -1.28173,-7.58108 7.58109,-1.28173 7.58115,-1.28166 -1.2818,-7.58115 -1.28165,-7.58116 22.74325,-3.84504 22.7434,-3.84511 1.28165,7.58116 1.28173,7.58108 -7.58108,1.28166 -7.58116,1.28173 1.28173,7.58108 1.28172,7.58108 -7.58115,1.28173 -7.58102,1.28166 -1.28172,-7.58109 -1.28166,-7.58101 -7.58115,1.28166 -7.58109,1.28172 1.28166,7.58109 1.28173,7.58108 -7.58109,1.28173 -7.58115,1.28166 -1.28166,-7.58109 z m -47.83176,86.0646 -1.28173,-7.58109 -7.58115,1.28173 -7.58109,1.28165 1.28173,7.58116 1.28166,7.58115 7.58115,-1.28172 7.58109,-1.28166 -1.28166,-7.58122 z m -60.86709,-83.28294 -1.28166,-7.58116 -15.16231,2.56346 -15.16217,2.56338 1.28173,7.58116 1.28173,7.58108 15.16216,-2.56338 15.16224,-2.56346 -1.28172,-7.58108 z m 62.99393,-88.62805 -1.28166,-7.58108 -7.58102,1.28172 -7.58122,1.28166 1.28173,7.58109 1.28172,7.58115 7.58116,-1.2818 7.58101,-1.28165 -1.28172,-7.58109 z m 140.25063,193.06708 -1.28173,-7.58108 7.58115,-1.28166 7.58102,-1.28172 1.28172,7.58108 1.28173,7.58115 -7.58108,1.28166 -7.58109,1.28173 -1.28172,-7.58116 z m -331.53169,-208.29463 -9.10006,-53.82576 53.82583,-9.10007 53.82583,-9.1002 9.10013,53.82583 9.10007,53.82583 -53.82583,9.10013 -53.82583,9.10007 -9.10014,-53.82583 z m 92.61761,-14.87865 -6.4085,-37.9055 -37.90549,6.40857 -37.9055,6.40849 6.4085,37.90549 6.40856,37.90557 37.9055,-6.40857 37.90549,-6.40849 -6.40856,-37.90556 z m -62.2932,9.75181 -3.97322,-23.50135 23.50141,-3.97337 23.50135,-3.97322 3.97337,23.50141 3.97323,23.50142 -23.50142,3.9733 -23.50142,3.9733 -3.9733,-23.50149 z m 183.46272,-31.01719 -9.10007,-53.82576 52.30957,-8.84383 52.30964,-8.84369 9.10007,53.82576 9.10006,53.82583 -52.30957,8.84383 -52.30964,8.84369 -9.10006,-53.82583 z m 89.58515,-14.36597 -6.40856,-37.9055 -37.14733,6.28031 -37.14747,6.28038 6.40856,37.90549 6.4085,37.9055 37.14747,-6.28031 37.14733,-6.28031 -6.4085,-37.90556 z m -59.26074,9.23913 -3.9733,-23.50142 21.98523,-3.71692 21.98516,-3.71692 3.9733,23.50141 3.97329,23.50135 -21.98523,3.717 -21.98516,3.71692 -3.97329,-23.50142 z"
       id="path6309-3"
       inkscape:connector-curvature="0" />
    <g
       style="font-size:220.81851196px;font-style:normal;font-weight:normal;line-height:125%;letter-spacing:0px;word-spacing:0px;fill:#fff8c1;fill-opacity:1;stroke:none;font-family:Sans"
       id="text6110-1-8-2" />
  </g>
</svg>
