<?xml version="1.0" encoding="UTF-8" standalone="no"?>
<!-- Created with Inkscape (http://www.inkscape.org/) -->

<svg
   xmlns:dc="http://purl.org/dc/elements/1.1/"
   xmlns:cc="http://creativecommons.org/ns#"
   xmlns:rdf="http://www.w3.org/1999/02/22-rdf-syntax-ns#"
   xmlns:svg="http://www.w3.org/2000/svg"
   xmlns="http://www.w3.org/2000/svg"
   xmlns:xlink="http://www.w3.org/1999/xlink"
   xmlns:inkscape="http://www.inkscape.org/namespaces/inkscape"
   version="1.1"
   width="256"
   height="256"
   id="svg2">
  <title
     id="title3063">Tango-style Quake I and II logos</title>
  <defs
     id="defs4">
    <linearGradient
       id="linearGradient3947">
      <stop
         id="stop3949"
         style="stop-color:#3a5a1e;stop-opacity:1"
         offset="0" />
      <stop
         id="stop3957"
         style="stop-color:#73ae3a;stop-opacity:1"
         offset="0.25" />
      <stop
         id="stop3955"
         style="stop-color:#3a5a1e;stop-opacity:1"
         offset="0.75" />
      <stop
         id="stop3951"
         style="stop-color:#3a5a1e;stop-opacity:1"
         offset="1" />
    </linearGradient>
    <linearGradient
       x1="-1.5"
       y1="128"
       x2="257.5"
       y2="128"
       id="linearGradient3953"
       xlink:href="#linearGradient3947"
       gradientUnits="userSpaceOnUse"
       gradientTransform="translate(445.03234,608.52113)" />
    <linearGradient
       x1="-1.5"
       y1="128"
       x2="257.5"
       y2="128"
       id="linearGradient3953-4"
       xlink:href="#linearGradient3947-3"
       gradientUnits="userSpaceOnUse"
       gradientTransform="translate(445.03234,608.52113)" />
    <linearGradient
       id="linearGradient3947-3">
      <stop
         id="stop3949-0"
         style="stop-color:#999984;stop-opacity:1"
         offset="0" />
      <stop
         id="stop3957-7"
         style="stop-color:#dede95;stop-opacity:1"
         offset="0.25" />
      <stop
         id="stop3955-8"
         style="stop-color:#999984;stop-opacity:1"
         offset="0.75" />
      <stop
         id="stop3951-6"
         style="stop-color:#999984;stop-opacity:1"
         offset="1" />
    </linearGradient>
    <linearGradient
       x1="-1.5"
       y1="128"
       x2="257.5"
       y2="128"
       id="linearGradient4042"
       xlink:href="#linearGradient3947"
       gradientUnits="userSpaceOnUse"
       gradientTransform="matrix(0.8660254,0.5,-0.5,0.8660254,81.148743,-46.851256)" />
    <linearGradient
       x1="-1.5"
       y1="128"
       x2="257.5"
       y2="128"
       id="linearGradient4093"
       xlink:href="#linearGradient3947-3"
       gradientUnits="userSpaceOnUse"
       gradientTransform="matrix(0.8660254,0.5,-0.5,0.8660254,81.148745,-46.851255)" />
    <linearGradient
       x1="-1.5"
       y1="128"
       x2="257.5"
       y2="128"
       id="linearGradient4101"
       xlink:href="#linearGradient3947-3"
       gradientUnits="userSpaceOnUse"
       gradientTransform="matrix(0.16237976,0.09375,-0.09375,0.16237976,15.21539,199.21539)" />
    <linearGradient
       x1="-1.5"
       y1="128"
       x2="257.5"
       y2="128"
       id="linearGradient4127"
       xlink:href="#linearGradient3947-3"
       gradientUnits="userSpaceOnUse"
       gradientTransform="matrix(0.10825317,0.0625,-0.0625,0.10825317,10.143593,218.14359)" />
    <linearGradient
       x1="-1.5"
       y1="128"
       x2="257.5"
       y2="128"
       id="linearGradient4139"
       xlink:href="#linearGradient3947-3"
       gradientUnits="userSpaceOnUse"
       gradientTransform="matrix(0.07442405,0.04296875,-0.04296875,0.07442405,6.9737202,229.97372)" />
    <linearGradient
       x1="-1.5"
       y1="128"
       x2="257.5"
       y2="128"
       id="linearGradient4145"
       xlink:href="#linearGradient3947-3"
       gradientUnits="userSpaceOnUse"
       gradientTransform="matrix(0.05412658,0.03125,-0.03125,0.05412658,5.0717965,237.0718)" />
    <linearGradient
       x1="-1.5"
       y1="128"
       x2="257.5"
       y2="128"
       id="linearGradient4166"
       xlink:href="#linearGradient3947"
       gradientUnits="userSpaceOnUse"
       gradientTransform="matrix(0.16237976,0.09375,-0.09375,0.16237976,15.215389,199.21539)" />
    <linearGradient
       x1="-1.5"
       y1="128"
       x2="257.5"
       y2="128"
       id="linearGradient4173"
       xlink:href="#linearGradient3947"
       gradientUnits="userSpaceOnUse"
       gradientTransform="matrix(0.10825317,0.0625,-0.0625,0.10825317,10.143593,218.14359)" />
    <linearGradient
       x1="-1.5"
       y1="128"
       x2="257.5"
       y2="128"
       id="linearGradient4183"
       xlink:href="#linearGradient3947"
       gradientUnits="userSpaceOnUse"
       gradientTransform="matrix(0.07442406,0.04296875,-0.04296875,0.07442406,6.9737199,229.97372)" />
    <linearGradient
       x1="-1.5"
       y1="128"
       x2="257.5"
       y2="128"
       id="linearGradient4192"
       xlink:href="#linearGradient3947"
       gradientUnits="userSpaceOnUse"
       gradientTransform="matrix(0.05412659,0.03125,-0.03125,0.05412659,5.0717963,237.0718)" />
    <linearGradient
       x1="-1.5"
       y1="128"
       x2="257.5"
       y2="128"
       id="linearGradient3054"
       xlink:href="#linearGradient3947-3"
       gradientUnits="userSpaceOnUse"
       gradientTransform="matrix(0.8660254,0.5,-0.5,0.8660254,-178.85125,-22.851255)" />
    <clipPath
       id="clipPath3862">
      <path
         d="M 100,12.34375 C 71.310852,28.243604 52,57.952947 52,92 c 0,46.91303 36.648021,85.61882 84,91.28125 L 136,208 l 12,48 12,-48 0,-24.71875 C 207.35198,177.61882 244,138.91303 244,92 244,57.952947 224.68915,28.243604 196,12.34375 L 196,16 c 19.434,14.599292 32,37.82443 32,64 0,40.1057 -29.50793,73.33691 -68,79.125 L 160,112 c 2.54991,-3.69734 8.90346,-7.4041 11.1875,-8 L 160,104 l -24,0 -10.59375,0 c 2.50649,0.35039 7.74962,2.07991 10.59375,8 l 0,47.125 C 97.507928,153.33691 68,120.1057 68,80 68,53.82443 80.566002,30.599292 100,16 l 0,-3.65625 z M 125.40625,104 c -0.8355,-0.1168 -1.37019,-0.0881 -1.40625,0 l 1.40625,0 z m 45.78125,0 0.8125,0 c -0.0927,-0.12364 -0.38953,-0.11035 -0.8125,0 z"
         inkscape:connector-curvature="0"
         id="path3864"
         style="color:#000000;fill:none;stroke:#241703;stroke-width:3;stroke-linecap:butt;stroke-linejoin:miter;stroke-miterlimit:4;stroke-opacity:1;stroke-dasharray:none;stroke-dashoffset:0;marker:none;visibility:visible;display:inline;overflow:visible;enable-background:accumulate" />
    </clipPath>
    <clipPath
       id="clipPath3954">
      <path
         d="M 120,12.34375 C 91.310852,28.243604 72,57.952947 72,92 c 0,41.47923 28.63424,76.55017 68,88.03125 L 140,208 l 12,48 12,-48 0,-24.09375 c 1.32891,0.0523 2.65768,0.0937 4,0.0937 1.34232,0 2.67109,-0.0415 4,-0.0937 L 172,208 l 12,48 12,-48 0,-27.96875 C 235.36576,168.55017 264,133.47923 264,92 264,57.952947 244.68915,28.243604 216,12.34375 L 216,16 c 19.434,14.599292 32,37.82443 32,64 0,34.32876 -21.63147,63.6164 -52,74.96875 L 196,112 c 2.54991,-3.69734 8.90346,-7.4041 11.1875,-8 L 196,104 l -20,0 c -0.0927,-0.12364 -0.38953,-0.11035 -0.8125,0 L 164,104 l -2.59375,0 c -0.8355,-0.1168 -1.37019,-0.0881 -1.40625,0 l -30.59375,0 c 2.50649,0.35039 7.74962,2.07991 10.59375,8 l 0,42.96875 C 109.63147,143.6164 88,114.32876 88,80 88,53.82443 100.566,30.599292 120,16 l 0,-3.65625 z M 129.40625,104 c -0.8355,-0.1168 -1.37019,-0.0881 -1.40625,0 l 1.40625,0 z m 77.78125,0 0.8125,0 c -0.0927,-0.12364 -0.38953,-0.11035 -0.8125,0 z m -38.46875,3.53125 c 1.22623,1.12709 2.376,2.58446 3.28125,4.46875 l 0,47.90625 c -1.32278,0.065 -2.66109,0.0937 -4,0.0937 -1.33891,0 -2.67722,-0.0287 -4,-0.0937 L 164,112 c 1.08385,-1.57157 2.86223,-3.13133 4.71875,-4.46875 z"
         inkscape:connector-curvature="0"
         id="path3956"
         style="color:#000000;fill:none;stroke:#132601;stroke-width:3;stroke-linecap:butt;stroke-linejoin:miter;stroke-miterlimit:4;stroke-opacity:1;stroke-dasharray:none;stroke-dashoffset:0;marker:none;visibility:visible;display:inline;overflow:visible;enable-background:accumulate" />
    </clipPath>
    <clipPath
       id="clipPath3984">
      <path
         d="M 40,12.34375 C 11.310852,28.243604 -8,57.952947 -8,92 c 0,41.47923 28.634235,76.55017 68,88.03125 L 60,208 l 12,48 12,-48 0,-24.09375 c 1.32891,0.0523 2.65768,0.0937 4,0.0937 1.34232,0 2.67109,-0.0415 4,-0.0937 L 92,208 l 12,48 12,-48 0,-27.96875 C 155.36576,168.55017 184,133.47923 184,92 184,57.952947 164.68915,28.243604 136,12.34375 L 136,16 c 19.434,14.599292 32,37.82443 32,64 0,34.32876 -21.63147,63.6164 -52,74.96875 L 116,112 c 2.54991,-3.69734 8.90346,-7.4041 11.1875,-8 L 116,104 96,104 c -0.0927,-0.12364 -0.38953,-0.11035 -0.8125,0 L 84,104 81.40625,104 C 80.57075,103.8832 80.03606,103.9119 80,104 l -30.59375,0 c 2.506492,0.35039 7.749623,2.07991 10.59375,8 l 0,42.96875 C 29.631471,143.6164 8,114.32876 8,80 8,53.82443 20.566002,30.599292 40,16 l 0,-3.65625 z M 49.40625,104 C 48.570753,103.8832 48.036057,103.91186 48,104 l 1.40625,0 z m 77.78125,0 0.8125,0 c -0.0927,-0.12364 -0.38953,-0.11035 -0.8125,0 z m -38.46875,3.53125 C 89.94498,108.65834 91.09475,110.11571 92,112 l 0,47.90625 c -1.32278,0.065 -2.66109,0.0937 -4,0.0937 -1.33891,0 -2.67722,-0.0287 -4,-0.0937 L 84,112 c 1.08385,-1.57157 2.86223,-3.13133 4.71875,-4.46875 z"
         inkscape:connector-curvature="0"
         id="path3986"
         style="color:#000000;fill:none;stroke:#132601;stroke-width:3;stroke-linecap:butt;stroke-linejoin:miter;stroke-miterlimit:4;stroke-opacity:1;stroke-dasharray:none;stroke-dashoffset:0;marker:none;visibility:visible;display:inline;overflow:visible;enable-background:accumulate" />
    </clipPath>
    <filter
       color-interpolation-filters="sRGB"
       id="filter3896">
      <feGaussianBlur
         id="feGaussianBlur3898"
         stdDeviation="2.1782812" />
    </filter>
    <filter
       color-interpolation-filters="sRGB"
       id="filter3900">
      <feGaussianBlur
         id="feGaussianBlur3902"
         stdDeviation="2.1782812" />
    </filter>
  </defs>
  <metadata
     id="metadata7">
    <rdf:RDF>
      <cc:Work
         rdf:about="">
        <dc:format>image/svg+xml</dc:format>
        <dc:type
           rdf:resource="http://purl.org/dc/dcmitype/StillImage" />
        <dc:title>Tango-style Quake I and II logos</dc:title>
        <cc:license
           rdf:resource="data:text/plain,Redistribution%20and%20use%20in%20source%20and%20compiled%20forms%2C%20with%20or%20without%20modification%2C%20are%20permitted%20under%20any%20circumstances.%20No%20warranty." />
        <dc:date>2011-07-08</dc:date>
        <dc:creator>
          <cc:Agent>
            <dc:title>Simon McVittie</dc:title>
          </cc:Agent>
        </dc:creator>
        <dc:description>Based on the Tango colour palette and &lt;http://tango.freedesktop.org/Tango_Icon_Theme_Guidelines&gt;. Quake I and II box art on Wikipedia was used as a rough guide for the shape, but was not traced.</dc:description>
      </cc:Work>
    </rdf:RDF>
  </metadata>
  <g
     id="layer-quake-256"
     style="display:inline">
    <path
       d="M 80,12.34375 C 51.310852,28.243604 32,57.952947 32,92 c 0,46.91303 36.648021,85.61882 84,91.28125 L 116,208 l 12,48 12,-48 0,-24.71875 C 187.35198,177.61882 224,138.91303 224,92 224,57.952947 204.68915,28.243604 176,12.34375 L 176,16 c 19.434,14.599292 32,37.82443 32,64 0,40.1057 -29.50793,73.33691 -68,79.125 L 140,112 c 2.54991,-3.69734 8.90346,-7.4041 11.1875,-8 L 140,104 l -24,0 -10.59375,0 c 2.50649,0.35039 7.74962,2.07991 10.59375,8 l 0,47.125 C 77.507928,153.33691 48,120.1057 48,80 48,53.82443 60.566002,30.599292 80,16 l 0,-3.65625 z M 105.40625,104 c -0.8355,-0.1168 -1.37019,-0.0881 -1.40625,0 l 1.40625,0 z m 45.78125,0 0.8125,0 c -0.0927,-0.12364 -0.38953,-0.11035 -0.8125,0 z"
       inkscape:connector-curvature="0"
       id="rect3999"
       style="color:#000000;fill:url(#linearGradient4093);fill-opacity:1;fill-rule:nonzero;stroke:#403f31;stroke-width:3;stroke-linecap:butt;stroke-linejoin:miter;stroke-miterlimit:4;stroke-opacity:1;stroke-dasharray:none;stroke-dashoffset:0;marker:none;visibility:visible;display:inline;overflow:visible;enable-background:accumulate" />
    <path
       d="M 100,12.34375 C 71.310852,28.243604 52,57.952947 52,92 c 0,46.91303 36.648021,85.61882 84,91.28125 L 136,208 l 12,48 12,-48 0,-24.71875 C 207.35198,177.61882 244,138.91303 244,92 244,57.952947 224.68915,28.243604 196,12.34375 L 196,16 c 19.434,14.599292 32,37.82443 32,64 0,40.1057 -29.50793,73.33691 -68,79.125 L 160,112 c 2.54991,-3.69734 8.90346,-7.4041 11.1875,-8 L 160,104 l -24,0 -10.59375,0 c 2.50649,0.35039 7.74962,2.07991 10.59375,8 l 0,47.125 C 97.507928,153.33691 68,120.1057 68,80 68,53.82443 80.566002,30.599292 100,16 l 0,-3.65625 z M 125.40625,104 c -0.8355,-0.1168 -1.37019,-0.0881 -1.40625,0 l 1.40625,0 z m 45.78125,0 0.8125,0 c -0.0927,-0.12364 -0.38953,-0.11035 -0.8125,0 z"
       inkscape:connector-curvature="0"
       transform="translate(-20,0)"
       clip-path="url(#clipPath3862)"
       id="path3832"
       style="color:#000000;fill:none;stroke:#dede95;stroke-width:3;stroke-linecap:butt;stroke-linejoin:miter;stroke-miterlimit:4;stroke-opacity:1;stroke-dasharray:none;stroke-dashoffset:0;marker:none;visibility:visible;display:inline;overflow:visible;filter:url(#filter3896);enable-background:accumulate" />
  </g>
</svg>
