<?xml version="1.0" encoding="utf-8"?>
<!-- Generator: Adobe Illustrator 14.0.0, SVG Export Plug-In . SVG Version: 6.00 Build 43363)  -->
<!DOCTYPE svg PUBLIC "-//W3C//DTD SVG 1.1//EN" "http://www.w3.org/Graphics/SVG/1.1/DTD/svg11.dtd">
<svg version="1.1" id="Layer_1" xmlns="http://www.w3.org/2000/svg" xmlns:xlink="http://www.w3.org/1999/xlink" x="0px" y="0px"
	 width="640px" height="480px" viewBox="0 0 640 480" enable-background="new 0 0 640 480" xml:space="preserve">
<g>
	<polygon fill="#0566B3" points="485.457,48.991 86.213,48.991 86.213,432.386 490.73,325.476 	"/>
	<polygon fill="#FFFFFF" points="470.249,64.263 112.917,69.884 112.917,397.735 358.633,338.07 468.85,170.97 	"/>
	
		<linearGradient id="SVGID_1_" gradientUnits="userSpaceOnUse" x1="186.0063" y1="152.103" x2="306.9214" y2="269.8599" gradientTransform="matrix(1 0.051 0 1 0 -21.3914)">
		<stop  offset="0" style="stop-color:#36C2FF"/>
		<stop  offset="1" style="stop-color:#0080C7"/>
	</linearGradient>
	<path fill="url(#SVGID_1_)" d="M189.086,191.042c-7.876,1.197-14.364,7.998-14.468,15.174c-0.093,7.159,6.21,11.993,14.121,10.779
		c7.888-1.203,14.387-7.998,14.468-15.174C203.323,194.656,196.997,189.821,189.086,191.042z M210.724,191.481l-0.254,18.429
		l169.755-25.999l0.255-18.418L210.724,191.481z M188.461,236.262c-7.899,1.214-14.399,8.015-14.492,15.174
		c-0.104,7.17,6.222,12.005,14.11,10.802c7.899-1.215,14.387-8.003,14.491-15.186C202.675,239.882,196.36,235.059,188.461,236.262z
		 M209.822,255.159l169.767-25.999l0.254-18.429l-169.754,25.981L209.822,255.159z M187.813,281.493
		c-7.899,1.215-14.387,8.015-14.491,15.174c-0.092,7.193,6.21,12.005,14.121,10.79c7.888-1.202,14.387-7.991,14.491-15.15
		C202.027,285.125,195.701,280.291,187.813,281.493z M209.186,300.38l169.732-25.999l0.266-18.446l-169.743,26.01L209.186,300.38z"
		/>
	<g>
		<radialGradient id="SVGID_2_" cx="373.834" cy="235.3271" r="302.951" gradientUnits="userSpaceOnUse">
			<stop  offset="0" style="stop-color:#B3FFFF"/>
			<stop  offset="0.4505" style="stop-color:#078AE1"/>
			<stop  offset="1" style="stop-color:#0024AB"/>
		</radialGradient>
		<path fill="url(#SVGID_2_)" d="M554.224,270.865c0,69.241-56.138,125.379-125.379,125.379
			c-69.253,0-125.378-56.138-125.378-125.379c0-69.242,56.125-125.391,125.378-125.391
			C498.086,145.475,554.224,201.624,554.224,270.865z"/>
		<radialGradient id="SVGID_3_" cx="428.5928" cy="266.2188" r="146.0269" gradientUnits="userSpaceOnUse">
			<stop  offset="0.4011" style="stop-color:#FFFFFF"/>
			<stop  offset="0.6813" style="stop-color:#A1E8E8"/>
			<stop  offset="1" style="stop-color:#0070A1"/>
		</radialGradient>
		<path fill="url(#SVGID_3_)" d="M554.224,270.865c0,69.241-56.138,125.379-125.379,125.379
			c-69.253,0-125.378-56.138-125.378-125.379c0-69.242,56.125-125.391,125.378-125.391
			C498.086,145.475,554.224,201.624,554.224,270.865z"/>
		<radialGradient id="SVGID_4_" cx="388.8057" cy="252.6543" r="270.0541" gradientUnits="userSpaceOnUse">
			<stop  offset="0" style="stop-color:#FFFFFF"/>
			<stop  offset="1" style="stop-color:#000000"/>
		</radialGradient>
		<path fill="url(#SVGID_4_)" d="M526.005,196.257c-1.411,0.226-3.146,0.619-5.031,1.365c-4.232,1.688-5.898,1.706-10.131,3.805
			c-4.21,2.11-4.21,2.11-7.159,6.309c-2.961,4.227-5.909,3.799-5.909,8.454c0,4.621,4.638,9.27,8.858,13.502
			c4.21,4.21,4.638,3.377,5.471,10.964c0.855,7.587,6.766,8.42,8.038,14.329c1.26,5.922,1.677,8.004,2.521,12.225
			c0.845,4.233,2.128,7.61,4.649,9.299c2.51,1.688-10.57,4.21,5.043,4.21c10.836,0,16.734-1.619,20.065-2.892
			c0.034-1.504,0.22-2.961,0.22-4.476C552.64,244.253,542.636,217.526,526.005,196.257z M503.244,352.862
			c-4.198,2.094-6.314,0.833-8.003-1.688s-7.171,2.094-1.688-3.805c5.493-5.898,2.949-13.092,5.493-14.757
			c2.521-1.689,6.731-5.066,2.938-9.275c-3.793-4.233-7.587-5.066-8.015,0.428c-0.416,5.47,1.677,8.431-0.855,10.964
			c-2.521,2.521-2.521,2.521-4.638,2.521c-2.094,0-5.043,0.012-7.991-2.521c-2.949-2.533-0.856-5.055-7.183-4.638
			c-6.326,0.416-2.961-12.676-15.613-1.688c-12.652,10.952-12.225,11.38-17.29,13.068c-5.054,1.688-9.275,0-10.119-2.532
			c-0.845-2.545,2.521-5.066-1.261-7.183c-3.805-2.093-6.35-3.781-6.35,2.545s7.183,12.224,7.183,12.224s1.271,3.389,0.428,8.026
			c-0.845,4.638-4.233,13.913,7.17,15.613c11.393,1.688,12.225-2.521,13.913,1.688s1.261,8.42,10.964,8.42
			c9.715,0,5.922-9.681,8.026-2.949c2.105,6.754,2.938,6.754,3.366,12.247c0,0.047-0.023,0.116,0,0.162
			c15.612-6.222,29.676-15.463,41.473-27.063C511.56,357.315,506.298,351.324,503.244,352.862z M438.306,157.543
			c0,3.377-2.545-1.689,1.261,5.065c3.781,6.748,5.897,10.125,5.897,10.125h3.806c0,0,1.249,2.539,5.47,2.539
			c4.233,0,7.599-2.967,5.91,0.838c-1.677,3.799-2.104,5.488-5.054,6.748c-2.949,1.261-2.116,2.949-5.898,2.949
			c-3.805,0-7.182,0.85-8.038,2.967c-0.833,2.099-5.47,4.638-3.354,7.997c2.093,3.377,5.03,4.227,7.158,8.026
			c2.117,3.788,12.236,6.737,12.236,3.788s2.938-5.048-0.416-8.847c-3.377-3.805-3.377-6.326-0.428-5.898
			c2.949,0.405,4.638,0.833,5.909-2.117c1.249-2.949,1.249-7.176,3.794-6.748c2.532,0.411,5.054-5.904,7.17-2.117
			c2.117,3.799-0.428,6.754,6.755,9.704c7.158,2.949,16.018,2.949,18.979-0.411c2.96-3.377,9.286-2.539,12.235-4.227
			c1.076-0.607,2.094-2.313,3.354-4.013c-22.622-22.2-53.594-35.933-87.792-35.933c-0.752,0-1.504,0.092-2.278,0.11
			c0.752,0.561,1.596,1.168,2.752,1.868C434.072,153.761,438.306,154.171,438.306,157.543z M431.123,262.168
			c2.949-3.377,5.055-5.065,5.898-10.548c0.845-5.481,0.845-9.703,0.845-12.652s3.793-6.349,3.793-7.586
			c0-1.261-1.261-8.015-3.793-8.015c-2.521,0-2.521,3.782-7.159,0c-4.661-3.805-10.559-11.392-11.819-3.377
			c-1.261,8.003,0.832,6.731-0.429,13.081c-1.26,6.326-4.209,6.326-7.586,3.782c-3.377-2.521-8.455-3.782-8.859-7.159
			c-0.416-3.388-2.104-5.065,5.065-9.292c7.171-4.21,10.952-3.377,8.859-7.176c-2.116-3.788,2.521-10.114-6.338-8.425
			c-8.848,1.688-7.183-1.261-11.392,2.938c-4.21,4.239-10.548,5.488-12.652,5.488c-2.105,0,5.898-2.099-2.105,0
			c-8.003,2.111-5.042-4.62-8.003,2.111c-2.961,6.748-1.7,6.748-5.91,9.292c-4.221,2.521-3.793,0.833-9.703,4.638
			c-5.921,3.805-10.131,13.058-12.652,14.341c-2.532,1.272-10.548,5.91,0,8.859c10.536,2.949,13.497,1.688,11.797,8.442
			c-1.688,6.731-2.926,7.991-2.094,13.068c0.833,5.066,1.55,13.659,3.794,15.602c1.145,1.007,2.51,1.261,2.51,1.261
			s6.349,1.261,7.193,6.326c0.844,5.077-0.012,5.065,2.104,9.299c2.105,4.222,4.21,5.054,8.432,6.314
			c4.209,1.272,10.964,0.855,12.652,2.949c1.688,2.116,5.921,2.961,6.338,5.493c0.416,2.545,0.416,2.521,2.104,5.055
			c1.688,2.532,13.068,13.104,12.236,4.648c-0.856-8.442-0.428-14.769-5.91-17.718s-12.652-6.326-15.602-8.858
			c-2.949-2.521-2.949-5.055,2.521-9.275c5.493-4.233,5.493-7.599,13.08-7.183c7.599,0.439,7.171,5.077,11.809-0.404
			c4.637-5.494,2.948-4.244,4.637-12.236C426.485,267.233,428.174,265.521,431.123,262.168z"/>
		<radialGradient id="SVGID_5_" cx="369.1572" cy="232.0425" r="277.4824" gradientUnits="userSpaceOnUse">
			<stop  offset="0" style="stop-color:#FFFFFF"/>
			<stop  offset="0.4451" style="stop-color:#8ADB00"/>
			<stop  offset="1" style="stop-color:#008200"/>
		</radialGradient>
		<path fill="url(#SVGID_5_)" d="M527.589,193.759c-1.422,0.243-3.146,0.625-5.03,1.371c-4.233,1.688-5.91,1.688-10.132,3.799
			c-4.232,2.099-4.232,2.116-7.182,6.343c-2.949,4.192-5.898,3.782-5.898,8.419c0,4.655,4.638,9.293,8.848,13.502
			c4.232,4.21,4.638,3.377,5.493,10.964c0.856,7.587,6.766,8.42,8.026,14.341c1.261,5.91,1.688,8.015,2.521,12.225
			c0.855,4.222,2.116,7.599,4.638,9.287c2.533,1.688-10.548,4.232,5.065,4.232c10.825,0,16.724-1.619,20.054-2.914
			c0.047-1.504,0.231-2.949,0.231-4.464C554.224,241.767,544.22,215.045,527.589,193.759z M504.829,350.364
			c-4.222,2.116-6.315,0.845-8.004-1.688c-1.688-2.521-7.17,2.116-1.688-3.793c5.471-5.898,2.949-13.08,5.471-14.77
			c2.544-1.665,6.754-5.065,2.949-9.274c-3.782-4.21-7.599-5.066-8.003,0.428c-0.417,5.493,1.665,8.442-0.856,10.964
			c-2.521,2.521-2.521,2.521-4.638,2.521c-2.093,0-5.042,0.012-7.991-2.521c-2.973-2.521-0.855-5.055-7.182-4.638
			c-6.338,0.428-2.961-12.652-15.613-1.688c-12.652,10.976-12.213,11.392-17.29,13.08c-5.065,1.688-9.275,0-10.132-2.545
			c-0.832-2.521,2.533-5.065-1.26-7.158c-3.794-2.116-6.338-3.806-6.338,2.521c0,6.337,7.182,12.235,7.182,12.235
			s1.272,3.377,0.416,8.015c-0.832,4.638-4.221,13.925,7.171,15.613c11.403,1.688,12.236-2.521,13.925,1.688
			c1.688,4.222,1.261,8.442,10.964,8.442c9.715,0,5.909-9.703,8.026-2.96c2.093,6.742,2.938,6.742,3.365,12.235
			c0,0.059-0.023,0.116,0,0.162c15.613-6.21,29.677-15.463,41.473-27.039C513.121,354.84,507.882,348.85,504.829,350.364z
			 M439.89,155.068c0,3.371-2.544-1.706,1.237,5.048c3.806,6.748,5.922,10.137,5.922,10.137h3.805c0,0,1.237,2.51,5.471,2.51
			c4.221,0,7.599-2.949,5.91,0.85c-1.689,3.805-2.117,5.493-5.066,6.754c-2.949,1.278-2.104,2.967-5.909,2.967
			c-3.782,0-7.159,0.833-8.015,2.949c-0.845,2.099-5.471,4.638-3.354,8.009c2.094,3.359,5.031,4.215,7.159,8.015
			c2.116,3.788,12.236,6.737,12.236,3.788s2.938-5.065-0.429-8.853c-3.365-3.799-3.365-6.321-0.416-5.91
			c2.949,0.422,4.638,0.85,5.898-2.099s1.261-7.176,3.793-6.766c2.545,0.422,5.066-5.898,7.183-2.099
			c2.093,3.788-0.428,6.749,6.754,9.698c7.159,2.955,16.018,2.955,18.967-0.422c2.973-3.36,9.299-2.527,12.248-4.215
			c1.063-0.607,2.093-2.296,3.354-4.013c-22.621-22.2-53.593-35.939-87.792-35.939c-0.774,0-1.503,0.121-2.278,0.133
			c0.74,0.549,1.597,1.156,2.753,1.856C435.657,151.263,439.89,151.673,439.89,155.068z M432.708,259.67
			c2.949-3.377,5.054-5.054,5.898-10.536c0.844-5.481,0.844-9.715,0.844-12.664s3.794-6.326,3.794-7.587
			c0-1.26-1.261-8.026-3.794-8.026c-2.532,0-2.532,3.805-7.17,0c-4.649-3.788-10.56-11.392-11.809-3.36
			c-1.283,8.009,0.833,6.749-0.428,13.075s-4.21,6.326-7.587,3.782c-3.377-2.521-8.442-3.771-8.859-7.147
			c-0.428-3.389-2.104-5.077,5.055-9.287c7.182-4.227,10.964-3.371,8.848-7.176c-2.094-3.782,2.532-10.125-6.315-8.437
			c-8.858,1.688-7.17-1.278-11.392,2.966c-4.21,4.192-10.559,5.471-12.652,5.471c-2.116,0,5.898-2.111-2.116,0
			c-7.991,2.116-5.031-4.638-7.991,2.116c-2.973,6.737-1.7,6.749-5.922,9.27c-4.21,2.533-3.782,0.856-9.691,4.638
			c-5.922,3.805-10.132,13.08-12.652,14.341c-2.545,1.284-10.56,5.91,0,8.871c10.535,2.948,13.484,1.677,11.808,8.431
			c-1.7,6.754-2.949,8.015-2.104,13.08c0.832,5.065,1.723,13.45,3.781,15.613c1.053,1.075,2.521,1.261,2.521,1.261
			s6.338,1.249,7.182,6.326c0.845,5.065-0.022,5.065,2.105,9.275c2.116,4.221,4.221,5.077,8.442,6.326
			c4.21,1.261,10.964,0.844,12.652,2.949c1.688,2.116,5.91,2.961,6.326,5.481c0.428,2.545,0.428,2.533,2.116,5.065
			c1.678,2.545,13.069,13.093,12.236,4.661c-0.855-8.454-0.428-14.78-5.921-17.729c-5.482-2.949-12.642-6.326-15.591-8.848
			c-2.972-2.544-2.972-5.065,2.521-9.298c5.482-4.21,5.482-7.599,13.069-7.159c7.587,0.416,7.182,5.065,11.819-0.428
			c4.638-5.482,2.949-4.222,4.638-12.236C428.07,264.735,429.759,263.035,432.708,259.67z"/>
		<radialGradient id="SVGID_6_" cx="352.2432" cy="204.4277" r="132.4923" gradientUnits="userSpaceOnUse">
			<stop  offset="0" style="stop-color:#FFFFFF"/>
			<stop  offset="0.4451" style="stop-color:#8ADB00"/>
			<stop  offset="1" style="stop-color:#008200"/>
		</radialGradient>
		<path fill="url(#SVGID_6_)" d="M448.853,170.253c-0.22-0.289-0.347-0.486-0.347-0.486h-1.758c0.15,0.243,0.301,0.486,0.301,0.486
			H448.853z M433.83,221.967c-0.451-0.254-0.949-0.625-1.55-1.11c-3.4-2.753-7.46-7.512-9.9-6.754
			c2.29,1.249,5.101,4.273,7.563,6.28C431.887,221.979,432.997,222.198,433.83,221.967z M466.224,321.602
			c2.187,1.492,2.638,5.748,6.326,5.517c0.104-0.012,0.174,0,0.267,0C470.249,325.568,470.006,320.885,466.224,321.602z
			 M476.494,327.581c1.492,0.798,1.249,2.475,3.227,4.175c2.07,1.781,4.141,2.278,5.91,2.44c-1.146-0.37-2.348-0.902-3.563-1.966
			C479.396,329.952,480.784,327.696,476.494,327.581z M510.936,184.941c-2.949,1.688-9.275,0.856-12.225,4.215
			c-2.082,2.383-7.102,2.996-12.387,2.174c6.095,1.475,12.34,1.047,14.711-1.688c2.973-3.36,9.299-2.527,12.248-4.215
			c1.063-0.607,2.093-2.296,3.354-4.013c-17.221-16.891-39.287-28.844-63.921-33.603c23.686,5.065,44.919,16.758,61.585,33.117
			C513.052,182.645,512.011,184.333,510.936,184.941z M460.117,172.138c0.278-1.775-2.521,0.156-6.141,0.156
			c-0.255,0-0.405-0.075-0.647-0.093c0.774,0.318,1.711,0.561,2.995,0.561C457.781,172.763,459.03,172.444,460.117,172.138z
			 M503.557,320.839c-2.128-2.383-4.21-3.493-5.736-3.204c1.087,0.578,2.232,1.411,3.412,2.718c3.793,4.21-0.417,7.599-2.949,9.275
			c-2.533,1.688,0,8.87-5.482,14.78c-4.291,4.604-1.873,2.811,0.196,3.007c0.29-0.451,0.914-1.214,2.14-2.532
			c5.471-5.898,2.949-13.08,5.471-14.77C503.151,328.448,507.361,325.048,503.557,320.839z M494.154,347.924
			c0.104,0.104,0.242,0.15,0.335,0.267c1.156,1.734,2.567,2.787,4.661,2.648c-0.891-0.475-1.666-1.168-2.325-2.163
			C496.189,347.751,495.067,347.785,494.154,347.924z M459.285,206.094c0-2.949,2.938-5.065-0.429-8.853
			c-3.365-3.799-3.365-6.321-0.416-5.91c2.949,0.422,4.638,0.85,5.898-2.099s1.261-7.176,3.793-6.766
			c1.55,0.272,3.111-1.995,4.546-2.92c-2.036-2.828-4.453,2.856-6.882,2.446c-2.521-0.422-2.521,3.805-3.781,6.754
			c-1.272,2.949-2.961,2.521-5.91,2.111c-2.949-0.422-2.949,2.099,0.416,5.898c3.354,3.788,0.428,5.916,0.428,8.865
			c0,1.035-1.283,1.307-2.995,1.11C456.752,207.568,459.285,207.568,459.285,206.094z M431.852,336.439
			c-0.832-2.521,2.533-5.065-1.26-7.158c-2.048-1.146-3.701-2.105-4.812-1.816c0.74,0.359,1.562,0.821,2.475,1.33
			c3.782,2.117,0.429,4.638,1.272,7.171c0.556,1.643,2.591,2.822,5.285,3.064C433.344,338.464,432.233,337.562,431.852,336.439z
			 M461.586,377.312c-1.133,0-2.07-0.058-2.938-0.185c1.308,0.416,2.996,0.67,5.263,0.67c3.4,0,5.089-1.202,6.014-2.463
			c-0.115-0.37-0.196-0.566-0.324-0.972C467.496,367.608,471.278,377.312,461.586,377.312z M410.121,233.891
			c1.457,1.076,2.787,1.55,3.99,1.399c-0.544-0.266-1.088-0.497-1.654-0.937c-3.377-2.521-8.442-3.771-8.859-7.147
			c-0.428-3.389-2.104-5.077,5.055-9.287c7.182-4.227,10.964-3.371,8.848-7.176c-1.886-3.389,1.561-8.784-4.037-8.68
			c2.14,1.417,0.197,5.442,1.712,8.211c2.104,3.788-1.688,2.949-8.848,7.159c-7.158,4.209-5.481,5.921-5.077,9.287
			C401.679,230.097,406.744,231.347,410.121,233.891z M437.542,367.272c0.509,0.128,0.902,0.313,1.48,0.394
			c5.991,0.891,9.01,0.162,10.825-0.127C448.46,365.908,446.413,368.383,437.542,367.272z M505.511,350.226
			c2.857,1.492,6.304,5.633,8.917,9.483c-11.229,11.033-24.564,19.869-39.299,26.057c0.059,0.451,0.128,0.764,0.174,1.307
			c0,0.059-0.023,0.116,0,0.162c15.613-6.21,29.677-15.463,41.473-27.039C513.387,355.188,508.61,349.74,505.511,350.226z
			 M527.589,193.759c-0.485,0.081-1.145,0.335-1.677,0.457c16.227,21.118,25.976,47.481,25.976,76.163
			c0,1.516-0.173,2.973-0.231,4.465c-3.33,1.295-9.217,2.902-20.054,2.902c-2.395,0-4.06-0.058-5.251-0.173
			c0.59,0.404,2.648,0.67,7.587,0.67c10.825,0,16.724-1.619,20.054-2.914c0.047-1.504,0.231-2.949,0.231-4.464
			C554.224,241.767,544.22,215.045,527.589,193.759z M432.708,259.67c2.949-3.377,5.054-5.054,5.898-10.536
			c0.844-5.481,0.844-9.715,0.844-12.664s3.794-6.326,3.794-7.587c0-1.26-1.261-8.026-3.794-8.026c-0.428,0-0.786,0.15-1.11,0.324
			c1.678,1.677,2.567,6.188,2.567,7.217c0,1.26-3.793,4.638-3.793,7.586c0,2.961,0,7.182-0.845,12.665
			c-0.855,5.493-2.949,7.182-5.897,10.535c-2.949,3.378-4.638,5.066-6.326,13.081s0,6.766-4.638,12.235
			c-1.458,1.735-2.418,2.406-3.285,2.557c1.886,0.867,2.892,1.156,5.609-2.07c4.638-5.482,2.949-4.222,4.638-12.236
			C428.07,264.735,429.759,263.035,432.708,259.67z M409.913,310.719c-5.482-2.949-12.642-6.326-15.591-8.848
			c-2.972-2.544-2.972-5.065,2.521-9.298c5.482-4.21,5.482-7.599,13.069-7.159c0.474,0.012,0.844,0.104,1.249,0.15
			c-0.972-0.289-2.082-0.544-3.574-0.636c-7.598-0.429-7.598,2.948-13.068,7.17c-5.494,4.222-5.494,6.742-2.545,9.275
			c2.949,2.544,10.132,5.91,15.613,8.859c5.482,2.949,5.055,9.275,5.898,17.718c0.196,2.047-0.335,2.914-1.226,3.122
			c2.221,1.029,3.909,0.787,3.573-2.625C414.979,319.994,415.406,313.668,409.913,310.719z M378.166,210.396
			c0.463,0.179,1.041,0.289,1.839,0.26C378.871,210.043,378.768,209.314,378.166,210.396z M382.503,310.291
			c2.452,0.74,5.655,0.937,8.339,1.364c-2.244-0.693-5.552-0.891-8.489-1.411C382.399,310.256,382.445,310.279,382.503,310.291z"/>
	</g>
	<linearGradient id="SVGID_7_" gradientUnits="userSpaceOnUse" x1="287.0093" y1="45.019" x2="294.0288" y2="129.2536">
		<stop  offset="0" style="stop-color:#36C2FF"/>
		<stop  offset="1" style="stop-color:#0080C7"/>
	</linearGradient>
	<polygon fill="url(#SVGID_7_)" points="112.917,135.557 469.717,105.303 470.249,64.263 112.917,69.884 	"/>
	<path fill="#CCCCCC" d="M444.979,115.509c0,0-278.086,25.721-285.026,28.081c-6.927,2.371-40.721-5.615-39.322,39.316
		c1.399,44.925-5.297,174.005,1.399,181.129c6.708,7.136,11.473,20.69,42.132,15.451c44.387-6.337,47.58-11.044,140.726-36.326
		c0,0-108.447,15.856-131.74,19.522c-2.764,0.439-39.333,3.389-38.478-37.969c1.411-54.75,0.243-128.901,1.099-142.218
		c0.855-13.334,8.731-23.46,41.033-26.259C209.094,153.425,444.979,115.509,444.979,115.509z"/>
</g>
</svg>
