<?xml version="1.0" encoding="UTF-8" standalone="no"?>
<!-- Created with Inkscape (http://www.inkscape.org/) -->
<svg id="svg2" xmlns:rdf="http://www.w3.org/1999/02/22-rdf-syntax-ns#" xmlns="http://www.w3.org/2000/svg" height="48" width="48" version="1.0" xmlns:cc="http://creativecommons.org/ns#" xmlns:xlink="http://www.w3.org/1999/xlink" xmlns:dc="http://purl.org/dc/elements/1.1/">
 <defs id="defs4">
  <radialGradient id="radialGradient3156" gradientUnits="userSpaceOnUse" cy="10.458" cx="10.749" gradientTransform="matrix(-.84276 5.6989e-16 -4.5658e-9 -.35721 19.807 14.193)" r="6.6449">
   <stop id="stop3152" style="stop-color:#2e3436" offset="0"/>
   <stop id="stop3154" style="stop-color:#2e3436;stop-opacity:0" offset="1"/>
  </radialGradient>
  <linearGradient id="linearGradient2327" y2="12.84" gradientUnits="userSpaceOnUse" x2="12.186" y1="11.116" x1="11.787">
   <stop id="stop2323" style="stop-color:#fff" offset="0"/>
   <stop id="stop2325" style="stop-color:#fff;stop-opacity:0" offset="1"/>
  </linearGradient>
  <linearGradient id="linearGradient2367" y2="31.007" gradientUnits="userSpaceOnUse" x2="14.593" y1="24.232" x1="14.593">
   <stop id="stop2363" style="stop-color:#fff" offset="0"/>
   <stop id="stop2365" style="stop-color:#fff;stop-opacity:0" offset="1"/>
  </linearGradient>
  <linearGradient id="linearGradient2214" y2="15.059" gradientUnits="userSpaceOnUse" x2="28.09" y1="3.8866" x1="28.09">
   <stop id="stop2210" style="stop-color:#fff" offset="0"/>
   <stop id="stop2212" style="stop-color:#fff;stop-opacity:0" offset="1"/>
  </linearGradient>
  <linearGradient id="linearGradient2222" y2="20.717" gradientUnits="userSpaceOnUse" x2="36.697" y1="11" x1="36.697">
   <stop id="stop2218" style="stop-color:#fff" offset="0"/>
   <stop id="stop2220" style="stop-color:#fff;stop-opacity:0" offset="1"/>
  </linearGradient>
  <linearGradient id="linearGradient2230" y2="29.063" gradientUnits="userSpaceOnUse" x2="36.702" y1="20.379" x1="36.702">
   <stop id="stop2226" style="stop-color:#fff" offset="0"/>
   <stop id="stop2228" style="stop-color:#fff;stop-opacity:0" offset="1"/>
  </linearGradient>
  <linearGradient id="linearGradient2238" y2="16.47" gradientUnits="userSpaceOnUse" x2="17.893" y1="6.7057" x1="17.893">
   <stop id="stop2234" style="stop-color:#fff" offset="0"/>
   <stop id="stop2236" style="stop-color:#fff;stop-opacity:0" offset="1"/>
  </linearGradient>
  <linearGradient id="linearGradient2246" y2="23.239" gradientUnits="userSpaceOnUse" x2="12.732" y1="14.645" x1="12.732">
   <stop id="stop2242" style="stop-color:#fff" offset="0"/>
   <stop id="stop2244" style="stop-color:#fff;stop-opacity:0" offset="1"/>
  </linearGradient>
  <linearGradient id="linearGradient2254" y2="36.416" gradientUnits="userSpaceOnUse" x2="21.684" y1="24.981" x1="21.684">
   <stop id="stop2250" style="stop-color:#fff" offset="0"/>
   <stop id="stop2252" style="stop-color:#fff;stop-opacity:0" offset="1"/>
  </linearGradient>
  <linearGradient id="linearGradient2262" y2="35.257" gradientUnits="userSpaceOnUse" x2="30.265" y1="27.265" x1="30.265">
   <stop id="stop2258" style="stop-color:#fff" offset="0"/>
   <stop id="stop2260" style="stop-color:#fff;stop-opacity:0" offset="1"/>
  </linearGradient>
 </defs>
 <metadata id="metadata7">
  <rdf:RDF>
   <cc:Work rdf:about="">
    <dc:format>image/svg+xml</dc:format>
    <dc:type rdf:resource="http://purl.org/dc/dcmitype/StillImage"/>
   </cc:Work>
  </rdf:RDF>
 </metadata>
 <g id="layer1">
  <path id="path3140" style="opacity:.5;fill:url(#radialGradient3156)" d="m17.394 10.458a6.6449 2.3675 0 1 1 -13.29 0 6.6449 2.3675 0 1 1 13.29 0z" transform="matrix(3.0098 0 0 2.7455 -8.3515 7.8552)"/>
  <path id="path2226" style="stroke:#4e9a06;fill:#73d216" d="m26.367 35.737c-1.51-4.621-0.971-5.373 1.021-6.514s3.075-1.055 6.197 2.38c1.952 3.355 1.92 7.004-0.072 8.145s-5.193-0.656-7.146-4.011z"/>
  <path id="path2242" style="opacity:.4;stroke:#fff;fill:url(#linearGradient2262)" d="m28.969 26.5c-0.283 0.065-0.666 0.237-1.125 0.5-0.475 0.272-0.802 0.491-1 0.688-0.199 0.196-0.286 0.347-0.344 0.624-0.114 0.542 0.054 1.774 0.75 3.938 0.896 1.516 2.068 2.663 3.156 3.281 1.104 0.627 2.011 0.665 2.625 0.313 0.616-0.353 1.016-1.144 1.031-2.406 0.016-1.228-0.402-2.809-1.25-4.313-1.1-1.203-1.937-1.985-2.531-2.344-0.608-0.367-0.888-0.378-1.312-0.281z" xlink:href="#path2226"/>
  <path id="path2216" style="stroke:#4e9a06;fill:#73d216" d="m33.709 31.278c-4.54-2.533-4.643-3.686-3.849-6.544 0.794-2.859 1.733-3.807 6.727-3.812 3.989 1.031 6.583 4.187 5.788 7.046-0.794 2.858-4.676 4.341-8.666 3.31z"/>
  <path id="path2238" style="opacity:.4;stroke:#fff;fill:url(#linearGradient2230)" d="m36.438 18.812c-2.31 0.017-3.599 0.282-4.25 0.688-0.67 0.417-0.997 1.045-1.376 2.406-0.385 1.386-0.449 2.082-0.124 2.719 0.316 0.62 1.279 1.471 3.374 2.656 1.777 0.439 3.52 0.32 4.844-0.187 1.349-0.517 2.233-1.363 2.532-2.438 0.298-1.073-0.013-2.25-0.907-3.344-0.877-1.072-2.332-2.023-4.093-2.5z" xlink:href="#path2216"/>
  <path id="path2224" style="stroke:#4e9a06;fill:#73d216" d="m36.678 22.648c-4.626 1.584-5.379 1.019-6.521-1.07s-1.056-3.225 2.383-6.498c3.359-2.047 7.012-2.014 8.154 0.075s-0.657 5.446-4.016 7.493z"/>
  <path id="path2228" style="stroke:#a40000;fill:#ef2929" d="m15.681 33.623c-4.628 1.527-5.381 0.982-6.5238-1.032-1.1426-2.014-1.0563-3.109 2.3838-6.265 3.36-1.974 7.014-1.942 8.157 0.072 1.142 2.014-0.657 5.251-4.017 7.225z"/>
  <path id="path2244" style="opacity:.35;stroke:#fff;fill:url(#linearGradient2367)" d="m16.438 25.562c-1.212-0.01-2.777 0.425-4.282 1.282-1.606 1.486-2.4002 2.485-2.5935 3.062-0.1975 0.591-0.0599 0.943 0.4685 1.875 0.272 0.479 0.492 0.832 0.688 1.031 0.195 0.2 0.321 0.285 0.593 0.344 0.524 0.113 1.805-0.075 3.907-0.75 1.521-0.902 2.671-2.084 3.281-3.187 0.616-1.113 0.66-2.012 0.312-2.625-0.345-0.61-1.124-1.02-2.374-1.032z" xlink:href="#path2228" transform="translate(-.00032613 .00019456)"/>
  <path id="path2218" style="stroke:#4e9a06;fill:#73d216" d="m15.781 31.981c2.626-4.739 3.82-4.848 6.778-4.022 2.958 0.827 3.94 1.806 3.941 7.016-1.07 4.163-4.339 6.871-7.298 6.045-2.958-0.827-4.491-4.876-3.421-9.039z"/>
  <path id="path2240" style="opacity:.4;stroke:#fff;fill:url(#linearGradient2254)" d="m20.562 25.5c-0.654-0.037-1.001 0.066-1.593 0.594-0.57 0.507-1.309 1.569-2.219 3.187-0.45 1.85-0.364 3.674 0.156 5.063 0.533 1.42 1.454 2.346 2.563 2.656s2.302-0.028 3.437-0.969c1.115-0.924 2.099-2.435 2.594-4.281-0.014-2.417-0.297-3.786-0.719-4.469-0.432-0.7-1.091-1.012-2.5-1.406-0.733-0.205-1.305-0.352-1.719-0.375z" xlink:href="#path2218"/>
  <path id="path2222" style="stroke:#4e9a06;fill:#73d216" d="m22.59 12.086c1.585 4.821 1.019 5.605-1.071 6.796-2.091 1.19-3.228 1.1-6.504-2.484-2.049-3.5-2.016-7.3063 0.075-8.4966 2.091-1.1902 5.45 0.6844 7.5 4.1846z"/>
  <path id="path2232" style="opacity:.4;stroke:#fff;fill:url(#linearGradient2238)" d="m16.75 5.4688c-0.475-0.0468-0.847 0.0249-1.188 0.2187-0.661 0.3769-1.078 1.2425-1.093 2.5625-0.016 1.2953 0.434 2.913 1.343 4.5 1.532 1.658 2.558 2.479 3.188 2.688 0.647 0.213 1.092 0.083 2.062-0.469 0.5-0.285 0.849-0.509 1.063-0.719s0.312-0.362 0.375-0.656c0.121-0.566-0.075-1.892-0.781-4.094-1.418-2.3972-3.548-3.8915-4.969-4.0312z" xlink:href="#path2222" transform="translate(0 .067666)"/>
  <path id="path2220" style="stroke:#4e9a06;fill:#73d216" d="m15.11 15.905c4.714 2.622 4.822 3.815 3.997 6.774-0.825 2.958-1.8 3.941-6.985 3.946-4.1427-1.067-6.8351-4.334-6.0102-7.293 0.8248-2.958 4.8562-4.494 8.9982-3.427z"/>
  <path id="path2234" style="opacity:.4;stroke:#fff;fill:url(#linearGradient2246)" d="m12.094 13.5c-2.6126 0.108-4.532 1.383-5.0002 3.062-0.311 1.116 0.0095 2.312 0.9374 3.438 0.9114 1.106 2.4138 2.069 4.2498 2.562 2.404-0.016 3.759-0.298 4.438-0.718 0.697-0.432 1.013-1.091 1.406-2.5 0.401-1.438 0.49-2.124 0.156-2.782-0.325-0.64-1.351-1.521-3.531-2.75-0.904-0.22-1.832-0.346-2.656-0.312z" xlink:href="#path2220"/>
  <path id="path2236" style="opacity:.4;stroke:#fff;fill:url(#linearGradient2222)" d="m37.438 11.5c-1.229-0.011-2.797 0.435-4.313 1.344-1.552 1.499-2.335 2.543-2.531 3.156-0.205 0.636-0.092 1.063 0.437 2.031 0.273 0.499 0.52 0.851 0.719 1.063 0.199 0.211 0.328 0.282 0.594 0.344 0.506 0.116 1.778-0.067 3.844-0.75 1.518-0.935 2.697-2.157 3.312-3.313 0.621-1.166 0.669-2.161 0.312-2.813-0.355-0.649-1.137-1.051-2.374-1.062z" xlink:href="#path2224"/>
  <path id="path2192" style="stroke:#4e9a06;fill:#73d216" d="m33.125 15.014c-2.856 4.883-4.152 4.997-7.36 4.151-3.209-0.845-4.272-1.852-4.265-7.215 1.168-4.2866 4.72-7.0796 7.928-6.2339 3.209 0.8456 4.865 5.0109 3.697 9.2979z"/>
  <path id="path2230" style="opacity:.4;stroke:#fff;fill:url(#linearGradient2214)" d="m27.25 3.625c-1.935 0.5063-3.935 2.5358-4.75 5.4062 0.011 2.4918 0.289 3.8788 0.75 4.5938 0.473 0.734 1.215 1.095 2.75 1.5 1.561 0.411 2.366 0.53 3.125 0.156 0.742-0.365 1.714-1.439 3.063-3.719 0.49-1.9033 0.375-3.7694-0.188-5.187-0.576-1.45-1.557-2.4191-2.812-2.75-0.637-0.1677-1.298-0.1674-1.938 0z" xlink:href="#path2192"/>
  <path id="path1317" style="stroke:#c4a000;stroke-width:.21429;fill:#edd400" d="m13.272 12.36a1.1966 1.4142 0 1 1 -2.394 0 1.1966 1.4142 0 1 1 2.394 0z" transform="matrix(4.8919 1.2901 -1.1307 4.1535 -20.595 -43.342)"/>
  <path id="path2319" style="opacity:.4;stroke:#fff;stroke-width:.25783;fill:url(#linearGradient2327)" d="m13.272 12.36a1.1966 1.4142 0 1 1 -2.394 0 1.1966 1.4142 0 1 1 2.394 0z" transform="matrix(4.0686 1.0715 -.94044 3.4497 -13.027 -32.064)"/>
 </g>
</svg>
