<?xml version="1.0" encoding="UTF-8" standalone="no"?>
<!-- Created with Inkscape (http://www.inkscape.org/) -->
<svg id="svg4345" xmlns:rdf="http://www.w3.org/1999/02/22-rdf-syntax-ns#" xmlns="http://www.w3.org/2000/svg" height="48px" width="48px" xmlns:cc="http://creativecommons.org/ns#" xmlns:xlink="http://www.w3.org/1999/xlink" xmlns:dc="http://purl.org/dc/elements/1.1/">
 <defs id="defs4347">
  <linearGradient id="linearGradient1516" y2="40" gradientUnits="userSpaceOnUse" x2="21.875" y1="48.001" x1="21.875">
   <stop id="stop2806" style="stop-opacity:0" offset="0"/>
   <stop id="stop2812" offset=".5"/>
   <stop id="stop2808" style="stop-opacity:0" offset="1"/>
  </linearGradient>
  <radialGradient id="radialGradient1514" xlink:href="#linearGradient2781" gradientUnits="userSpaceOnUse" cy="44" cx="1" gradientTransform="matrix(2 0 0 .8 36 8.8)" r="5"/>
  <linearGradient id="linearGradient2781">
   <stop id="stop2783" offset="0"/>
   <stop id="stop2785" style="stop-opacity:0" offset="1"/>
  </linearGradient>
  <radialGradient id="radialGradient1512" xlink:href="#linearGradient2781" gradientUnits="userSpaceOnUse" cy="44" cx="1" gradientTransform="matrix(2 0 0 .8 -13 -79.2)" r="5"/>
  <radialGradient id="radialGradient4179" gradientUnits="userSpaceOnUse" cy="19.009" cx="31.113" r="8.6621">
   <stop id="stop3818" offset="0"/>
   <stop id="stop3820" style="stop-opacity:0" offset="1"/>
  </radialGradient>
  <radialGradient id="radialGradient5241" gradientUnits="userSpaceOnUse" cy="40.689" cx="23.235" gradientTransform="matrix(1 0 0 .13318 0 35.27)" r="16.957">
   <stop id="stop5237" style="stop-color:#2e3436" offset="0"/>
   <stop id="stop5239" style="stop-color:#2e3436;stop-opacity:0" offset="1"/>
  </radialGradient>
 </defs>
 <metadata id="metadata4350">
  <rdf:RDF>
   <cc:Work rdf:about="">
    <dc:format>image/svg+xml</dc:format>
    <dc:type rdf:resource="http://purl.org/dc/dcmitype/StillImage"/>
   </cc:Work>
  </rdf:RDF>
 </metadata>
 <g id="layer1">
  <g id="g1504" style="opacity:.12664" transform="matrix(.85106 0 0 1 3.1489 -3.9998)">
   <rect id="rect1506" style="opacity:1;color:black;fill:url(#radialGradient1512)" transform="scale(-1)" height="8" width="10" y="-48" x="-11"/>
   <rect id="rect1508" style="opacity:1;color:black;fill:url(#radialGradient1514)" height="8" width="10" y="40" x="38"/>
   <rect id="rect1510" style="opacity:1;color:black;fill:url(#linearGradient1516)" height="8" width="27" y="40" x="11"/>
  </g>
  <path id="path4340" style="opacity:.52838;fill:url(#radialGradient5241)" d="m40.192 40.689a16.957 2.2584 0 1 1 -33.914 0 16.957 2.2584 0 1 1 33.914 0z" transform="matrix(1.2089 0 0 1.9809 3.4108 15.872)"/>
  <path id="path4334" style="stroke:#787878;stroke-width:.95516;fill:#efefef" transform="matrix(-1.0455 0 0 1.0484 44.068 .63675)" d="m2.875 7.5c-0.7539 0-1.375 0.6265-1.375 1.4062v6.8128 2.75 7.72c0 0.78 0.6211 1.406 1.375 1.406h2.625v2.938l3.702-2.967 12.923 0.029c0.754 0 1.375-0.626 1.375-1.406v-7.72-2.75-6.8128c0-0.7797-0.621-1.4062-1.375-1.4062h-5.969-7.781-5.5z"/>
  <path id="path4336" style="stroke:#fff;stroke-width:.95516;fill:none" d="m2.875 8.4375c-0.228 0-0.4375 0.1931-0.4375 0.4687v6.8128 2.75 7.719c0 0.275 0.2095 0.468 0.4375 0.468h2.625c0.5151 0.007 0.9311 0.423 0.9375 0.938v0.968l2.1563-1.75c0.1712-0.127 0.3803-0.193 0.5937-0.187l12.938 0.031c0.227 0 0.436-0.193 0.436-0.468v-7.719-2.75-6.8128c0-0.2756-0.209-0.4687-0.437-0.4687h-5.969-7.781-5.5z" transform="matrix(-1.0455 0 0 1.0484 44.068 .63675)"/>
  <path id="path4306" style="color:black;fill-rule:evenodd;fill:url(#radialGradient4179)" d="m39.775 19.009a8.6621 8.6621 0 1 1 -17.324 0 8.6621 8.6621 0 1 1 17.324 0z" transform="matrix(2.5398 0 0 .41082 -52.02 75.749)"/>
  <path id="rect1326" style="stroke:#787878;stroke-width:.95516;fill:#efefef" transform="matrix(1.0455 0 0 1.0484 3.9318 8.7851)" d="m2.875 7.5c-0.7539 0-1.375 0.6265-1.375 1.4062v6.8128 2.75 7.72c0 0.78 0.6211 1.406 1.375 1.406h2.625v2.938l3.702-2.967 12.923 0.029c0.754 0 1.375-0.626 1.375-1.406v-7.72-2.75-6.8128c0-0.7797-0.621-1.4062-1.375-1.4062h-5.969-7.781-5.5z"/>
  <path id="path5034" style="stroke:#fff;stroke-width:.95516;fill:none" d="m2.875 8.4375c-0.228 0-0.4375 0.1931-0.4375 0.4687v6.8128 2.75 7.719c0 0.275 0.2095 0.468 0.4375 0.468h2.625c0.5151 0.007 0.9311 0.423 0.9375 0.938v0.968l2.1563-1.75c0.1712-0.127 0.3803-0.193 0.5937-0.187l12.938 0.031c0.227 0 0.436-0.193 0.436-0.468v-7.719-2.75-6.8128c0-0.2756-0.209-0.4687-0.437-0.4687h-5.969-7.781-5.5z" transform="matrix(1.0455 0 0 1.0484 3.9318 8.7851)"/>
 </g>
</svg>
