<?xml version="1.0" encoding="UTF-8" standalone="no"?>
<!-- Generator: Adobe Illustrator 15.1.0, SVG Export Plug-In . SVG Version: 6.00 Build 0)  -->
<!DOCTYPE svg  PUBLIC '-//W3C//DTD SVG 1.1//EN'  'http://www.w3.org/Graphics/SVG/1.1/DTD/svg11.dtd'>
<svg id="Layer_1" xmlns="http://www.w3.org/2000/svg" xml:space="preserve" height="48px" viewBox="0 0 48 48" width="48px" version="1.1" y="0px" x="0px" xmlns:xlink="http://www.w3.org/1999/xlink" enable-background="new 0 0 48 48">
		<linearGradient id="SVGID_1_" y2="-7.5858" gradientUnits="userSpaceOnUse" x2="-1.3676" gradientTransform="matrix(1 0 0 -1 24.945 39.359)" y1="38.372" x1="-.5654">
		<stop style="stop-color:#D67B43" offset="0"/>
		<stop style="stop-color:#D16841" offset=".2638"/>
		<stop style="stop-color:#CB222B" offset="1"/>
	</linearGradient>
	<path d="m1 23.964c0 17.022 5.954 22.978 22.978 22.978s22.978-5.953 22.978-22.978c0-16.649-5.702-22.705-21.879-22.964h-2.194c-16.181 0.259-21.883 6.315-21.883 22.964" fill="url(#SVGID_1_)"/>
	<g fill="#fff">
		<rect y="22.668" x="20.251" height="12.984" width="6.656"/>
		<path d="m30.659 12.288h-20.03v5.796 0.011c0 0.478 0.387 0.864 0.865 0.864 0.008 0 0.017-0.002 0.027-0.002 0 0.002 0 0.003 0.002 0.005h15.795s3.34 0 3.34 3.34v10.012c0 1.947 1.39 3.338 3.336 3.338h3.331v-16.938c-0.169-6.423-6.666-6.426-6.666-6.426z"/>
		<path d="m10.629 32.314c0 1.949 1.391 3.338 3.337 3.338h3.322v-12.995h-6.659v9.657z"/>
	</g>
</svg>
