<?xml version="1.0" encoding="UTF-8" standalone="no"?>
<!-- Created with Inkscape (http://www.inkscape.org/) -->
<svg id="svg2" xmlns:rdf="http://www.w3.org/1999/02/22-rdf-syntax-ns#" xmlns="http://www.w3.org/2000/svg" height="48" width="48" version="1.0" xmlns:cc="http://creativecommons.org/ns#" xmlns:xlink="http://www.w3.org/1999/xlink" xmlns:dc="http://purl.org/dc/elements/1.1/">
 <defs id="defs4">
  <radialGradient id="radialGradient3156" gradientUnits="userSpaceOnUse" cy="10.458" cx="10.749" gradientTransform="matrix(-.84276 5.6989e-16 -4.5658e-9 -.35721 19.807 14.193)" r="6.6449">
   <stop id="stop3152" style="stop-color:#2e3436" offset="0"/>
   <stop id="stop3154" style="stop-color:#2e3436;stop-opacity:0" offset="1"/>
  </radialGradient>
  <linearGradient id="linearGradient1318" y2="-28.749" gradientUnits="userSpaceOnUse" x2="13.639" gradientTransform="matrix(2.0857 0 0 1.9991 -1.7091 -1.4921)" y1="11.002" x1="14.315">
   <stop id="stop2224" style="stop-color:#8ae234" offset="0"/>
   <stop id="stop2226" style="stop-color:#8ae234;stop-opacity:0" offset="1"/>
  </linearGradient>
  <linearGradient id="linearGradient2203" y2="21.008" gradientUnits="userSpaceOnUse" x2="26.154" y1="17.937" x1="20.835">
   <stop id="stop2195" style="stop-color:#fff" offset="0"/>
   <stop id="stop2197" style="stop-color:#fff;stop-opacity:0" offset="1"/>
  </linearGradient>
 </defs>
 <metadata id="metadata7">
  <rdf:RDF>
   <cc:Work rdf:about="">
    <dc:format>image/svg+xml</dc:format>
    <dc:type rdf:resource="http://purl.org/dc/dcmitype/StillImage"/>
   </cc:Work>
  </rdf:RDF>
 </metadata>
 <g id="layer1">
  <path id="path3140" style="opacity:.35;fill:url(#radialGradient3156)" d="m17.394 10.458a6.6449 2.3675 0 1 1 -13.29 0 6.6449 2.3675 0 1 1 13.29 0z" transform="matrix(3.4613 0 0 2.1119 -13.204 14.915)"/>
  <path id="rect3167" style="stroke:#4e9a06;fill:url(#linearGradient1318)" d="m20.49 11.012c0 0.904 0.117 16.818 0.022 18.545 0 0-12.552-0.063-12.77-0.063-2.3353 0-4.237 1.712-4.237 4.051 0 2.327 1.9017 3.955 4.2366 3.955h14.056c4.983 0 6.865-2.255 6.865-5.497 0-0.904-0.267-18.794-0.157-20.491h12.696c2.335 0 4.298-1.8152 4.298-4.1468 0-1.6585-1.963-3.8595-4.298-3.8595h-14.559c-3.263 0-6.153 2.0681-6.153 7.5063z"/>
  <path id="path1316" style="opacity:.5;stroke:#fff;fill:url(#linearGradient2203)" d="m26.656 4.5312c-1.406 0-2.623 0.4101-3.531 1.375-0.908 0.965-1.563 2.5586-1.563 5.0938 0 0.415 0.02 4.655 0.032 8.969 0.012 4.313 0.027 8.593-0.032 9.656-0.03 0.564-0.498 1.004-1.062 1 0 0-3.152-0.016-6.312-0.031-3.161-0.016-6.4291-0.032-6.438-0.032-1.8164 0-3.1875 1.234-3.1875 3 0 1.752 1.337 2.876 3.1875 2.876h14.031c2.333 0 3.757-0.51 4.594-1.25 0.837-0.741 1.219-1.77 1.219-3.188 0-0.349-0.072-5.136-0.125-9.938-0.027-2.4-0.053-4.815-0.063-6.75-0.009-1.934-0.005-3.303 0.032-3.874 0.03-0.564 0.498-1.004 1.062-1h12.688c1.785 0 3.25-1.3564 3.25-3.0942 0-0.411-0.315-1.209-0.938-1.8126-0.623-0.6035-1.479-1-2.312-1h-14.532z" xlink:href="#rect3167"/>
 </g>
</svg>
