<?xml version="1.0" encoding="UTF-8" standalone="no"?>
<!-- Created with Inkscape (http://www.inkscape.org/) -->
<svg id="svg2" xmlns:rdf="http://www.w3.org/1999/02/22-rdf-syntax-ns#" xmlns="http://www.w3.org/2000/svg" height="48" width="48" version="1.0" xmlns:cc="http://creativecommons.org/ns#" xmlns:xlink="http://www.w3.org/1999/xlink" xmlns:dc="http://purl.org/dc/elements/1.1/">
 <defs id="defs4">
  <radialGradient id="radialGradient3156" gradientUnits="userSpaceOnUse" cy="10.458" cx="10.749" gradientTransform="matrix(-1.0173 3.1528e-16 -5.5114e-9 -.35721 21.683 14.193)" r="6.6449">
   <stop id="stop3152" style="stop-color:#2e3436" offset="0"/>
   <stop id="stop3154" style="stop-color:#2e3436;stop-opacity:0" offset="1"/>
  </radialGradient>
  <linearGradient id="linearGradient2233" y2="21.734" gradientUnits="userSpaceOnUse" x2="25.016" y1="8.8962" x1="25.016">
   <stop id="stop2229" style="stop-color:#fff" offset="0"/>
   <stop id="stop2231" style="stop-color:#fff;stop-opacity:0" offset="1"/>
  </linearGradient>
 </defs>
 <metadata id="metadata7">
  <rdf:RDF>
   <cc:Work rdf:about="">
    <dc:format>image/svg+xml</dc:format>
    <dc:type rdf:resource="http://purl.org/dc/dcmitype/StillImage"/>
   </cc:Work>
  </rdf:RDF>
 </metadata>
 <g id="layer1">
  <path id="path3140" style="opacity:.4;fill:url(#radialGradient3156)" d="m17.394 10.458a6.6449 2.3675 0 1 1 -13.29 0 6.6449 2.3675 0 1 1 13.29 0z" transform="matrix(3.3769 0 0 1.9007 -12.736 10.623)"/>
  <path id="rect2212" style="stroke:#3465a4;fill:#729fcf" d="m2.4375 10.5v12h11.312v4h-11.312l-0.0005 4h15.062v-12h-11.281l-0.0002-4h11.281v-4h-15.062zm19.032 0v20h4.031v-20h-4.031zm8.031 0v20h4v-8h12v-12h-16zm4 4h8v4.062h-8v-4.062z"/>
  <path id="path1352" style="opacity:.35;stroke:#fff;fill:url(#linearGradient2233)" d="m3.4688 11.531v9.938h10.281c0.567 0.006 1.025 0.464 1.031 1.031v4c-0.006 0.567-0.464 1.025-1.031 1.031h-10.281l-0.0002 1.938h13v-9.938h-10.25c-0.5672-0.006-1.0254-0.464-1.0315-1.031v-4c0.0061-0.567 0.4643-1.025 1.0313-1.031h10.25v-1.938h-13zm19.031 0v17.938h1.969v-17.938h-1.969zm8.031 0v17.938h1.938v-6.969c0.006-0.567 0.464-1.025 1.031-1.031h10.969v-9.938h-13.938zm2.781 1.938c0.063-0.006 0.126-0.006 0.188 0h8c0.567 0.006 1.025 0.464 1.031 1.031v4.062c-0.006 0.567-0.464 1.026-1.031 1.032h-8c-0.567-0.006-1.025-0.465-1.031-1.032v-4.062c-0.004-0.502 0.351-0.936 0.843-1.031z" xlink:href="#rect2212"/>
 </g>
</svg>
