<?xml version="1.0" encoding="UTF-8" standalone="no"?>
<!-- Created with Inkscape (http://www.inkscape.org/) -->
<svg id="svg1307" xmlns:rdf="http://www.w3.org/1999/02/22-rdf-syntax-ns#" xmlns="http://www.w3.org/2000/svg" height="48" width="48" version="1.0" xmlns:cc="http://creativecommons.org/ns#" xmlns:xlink="http://www.w3.org/1999/xlink" xmlns:dc="http://purl.org/dc/elements/1.1/">
 <defs id="defs1309">
  <radialGradient id="radialGradient3156" gradientUnits="userSpaceOnUse" cy="10.458" cx="10.749" gradientTransform="matrix(-.84276 5.6989e-16 -4.5658e-9 -.35721 19.807 14.193)" r="6.6449">
   <stop id="stop3152" style="stop-color:#2e3436" offset="0"/>
   <stop id="stop3154" style="stop-color:#2e3436;stop-opacity:0" offset="1"/>
  </radialGradient>
  <linearGradient id="linearGradient2206" y2=".12943" gradientUnits="userSpaceOnUse" x2="9.7635" gradientTransform="matrix(1.8714 0 0 1.8714 1.9908 1.3391)" y1="11.499" x1="9.7635">
   <stop id="stop4125" style="stop-color:#f00" offset="0"/>
   <stop id="stop4127" style="stop-color:#f00;stop-opacity:0" offset="1"/>
  </linearGradient>
  <linearGradient id="linearGradient2217" y2="23.064" gradientUnits="userSpaceOnUse" x2="36.249" y1="7.6495" x1="36.249">
   <stop id="stop2213" style="stop-color:#fff" offset="0"/>
   <stop id="stop2215" style="stop-color:#fff;stop-opacity:0" offset="1"/>
  </linearGradient>
 </defs>
 <metadata id="metadata1312">
  <rdf:RDF>
   <cc:Work rdf:about="">
    <dc:format>image/svg+xml</dc:format>
    <dc:type rdf:resource="http://purl.org/dc/dcmitype/StillImage"/>
   </cc:Work>
  </rdf:RDF>
 </metadata>
 <g id="layer1">
  <rect id="rect3203" style="opacity:0" height="2.5118" width="0" y="6.4882" x="6"/>
  <path id="path3140" style="opacity:.6;fill:url(#radialGradient3156)" d="m17.394 10.458a6.6449 2.3675 0 1 1 -13.29 0 6.6449 2.3675 0 1 1 13.29 0z" transform="matrix(3.1636 0 0 2.1119 -10.026 12.915)"/>
  <path id="path4110" style="stroke:#a40000;fill:#f00" d="m36.594 13.5l0.156 11.219 7.375-11.219h-7.531zm-3.188 16.844c-1.353 0.176-2.406 1.38-2.406 2.812 0 1.554 1.232 2.813 2.75 2.813s2.75-1.259 2.75-2.813c0-1.553-1.232-2.812-2.75-2.812-0.119 0-0.229-0.015-0.344 0z"/>
  <path id="path2209" style="opacity:.35;stroke:#fff;fill:url(#linearGradient2217)" d="m37.625 15.062l0.094 6.813 4.469-6.813h-4.563zm-4.094 16.844c-0.82 0.107-1.5 0.859-1.5 1.782 0 1.003 0.775 1.781 1.719 1.781s1.719-0.778 1.719-1.781c0-1.004-0.775-1.782-1.719-1.782-0.206 0-0.277 0.008-0.219 0z" xlink:href="#path4110"/>
  <path id="rect3219" style="stroke:#a40000;fill:url(#linearGradient2206)" d="m2.6545 11.533l1.6988 3.912 3.3882 0.11 9.7355 9.755-0.045 6.196-5.004-0.121-0.762 3.114 15.673 0.047-0.787-3.026-4.979 0.083v-6.412l6.636-7.667 3.26-0.09 1.104-3.901-9.404-0.06-1.474 3.938 2.081 0.053-3.799 3.425-6.778-5.444h4.56l2.365-3.867-17.47-0.045z"/>
  <path id="path2204" style="opacity:.35;stroke:#fff;fill:none" d="m4.1562 13.062l0.8438 1.938 2.7812 0.094c0.2505 0.017 0.4852 0.129 0.6563 0.312l9.7185 9.75c0.191 0.179 0.304 0.426 0.313 0.688l-0.031 6.187c0.003 0.272-0.106 0.533-0.301 0.722s-0.459 0.29-0.731 0.278l-4.187-0.093-0.281 1.093 13.124 0.031-0.281-1-4.219 0.063c-0.266 0.003-0.522-0.101-0.71-0.29-0.188-0.188-0.293-0.444-0.29-0.71v-6.406c0.001-0.242 0.09-0.476 0.25-0.657l6.657-7.656c0.181-0.21 0.441-0.335 0.719-0.344l2.531-0.062 0.562-1.938-7.437-0.062-0.719 1.969 0.687 0.031c0.416 0.002 0.786 0.265 0.926 0.656 0.14 0.392 0.02 0.829-0.3 1.094l-3.813 3.406c-0.362 0.324-0.904 0.337-1.281 0.032l-6.782-5.438c-0.347-0.258-0.486-0.712-0.342-1.121 0.143-0.408 0.535-0.676 0.968-0.66h4l1.156-1.875-14.188-0.032z" xlink:href="#rect3219"/>
 </g>
</svg>
