<?xml version="1.0" encoding="UTF-8" standalone="no"?>
<!-- Created with Inkscape (http://www.inkscape.org/) -->
<svg id="svg1307" xmlns:rdf="http://www.w3.org/1999/02/22-rdf-syntax-ns#" xmlns="http://www.w3.org/2000/svg" height="48" width="48" version="1.0" xmlns:cc="http://creativecommons.org/ns#" xmlns:xlink="http://www.w3.org/1999/xlink" xmlns:dc="http://purl.org/dc/elements/1.1/">
 <defs id="defs1309">
  <radialGradient id="radialGradient3156" gradientUnits="userSpaceOnUse" cy="10.458" cx="10.749" gradientTransform="matrix(-.84276 5.6989e-16 -4.5658e-9 -.35721 19.807 14.193)" r="6.6449">
   <stop id="stop3152" style="stop-color:#2e3436" offset="0"/>
   <stop id="stop3154" style="stop-color:#2e3436;stop-opacity:0" offset="1"/>
  </radialGradient>
  <radialGradient id="radialGradient2244" gradientUnits="userSpaceOnUse" cy="15.052" cx="25" gradientTransform="matrix(1.9188 -3.0536e-32 3.8738e-32 2.4342 -22.971 -29.401)" r="13.031">
   <stop id="stop2238" style="stop-color:#fff" offset="0"/>
   <stop id="stop2240" style="stop-color:#fff;stop-opacity:0" offset="1"/>
  </radialGradient>
 </defs>
 <metadata id="metadata1312">
  <rdf:RDF>
   <cc:Work rdf:about="">
    <dc:format>image/svg+xml</dc:format>
    <dc:type rdf:resource="http://purl.org/dc/dcmitype/StillImage"/>
   </cc:Work>
  </rdf:RDF>
 </metadata>
 <g id="layer1">
  <rect id="rect3203" style="opacity:0" height="5.2292" width="0" y="11.344" x="12.491"/>
  <path id="path3140" style="opacity:.6;fill:url(#radialGradient3156)" d="m17.394 10.458a6.6449 2.3675 0 1 1 -13.29 0 6.6449 2.3675 0 1 1 13.29 0z" transform="matrix(3.2356 0 0 2.1119 -10.278 16.914)"/>
  <path id="rect4229" style="stroke:#204a87;fill:#3465a4" d="m11.5 6.4993v7.9997h21.054v4.001h5.926v-10.981-1.0197h-26.98zm8.053 14.047v5.954h10.919v-5.954h-10.919zm-8.053 7.954v12h26.985v-8h-20.975v-4h-6.01z"/>
  <path id="path4266" style="opacity:.3;stroke:#fff;fill:url(#radialGradient2244)" d="m12.469 4.4688v6.0622h20.093c0.532 0.008 0.962 0.437 0.969 0.969v3.031h3.969v-9.9998-0.0624h-25.031zm8.062 14.031v4.031h8.969v-4.031h-8.969zm-8.062 7.969v10.062h25.062v-6.062h-20.031c-0.532-0.008-0.961-0.437-0.969-0.969v-3.031h-4.062z" xlink:href="#rect4229"/>
 </g>
</svg>
